<svg width="61" height="18" viewBox="0 0 61 18" fill="none" xmlns="http://www.w3.org/2000/svg">
<path d="M34.078 6.51C34.078 6.75267 34.0407 6.99533 33.966 7.238C33.9007 7.47133 33.7933 7.69067 33.644 7.896C33.4947 8.10133 33.2987 8.27867 33.056 8.428C32.8133 8.57733 32.5193 8.68467 32.174 8.75V8.834C32.482 8.862 32.7713 8.932 33.042 9.044C33.3127 9.156 33.546 9.31467 33.742 9.52C33.9473 9.716 34.106 9.95867 34.218 10.248C34.3393 10.528 34.4 10.8593 34.4 11.242C34.4 11.7553 34.2787 12.194 34.036 12.558C33.8027 12.922 33.4947 13.2207 33.112 13.454C32.7293 13.6873 32.2907 13.86 31.796 13.972C31.3013 14.084 30.7973 14.14 30.284 14.14C30.116 14.14 29.892 14.14 29.612 14.14C29.3413 14.14 29.0473 14.1307 28.73 14.112C28.422 14.1027 28.1047 14.084 27.778 14.056C27.4607 14.028 27.1713 13.986 26.91 13.93V4.27C27.106 4.242 27.3253 4.214 27.568 4.186C27.82 4.158 28.086 4.13467 28.366 4.116C28.6553 4.09733 28.9493 4.08333 29.248 4.074C29.5467 4.06467 29.8453 4.06 30.144 4.06C30.6293 4.06 31.1053 4.09733 31.572 4.172C32.0387 4.23733 32.4587 4.36333 32.832 4.55C33.2053 4.72733 33.504 4.97467 33.728 5.292C33.9613 5.60933 34.078 6.01533 34.078 6.51ZM30.256 12.46C30.5173 12.46 30.7647 12.4367 30.998 12.39C31.2407 12.3433 31.4507 12.2687 31.628 12.166C31.8147 12.054 31.9593 11.9187 32.062 11.76C32.174 11.592 32.23 11.3867 32.23 11.144C32.23 10.8453 32.1647 10.6073 32.034 10.43C31.9033 10.2527 31.7307 10.122 31.516 10.038C31.3107 9.94467 31.0773 9.88867 30.816 9.87C30.564 9.842 30.3073 9.828 30.046 9.828H28.898V12.376C28.954 12.3947 29.0333 12.4087 29.136 12.418C29.248 12.4273 29.3693 12.4367 29.5 12.446C29.6307 12.446 29.7613 12.4507 29.892 12.46C30.032 12.46 30.1533 12.46 30.256 12.46ZM29.598 8.288C29.738 8.288 29.9013 8.288 30.088 8.288C30.284 8.27867 30.4473 8.26467 30.578 8.246C30.97 8.12467 31.3013 7.96133 31.572 7.756C31.8427 7.54133 31.978 7.252 31.978 6.888C31.978 6.64533 31.9267 6.44933 31.824 6.3C31.7213 6.15067 31.5813 6.034 31.404 5.95C31.236 5.866 31.0447 5.81 30.83 5.782C30.6153 5.754 30.396 5.74 30.172 5.74C29.9013 5.74 29.654 5.74467 29.43 5.754C29.206 5.76333 29.0287 5.77733 28.898 5.796V8.288H29.598ZM37.6568 10.234L35.2488 6.65H37.6288L38.6228 8.078L38.6088 8.064L39.1828 9.366L39.7428 8.064L39.7288 8.078L40.7928 6.65H42.9488L40.5268 10.178L43.1028 14H40.7788L39.5888 12.348L39.6028 12.362L39.0148 11.074L38.3988 12.362L38.4128 12.348L37.2088 14H35.0528L37.6568 10.234ZM43.5958 10.332C43.5958 9.11867 43.9178 8.16667 44.5618 7.476C45.2058 6.78533 46.1251 6.44 47.3198 6.44C47.9451 6.44 48.4911 6.538 48.9578 6.734C49.4245 6.93 49.8118 7.20533 50.1198 7.56C50.4278 7.90533 50.6565 8.316 50.8058 8.792C50.9645 9.25867 51.0438 9.772 51.0438 10.332C51.0438 10.9293 50.9598 11.4707 50.7918 11.956C50.6238 12.432 50.3811 12.838 50.0638 13.174C49.7465 13.51 49.3545 13.7667 48.8878 13.944C48.4305 14.1213 47.9078 14.21 47.3198 14.21C46.6851 14.21 46.1345 14.112 45.6678 13.916C45.2011 13.72 44.8138 13.4493 44.5058 13.104C44.1978 12.7493 43.9691 12.3387 43.8198 11.872C43.6705 11.396 43.5958 10.8827 43.5958 10.332ZM45.6118 10.332C45.6118 10.64 45.6445 10.9293 45.7098 11.2C45.7751 11.4707 45.8731 11.7087 46.0038 11.914C46.1438 12.11 46.3211 12.2687 46.5358 12.39C46.7505 12.5113 47.0118 12.572 47.3198 12.572C48.4585 12.572 49.0278 11.8253 49.0278 10.332C49.0278 10.0053 48.9951 9.70667 48.9298 9.436C48.8738 9.156 48.7758 8.918 48.6358 8.722C48.5051 8.51667 48.3278 8.358 48.1038 8.246C47.8891 8.134 47.6278 8.078 47.3198 8.078C46.7878 8.078 46.3678 8.25533 46.0598 8.61C45.7611 8.96467 45.6118 9.53867 45.6118 10.332ZM60.4688 15.666H59.0968L58.8448 14H53.2728L53.0068 15.666H51.6348V12.264H52.5588C52.6428 12.152 52.7548 11.9653 52.8948 11.704C53.0441 11.4427 53.1841 11.088 53.3148 10.64C53.4548 10.192 53.5714 9.64133 53.6648 8.988C53.7674 8.32533 53.8234 7.546 53.8328 6.65H59.2928V12.264H60.4688V15.666ZM57.3328 12.362V8.288H55.4988C55.4801 8.652 55.4428 9.03 55.3868 9.422C55.3308 9.814 55.2608 10.192 55.1768 10.556C55.0928 10.92 54.9948 11.2607 54.8828 11.578C54.7708 11.8953 54.6494 12.1567 54.5188 12.362H57.3328Z" fill="#6F6F6F"/>
<path d="M8 3C10.4299 3 14.2222 3 14.2222 3C14.4285 3 14.6263 3.16389 14.7722 3.45561C14.9181 3.74733 15 4.143 15 4.55556V15.4444C15 15.857 14.9181 16.2527 14.7722 16.5444C14.6263 16.8361 14.4285 17 14.2222 17H8" stroke="#6F6F6F" stroke-width="2" stroke-linecap="round" stroke-linejoin="round"/>
<path d="M7 13L10 10L7 7" stroke="#6F6F6F" stroke-width="2" stroke-linecap="round" stroke-linejoin="round"/>
<path d="M10 10H1" stroke="#6F6F6F" stroke-width="2" stroke-linecap="round" stroke-linejoin="round"/>
</svg>
