<svg width="53" height="41" viewBox="0 0 53 41" fill="none" xmlns="http://www.w3.org/2000/svg">
<path fill-rule="evenodd" clip-rule="evenodd" d="M52.2844 3.75119C52.2574 3.74444 52.1674 3.70866 52.0198 3.65002C50.7614 3.14977 45.3175 0.98584 39.1007 0.98584C33.2485 0.98584 28.168 2.85084 26.4959 3.55826C24.8881 2.91515 19.7433 0.98584 13.8911 0.98584C7.73518 0.98584 2.29984 3.14747 1.03821 3.64921L1.0382 3.64922C0.889546 3.70834 0.79884 3.74441 0.771725 3.75119C0.321552 4.00843 0 4.4586 0 4.97309V39.7007C0 40.1509 0.192931 40.5368 0.578794 40.794C0.624341 40.8092 0.673472 40.828 0.725341 40.8478C0.893184 40.9119 1.0897 40.9869 1.28621 40.9869C1.43888 40.9869 1.55128 40.9467 1.68714 40.898C1.72297 40.8852 1.76043 40.8717 1.80069 40.8583C1.80667 40.8583 1.86441 40.8361 1.96913 40.7957L1.96923 40.7956C2.99058 40.4019 8.47868 38.2859 14.0197 38.2859C20.0649 38.2859 25.9814 40.794 26.0457 40.8583H26.11C26.1743 40.8583 26.2387 40.8583 26.2387 40.9226C26.303 40.9226 26.3673 40.9226 26.3673 40.9869H26.4959H26.6245C26.6888 40.9869 26.7531 40.9869 26.7531 40.9226C26.8175 40.9226 26.8818 40.9226 26.8818 40.8583H26.9461C26.9521 40.8583 27.0093 40.8358 27.1129 40.7951C28.1179 40.3998 33.4922 38.2859 38.9721 38.2859C44.4521 38.2859 49.9849 40.3998 51.0195 40.7951C51.1262 40.8358 51.1851 40.8583 51.1911 40.8583C51.2314 40.8717 51.2688 40.8852 51.3047 40.898C51.4405 40.9467 51.5529 40.9869 51.7056 40.9869C51.9628 40.9869 52.2201 40.9226 52.413 40.794C52.7989 40.5368 52.9918 40.1509 52.9918 39.7007V4.97309C53.0561 4.4586 52.7346 4.00843 52.2844 3.75119ZM2.57242 37.8357V5.80912C4.3088 5.10171 8.93915 3.55826 13.9554 3.55826C18.9716 3.55826 23.4733 5.10171 25.274 5.80912V37.8357C22.8945 36.9997 18.5214 35.7135 14.0197 35.7135C9.45363 35.7135 4.9519 36.9997 2.57242 37.8357ZM50.4837 37.8357C48.1042 36.9997 43.6025 35.7135 39.0364 35.7135C34.4704 35.7135 30.1616 36.9997 27.7821 37.8357V5.80912C29.5828 5.10171 34.0845 3.55826 39.1007 3.55826C44.117 3.55826 48.683 5.10171 50.4837 5.80912V37.8357ZM6.49527 13.2692C6.6882 13.2692 6.88113 13.2049 7.00975 13.1406C7.01727 13.1406 7.06789 13.1203 7.1573 13.0846L7.15732 13.0846C7.8324 12.8148 10.7183 11.6614 13.9553 11.6614C17.5567 11.6614 20.7079 13.0762 20.8365 13.1406C21.4796 13.4621 22.2513 13.1406 22.5086 12.4975C22.8301 11.8544 22.5086 11.0826 21.8655 10.8254C21.7368 10.7611 18.1355 9.15331 13.9553 9.15331C9.7751 9.15331 6.1094 10.7611 5.98078 10.8254C5.33768 11.1469 5.01613 11.8544 5.33768 12.4975C5.53061 13.0119 5.98078 13.2692 6.49527 13.2692ZM13.9554 16.4848C17.9427 16.4848 21.737 18.0926 21.8656 18.1569C22.5087 18.4142 22.7659 19.1859 22.4444 19.8933C22.2515 20.3435 21.8013 20.665 21.2868 20.665C21.1341 20.665 21.0217 20.6248 20.8859 20.5761L20.8858 20.5761C20.85 20.5632 20.8126 20.5498 20.7723 20.5364C20.7646 20.5364 20.708 20.5148 20.6086 20.4769C19.8847 20.2007 16.8879 19.0573 13.8911 19.0573C10.8943 19.0573 7.84777 20.2007 7.11191 20.4769C7.01083 20.5148 6.95335 20.5364 6.94558 20.5364C6.30247 20.7936 5.53075 20.4721 5.27351 19.829C5.01627 19.1859 5.33782 18.4142 5.98092 18.1569C5.9958 18.152 6.03209 18.1378 6.08823 18.116C6.76015 17.8542 10.2756 16.4848 13.9554 16.4848ZM21.8656 25.488C21.737 25.4236 17.9427 23.8159 13.9554 23.8159C10.2756 23.8159 6.76016 25.1853 6.08823 25.447L6.08822 25.447C6.03208 25.4689 5.9958 25.483 5.98092 25.488C5.33782 25.7452 5.01627 26.5169 5.27351 27.16C5.53075 27.8031 6.30247 28.1247 6.94558 27.8674C6.95335 27.8674 7.01083 27.8459 7.11191 27.8079C7.84777 27.5317 10.8943 26.3883 13.8911 26.3883C16.8879 26.3883 19.8847 27.5317 20.6086 27.8079C20.708 27.8459 20.7646 27.8674 20.7723 27.8674C20.8126 27.8809 20.85 27.8943 20.8858 27.9071L20.8859 27.9071C21.0217 27.9558 21.1341 27.9961 21.2868 27.9961C21.8013 27.9961 22.2515 27.6745 22.4444 27.2243C22.7659 26.5169 22.5087 25.7452 21.8656 25.488ZM32.2195 13.1406C31.5764 13.4621 30.869 13.1406 30.5474 12.4975C30.2902 11.8544 30.5474 11.0826 31.1906 10.8254C31.3192 10.7611 34.9849 9.15331 39.1651 9.15331C43.3452 9.15331 46.9466 10.7611 47.0752 10.8254C47.7183 11.0826 48.0399 11.8544 47.7183 12.4975C47.5254 13.0119 47.0752 13.2692 46.5608 13.2692C46.4081 13.2692 46.2957 13.2289 46.1598 13.1802L46.1596 13.1802L46.1594 13.1801C46.1237 13.1673 46.0864 13.1539 46.0463 13.1406C45.982 13.0762 42.7664 11.6614 39.1651 11.6614C35.9882 11.6614 33.0615 12.8124 32.3716 13.0837C32.2794 13.12 32.2271 13.1406 32.2195 13.1406ZM47.0752 18.1569C46.9466 18.0926 43.1523 16.4848 39.165 16.4848C35.4852 16.4848 31.9698 17.8542 31.2978 18.116C31.2417 18.1378 31.2054 18.152 31.1905 18.1569C30.5474 18.4142 30.2259 19.1859 30.4831 19.829C30.7404 20.4721 31.5121 20.7936 32.1552 20.5364C32.163 20.5364 32.2204 20.5148 32.3215 20.4769C33.0574 20.2007 36.1039 19.0573 39.1007 19.0573C42.0975 19.0573 45.0944 20.2007 45.8182 20.4769C45.9176 20.5148 45.9742 20.5364 45.9819 20.5364C46.0222 20.5498 46.0597 20.5633 46.0955 20.5761C46.2314 20.6248 46.3438 20.665 46.4964 20.665C47.0109 20.665 47.4611 20.3435 47.654 19.8933C48.0399 19.1859 47.7183 18.4142 47.0752 18.1569ZM39.165 23.8159C43.1523 23.8159 46.9466 25.4236 47.0752 25.488C47.7183 25.7452 48.0399 26.5169 47.654 27.2243C47.4611 27.6745 47.0109 27.9961 46.4964 27.9961C46.3438 27.9961 46.2314 27.9558 46.0955 27.9071C46.0597 27.8943 46.0222 27.8809 45.9819 27.8674C45.9742 27.8674 45.9176 27.8459 45.8182 27.8079C45.0944 27.5317 42.0975 26.3883 39.1007 26.3883C36.1039 26.3883 33.0574 27.5317 32.3215 27.8079C32.2204 27.8459 32.163 27.8674 32.1552 27.8674C31.5121 28.1247 30.7404 27.8031 30.4831 27.16C30.2259 26.5169 30.5474 25.7452 31.1905 25.488C31.2054 25.483 31.2417 25.4689 31.2978 25.447C31.9697 25.1853 35.4852 23.8159 39.165 23.8159Z" fill="url(#paint0_linear)"/>
<defs>
<linearGradient id="paint0_linear" x1="6.03797" y1="35.4172" x2="36.7151" y2="-5.22888" gradientUnits="userSpaceOnUse">
<stop stop-color="#93B209"/>
<stop offset="1" stop-color="#E6EF37"/>
</linearGradient>
</defs>
</svg>
