<svg width="60" height="60" viewBox="0 0 60 60" fill="none" xmlns="http://www.w3.org/2000/svg">
<path d="M7.5 45V30C7.5 24.0326 9.87053 18.3097 14.0901 14.0901C18.3097 9.87053 24.0326 7.5 30 7.5C35.9674 7.5 41.6903 9.87053 45.9099 14.0901C50.1295 18.3097 52.5 24.0326 52.5 30V45" stroke="#FF6600" stroke-width="5" stroke-linecap="round" stroke-linejoin="round"/>
<path d="M52.5 47.5C52.5 48.8261 51.9732 50.0979 51.0355 51.0355C50.0979 51.9732 48.8261 52.5 47.5 52.5H45C43.6739 52.5 42.4021 51.9732 41.4645 51.0355C40.5268 50.0979 40 48.8261 40 47.5V40C40 38.6739 40.5268 37.4021 41.4645 36.4645C42.4021 35.5268 43.6739 35 45 35H52.5V47.5ZM7.5 47.5C7.5 48.8261 8.02678 50.0979 8.96447 51.0355C9.90215 51.9732 11.1739 52.5 12.5 52.5H15C16.3261 52.5 17.5979 51.9732 18.5355 51.0355C19.4732 50.0979 20 48.8261 20 47.5V40C20 38.6739 19.4732 37.4021 18.5355 36.4645C17.5979 35.5268 16.3261 35 15 35H7.5V47.5Z" stroke="#FF6600" stroke-width="5" stroke-linecap="round" stroke-linejoin="round"/>
</svg>
