<svg width="464" height="333" viewBox="0 0 464 333" fill="none" xmlns="http://www.w3.org/2000/svg">
<path d="M437.144 50.1474C428.504 50.1474 420.821 54.2572 415.927 60.6028C416.395 57.792 416.671 54.896 416.671 51.9574C416.671 23.2531 393.433 0 364.746 0C338.762 0 317.247 19.1007 313.417 44.0147C306.862 36.7535 297.414 32.1753 286.858 32.1753C267.067 32.1753 251 48.2309 251 68.0557C251 71.5053 251.511 74.8272 252.426 78H319.801H321.269H409.67C409.883 77.6167 410.074 77.2334 410.287 76.8501C410.287 76.914 410.287 76.9779 410.287 77.0418C410.287 77.3612 410.33 77.6806 410.33 77.9787H463.957C463.979 77.6593 464 77.3612 464 77.0418C464 62.1785 451.976 50.1474 437.144 50.1474Z" fill="#EEEFF2"/>
<path d="M120.6 140.789C115.002 140.789 110.025 143.476 106.854 147.625C107.157 145.787 107.336 143.894 107.336 141.972C107.336 123.204 92.2804 108 73.6947 108C56.86 108 42.9208 120.489 40.439 136.779C36.1924 132.031 30.0707 129.038 23.2321 129.038C10.4096 129.038 0 139.536 0 152.498C0 154.753 0.330921 156.925 0.923787 159H44.5753H45.5266H102.8C102.938 158.749 103.062 158.499 103.2 158.248C103.2 158.29 103.2 158.332 103.2 158.373C103.2 158.582 103.228 158.791 103.228 158.986H137.972C137.986 158.777 138 158.582 138 158.373C138 148.655 130.21 140.789 120.6 140.789Z" fill="#EEEFF2"/>
<path d="M252.591 135.375H192V320H252.591V135.375Z" fill="#EBEBEB"/>
<path d="M246.853 164.894H195.6V179.321H246.853V164.894Z" fill="#E0E0E0"/>
<path d="M199.905 166.705H197.033V177.746H199.905V166.705Z" fill="#F5F5F5"/>
<path d="M202.372 169.941C202.876 169.941 203.284 169.532 203.284 169.028C203.284 168.524 202.876 168.116 202.372 168.116C201.868 168.116 201.459 168.524 201.459 169.028C201.459 169.532 201.868 169.941 202.372 169.941Z" fill="#FAFAFA"/>
<path d="M202.372 173.847C202.876 173.847 203.284 173.439 203.284 172.935C203.284 172.431 202.876 172.022 202.372 172.022C201.868 172.022 201.459 172.431 201.459 172.935C201.459 173.439 201.868 173.847 202.372 173.847Z" fill="#FAFAFA"/>
<path d="M209.75 168.116H206.927V176.598H209.75V168.116Z" fill="#F5F5F5"/>
<path d="M213.827 168.116H211.004V176.598H213.827V168.116Z" fill="#F5F5F5"/>
<path d="M217.898 168.116H215.075V176.598H217.898V168.116Z" fill="#F5F5F5"/>
<path d="M221.975 168.116H219.152V176.598H221.975V168.116Z" fill="#F5F5F5"/>
<path d="M226.045 168.116H223.222V176.598H226.045V168.116Z" fill="#F5F5F5"/>
<path d="M230.123 168.116H227.3V176.598H230.123V168.116Z" fill="#F5F5F5"/>
<path d="M234.193 168.116H231.37V176.598H234.193V168.116Z" fill="#F5F5F5"/>
<path d="M238.27 168.116H235.447V176.598H238.27V168.116Z" fill="#F5F5F5"/>
<path d="M242.341 168.116H239.518V176.598H242.341V168.116Z" fill="#F5F5F5"/>
<path d="M246.418 168.116H243.595V176.598H246.418V168.116Z" fill="#F5F5F5"/>
<path d="M246.853 188.004H195.6V202.432H246.853V188.004Z" fill="#E0E0E0"/>
<path d="M199.905 189.821H197.033V200.863H199.905V189.821Z" fill="#F5F5F5"/>
<path d="M202.372 193.058C202.876 193.058 203.284 192.65 203.284 192.146C203.284 191.642 202.876 191.233 202.372 191.233C201.868 191.233 201.459 191.642 201.459 192.146C201.459 192.65 201.868 193.058 202.372 193.058Z" fill="#FAFAFA"/>
<path d="M202.372 196.957C202.876 196.957 203.284 196.549 203.284 196.045C203.284 195.541 202.876 195.132 202.372 195.132C201.868 195.132 201.459 195.541 201.459 196.045C201.459 196.549 201.868 196.957 202.372 196.957Z" fill="#FAFAFA"/>
<path d="M209.75 191.233H206.927V199.716H209.75V191.233Z" fill="#F5F5F5"/>
<path d="M213.827 191.233H211.004V199.716H213.827V191.233Z" fill="#F5F5F5"/>
<path d="M217.898 191.233H215.075V199.716H217.898V191.233Z" fill="#F5F5F5"/>
<path d="M221.975 191.233H219.152V199.716H221.975V191.233Z" fill="#F5F5F5"/>
<path d="M226.045 191.233H223.222V199.716H226.045V191.233Z" fill="#F5F5F5"/>
<path d="M230.123 191.233H227.3V199.716H230.123V191.233Z" fill="#F5F5F5"/>
<path d="M234.193 191.233H231.37V199.716H234.193V191.233Z" fill="#F5F5F5"/>
<path d="M238.27 191.233H235.447V199.716H238.27V191.233Z" fill="#F5F5F5"/>
<path d="M242.341 191.233H239.518V199.716H242.341V191.233Z" fill="#F5F5F5"/>
<path d="M246.418 191.233H243.595V199.716H246.418V191.233Z" fill="#F5F5F5"/>
<path d="M246.853 211.121H195.6V225.549H246.853V211.121Z" fill="#E0E0E0"/>
<path d="M199.905 212.932H197.033V223.973H199.905V212.932Z" fill="#F5F5F5"/>
<path d="M202.372 216.168C202.876 216.168 203.284 215.759 203.284 215.255C203.284 214.751 202.876 214.343 202.372 214.343C201.868 214.343 201.459 214.751 201.459 215.255C201.459 215.759 201.868 216.168 202.372 216.168Z" fill="#FAFAFA"/>
<path d="M203.284 219.155C203.284 219.661 202.878 220.067 202.372 220.067C201.866 220.067 201.459 219.661 201.459 219.155C201.459 218.649 201.866 218.242 202.372 218.242C202.871 218.242 203.284 218.656 203.284 219.155Z" fill="#FAFAFA"/>
<path d="M209.75 214.343H206.927V222.826H209.75V214.343Z" fill="#F5F5F5"/>
<path d="M213.827 214.343H211.004V222.826H213.827V214.343Z" fill="#F5F5F5"/>
<path d="M217.898 214.343H215.075V222.826H217.898V214.343Z" fill="#F5F5F5"/>
<path d="M221.975 214.343H219.152V222.826H221.975V214.343Z" fill="#F5F5F5"/>
<path d="M226.045 214.343H223.222V222.826H226.045V214.343Z" fill="#F5F5F5"/>
<path d="M230.123 214.343H227.3V222.826H230.123V214.343Z" fill="#F5F5F5"/>
<path d="M234.193 214.343H231.37V222.826H234.193V214.343Z" fill="#F5F5F5"/>
<path d="M238.27 214.343H235.447V222.826H238.27V214.343Z" fill="#F5F5F5"/>
<path d="M242.341 214.343H239.518V222.826H242.341V214.343Z" fill="#F5F5F5"/>
<path d="M246.418 214.343H243.595V222.826H246.418V214.343Z" fill="#F5F5F5"/>
<path d="M246.853 234.231H195.6V248.659H246.853V234.231Z" fill="#E0E0E0"/>
<path d="M199.905 236.049H197.033V247.091H199.905V236.049Z" fill="#F5F5F5"/>
<path d="M202.372 239.278C202.876 239.278 203.284 238.869 203.284 238.366C203.284 237.862 202.876 237.453 202.372 237.453C201.868 237.453 201.459 237.862 201.459 238.366C201.459 238.869 201.868 239.278 202.372 239.278Z" fill="#FAFAFA"/>
<path d="M203.284 242.272C203.284 242.778 202.878 243.185 202.372 243.185C201.866 243.185 201.459 242.778 201.459 242.272C201.459 241.766 201.866 241.36 202.372 241.36C202.871 241.36 203.284 241.766 203.284 242.272Z" fill="#FAFAFA"/>
<path d="M209.75 237.453H206.927V245.936H209.75V237.453Z" fill="#F5F5F5"/>
<path d="M213.827 237.453H211.004V245.936H213.827V237.453Z" fill="#F5F5F5"/>
<path d="M217.898 237.453H215.075V245.936H217.898V237.453Z" fill="#F5F5F5"/>
<path d="M221.975 237.453H219.152V245.936H221.975V237.453Z" fill="#F5F5F5"/>
<path d="M226.045 237.453H223.222V245.936H226.045V237.453Z" fill="#F5F5F5"/>
<path d="M230.123 237.453H227.3V245.936H230.123V237.453Z" fill="#F5F5F5"/>
<path d="M234.193 237.453H231.37V245.936H234.193V237.453Z" fill="#F5F5F5"/>
<path d="M238.27 237.453H235.447V245.936H238.27V237.453Z" fill="#F5F5F5"/>
<path d="M242.341 237.453H239.518V245.936H242.341V237.453Z" fill="#F5F5F5"/>
<path d="M246.418 237.453H243.595V245.936H246.418V237.453Z" fill="#F5F5F5"/>
<path d="M246.853 257.342H195.6V271.77H246.853V257.342Z" fill="#E0E0E0"/>
<path d="M199.905 259.159H197.033V270.201H199.905V259.159Z" fill="#F5F5F5"/>
<path d="M202.372 262.395C202.876 262.395 203.284 261.987 203.284 261.483C203.284 260.979 202.876 260.57 202.372 260.57C201.868 260.57 201.459 260.979 201.459 261.483C201.459 261.987 201.868 262.395 202.372 262.395Z" fill="#FAFAFA"/>
<path d="M203.284 265.382C203.284 265.888 202.878 266.295 202.372 266.295C201.866 266.295 201.459 265.888 201.459 265.382C201.459 264.876 201.866 264.47 202.372 264.47C202.871 264.47 203.284 264.876 203.284 265.382Z" fill="#FAFAFA"/>
<path d="M209.75 260.57H206.927V269.053H209.75V260.57Z" fill="#F5F5F5"/>
<path d="M213.827 260.57H211.004V269.053H213.827V260.57Z" fill="#F5F5F5"/>
<path d="M217.898 260.57H215.075V269.053H217.898V260.57Z" fill="#F5F5F5"/>
<path d="M221.975 260.57H219.152V269.053H221.975V260.57Z" fill="#F5F5F5"/>
<path d="M226.045 260.57H223.222V269.053H226.045V260.57Z" fill="#F5F5F5"/>
<path d="M230.123 260.57H227.3V269.053H230.123V260.57Z" fill="#F5F5F5"/>
<path d="M234.193 260.57H231.37V269.053H234.193V260.57Z" fill="#F5F5F5"/>
<path d="M238.27 260.57H235.447V269.053H238.27V260.57Z" fill="#F5F5F5"/>
<path d="M242.341 260.57H239.518V269.053H242.341V260.57Z" fill="#F5F5F5"/>
<path d="M246.418 260.57H243.595V269.053H246.418V260.57Z" fill="#F5F5F5"/>
<path d="M246.853 280.459H195.6V294.887H246.853V280.459Z" fill="#E0E0E0"/>
<path d="M199.905 282.27H197.033V293.312H199.905V282.27Z" fill="#F5F5F5"/>
<path d="M202.372 285.506C202.876 285.506 203.284 285.098 203.284 284.594C203.284 284.09 202.876 283.681 202.372 283.681C201.868 283.681 201.459 284.09 201.459 284.594C201.459 285.098 201.868 285.506 202.372 285.506Z" fill="#FAFAFA"/>
<path d="M203.284 288.5C203.284 289.006 202.878 289.412 202.372 289.412C201.866 289.412 201.459 289.006 201.459 288.5C201.459 287.994 201.866 287.587 202.372 287.587C202.871 287.587 203.284 287.994 203.284 288.5Z" fill="#FAFAFA"/>
<path d="M209.75 283.681H206.927V292.164H209.75V283.681Z" fill="#F5F5F5"/>
<path d="M213.827 283.681H211.004V292.164H213.827V283.681Z" fill="#F5F5F5"/>
<path d="M217.898 283.681H215.075V292.164H217.898V283.681Z" fill="#F5F5F5"/>
<path d="M221.975 283.681H219.152V292.164H221.975V283.681Z" fill="#F5F5F5"/>
<path d="M226.045 283.681H223.222V292.164H226.045V283.681Z" fill="#F5F5F5"/>
<path d="M230.123 283.681H227.3V292.164H230.123V283.681Z" fill="#F5F5F5"/>
<path d="M234.193 283.681H231.37V292.164H234.193V283.681Z" fill="#F5F5F5"/>
<path d="M238.27 283.681H235.447V292.164H238.27V283.681Z" fill="#F5F5F5"/>
<path d="M242.341 283.681H239.518V292.164H242.341V283.681Z" fill="#F5F5F5"/>
<path d="M246.418 283.681H243.595V292.164H246.418V283.681Z" fill="#F5F5F5"/>
<path d="M246.853 303.569H195.6V317.997H246.853V303.569Z" fill="#E0E0E0"/>
<path d="M199.905 305.387H197.033V316.429H199.905V305.387Z" fill="#F5F5F5"/>
<path d="M202.372 308.616C202.876 308.616 203.284 308.207 203.284 307.703C203.284 307.2 202.876 306.791 202.372 306.791C201.868 306.791 201.459 307.2 201.459 307.703C201.459 308.207 201.868 308.616 202.372 308.616Z" fill="#FAFAFA"/>
<path d="M203.284 311.61C203.284 312.116 202.878 312.522 202.372 312.522C201.866 312.522 201.459 312.116 201.459 311.61C201.459 311.104 201.866 310.697 202.372 310.697C202.871 310.697 203.284 311.104 203.284 311.61Z" fill="#FAFAFA"/>
<path d="M209.75 306.798H206.927V315.281H209.75V306.798Z" fill="#F5F5F5"/>
<path d="M213.827 306.798H211.004V315.281H213.827V306.798Z" fill="#F5F5F5"/>
<path d="M217.898 306.798H215.075V315.281H217.898V306.798Z" fill="#F5F5F5"/>
<path d="M221.975 306.798H219.152V315.281H221.975V306.798Z" fill="#F5F5F5"/>
<path d="M226.045 306.798H223.222V315.281H226.045V306.798Z" fill="#F5F5F5"/>
<path d="M230.123 306.798H227.3V315.281H230.123V306.798Z" fill="#F5F5F5"/>
<path d="M234.193 306.798H231.37V315.281H234.193V306.798Z" fill="#F5F5F5"/>
<path d="M238.27 306.798H235.447V315.281H238.27V306.798Z" fill="#F5F5F5"/>
<path d="M242.341 306.798H239.518V315.281H242.341V306.798Z" fill="#F5F5F5"/>
<path d="M246.418 306.798H243.595V315.281H246.418V306.798Z" fill="#F5F5F5"/>
<path d="M227.3 164.893C227.285 164.893 227.264 164.744 227.243 164.451C227.221 164.159 227.2 163.724 227.186 163.168C227.171 162.612 227.157 161.928 227.122 161.144C227.072 160.36 227.022 159.454 226.765 158.513C226.494 157.572 226.067 156.567 225.396 155.634C224.734 154.7 223.793 153.866 222.595 153.381C221.405 152.889 220.036 152.704 218.617 152.575C217.192 152.454 215.716 152.326 214.205 152.191C208.153 151.663 202.671 151.328 198.694 151.25C196.705 151.207 195.094 151.214 193.982 151.221C193.454 151.228 193.034 151.228 192.699 151.228C192.406 151.228 192.25 151.221 192.25 151.207C192.25 151.193 192.399 151.178 192.691 151.15C193.027 151.128 193.447 151.1 193.975 151.071C195.087 151.022 196.698 150.972 198.694 150.986C202.678 150.993 208.181 151.292 214.233 151.82C215.745 151.955 217.22 152.084 218.653 152.212C220.079 152.347 221.483 152.54 222.73 153.067C223.985 153.581 224.976 154.479 225.653 155.455C226.337 156.432 226.758 157.473 227.022 158.442C227.271 159.433 227.3 160.338 227.328 161.13C227.35 161.921 227.335 162.605 227.328 163.161C227.321 163.689 227.314 164.109 227.314 164.444C227.314 164.737 227.314 164.893 227.3 164.893Z" fill="#E0E0E0"/>
<path d="M211.753 164.893C211.738 164.893 211.731 164.751 211.717 164.473C211.71 164.159 211.71 163.76 211.703 163.268C211.696 162.748 211.696 162.106 211.639 161.372C211.567 160.645 211.453 159.79 211.004 158.998C210.562 158.214 209.686 157.623 208.695 157.223C207.697 156.831 206.513 156.674 205.33 156.881C204.738 156.981 204.14 157.173 203.591 157.473C203.049 157.772 202.543 158.193 202.243 158.749C201.937 159.298 201.923 159.975 202.251 160.538C202.564 161.094 203.135 161.536 203.776 161.686C204.418 161.843 205.088 161.622 205.558 161.172C206.029 160.73 206.314 160.103 206.357 159.476C206.421 158.841 206.185 158.25 205.822 157.737C205.466 157.23 204.995 156.817 204.475 156.546C203.961 156.254 203.37 156.211 202.785 156.111C202.208 156.026 201.645 155.947 201.103 155.89C200.012 155.769 198.993 155.698 198.059 155.655C196.191 155.584 194.68 155.605 193.632 155.605C193.141 155.605 192.741 155.598 192.428 155.598C192.143 155.584 192 155.577 192 155.562C192 155.548 192.143 155.534 192.421 155.513C192.734 155.498 193.133 155.477 193.625 155.448C194.673 155.406 196.184 155.341 198.066 155.377C199.007 155.398 200.034 155.455 201.131 155.57C201.68 155.627 202.251 155.698 202.828 155.776C203.12 155.819 203.413 155.862 203.719 155.912C204.033 155.969 204.339 156.083 204.624 156.225C205.202 156.518 205.715 156.967 206.107 157.516C206.499 158.05 206.784 158.763 206.713 159.483C206.663 160.196 206.342 160.902 205.801 161.422C205.273 161.942 204.446 162.22 203.683 162.028C202.928 161.85 202.286 161.351 201.923 160.702C201.538 160.046 201.552 159.191 201.923 158.563C202.272 157.922 202.835 157.473 203.42 157.152C204.011 156.831 204.646 156.639 205.273 156.532C206.528 156.325 207.768 156.503 208.809 156.924C209.835 157.352 210.755 157.986 211.232 158.856C211.696 159.718 211.788 160.602 211.845 161.344C211.881 162.092 211.867 162.734 211.845 163.261C211.824 163.753 211.81 164.152 211.796 164.466C211.774 164.751 211.76 164.893 211.753 164.893Z" fill="#E0E0E0"/>
<path d="M231.484 164.893C231.47 164.893 231.434 164.729 231.377 164.416C231.32 164.102 231.235 163.639 231.106 163.047C230.843 161.864 230.436 160.153 229.588 158.164C228.754 156.19 227.414 153.901 225.133 152.183C224.021 151.314 222.581 150.836 221.055 150.629C219.53 150.409 217.905 150.416 216.251 150.373C209.629 150.245 203.626 150.273 199.278 150.102C197.104 150.024 195.35 149.924 194.139 149.831C193.561 149.781 193.098 149.738 192.741 149.71C192.421 149.681 192.257 149.653 192.257 149.639C192.257 149.632 192.428 149.632 192.741 149.639C193.098 149.653 193.561 149.667 194.139 149.689C195.35 149.731 197.104 149.795 199.278 149.838C203.619 149.945 209.614 149.881 216.251 150.002C217.905 150.052 219.53 150.038 221.098 150.273C222.652 150.487 224.178 150.993 225.332 151.913C226.48 152.811 227.442 153.823 228.155 154.899C228.882 155.969 229.41 157.052 229.823 158.057C230.65 160.082 231.021 161.821 231.235 163.019C231.342 163.617 231.406 164.088 231.441 164.402C231.484 164.722 231.491 164.893 231.484 164.893Z" fill="#E0E0E0"/>
<path d="M246.147 137.571H196.306V144.806H246.147V137.571Z" fill="#E0E0E0"/>
<path d="M234.407 141.192H207.269V144.813H234.407V141.192Z" fill="#F5F5F5"/>
<path d="M321.458 106H252.591V316.964H321.458V106Z" fill="#D0D0D0"/>
<path d="M314.822 139.767H256.405V156.212H314.822V139.767Z" fill="#263238"/>
<path d="M261.309 141.834H258.037V154.423H261.309V141.834Z" fill="#455A64"/>
<path d="M265.159 144.479C265.159 145.057 264.695 145.52 264.118 145.52C263.54 145.52 263.077 145.057 263.077 144.479C263.077 143.902 263.54 143.438 264.118 143.438C264.695 143.438 265.159 143.902 265.159 144.479Z" fill="white"/>
<path d="M265.159 148.927C265.159 149.504 264.695 149.968 264.118 149.968C263.54 149.968 263.077 149.504 263.077 148.927C263.077 148.35 263.54 147.886 264.118 147.886C264.695 147.886 265.159 148.35 265.159 148.927Z" fill="white"/>
<path d="M272.529 143.438H269.314V153.105H272.529V143.438Z" fill="#455A64"/>
<path d="M277.177 143.438H273.962V153.105H277.177V143.438Z" fill="#455A64"/>
<path d="M281.818 143.438H278.603V153.105H281.818V143.438Z" fill="#455A64"/>
<path d="M286.458 143.438H283.243V153.105H286.458V143.438Z" fill="#455A64"/>
<path d="M291.106 143.438H287.891V153.105H291.106V143.438Z" fill="#455A64"/>
<path d="M295.746 143.438H292.531V153.105H295.746V143.438Z" fill="#455A64"/>
<path d="M300.394 143.438H297.179V153.105H300.394V143.438Z" fill="#455A64"/>
<path d="M305.035 143.438H301.82V153.105H305.035V143.438Z" fill="#455A64"/>
<path d="M309.675 143.438H306.46V153.105H309.675V143.438Z" fill="#455A64"/>
<path d="M314.323 143.438H311.108V153.105H314.323V143.438Z" fill="#455A64"/>
<path d="M314.822 163.391H256.405V179.836H314.822V163.391Z" fill="#263238"/>
<path d="M261.309 165.458H258.037V178.046H261.309V165.458Z" fill="#455A64"/>
<path d="M265.159 168.109C265.159 168.687 264.695 169.15 264.118 169.15C263.54 169.15 263.077 168.687 263.077 168.109C263.077 167.532 263.54 167.068 264.118 167.068C264.695 167.068 265.159 167.532 265.159 168.109Z" fill="white"/>
<path d="M265.159 172.557C265.159 173.135 264.695 173.598 264.118 173.598C263.54 173.598 263.077 173.135 263.077 172.557C263.077 171.98 263.54 171.517 264.118 171.517C264.695 171.517 265.159 171.98 265.159 172.557Z" fill="white"/>
<path d="M272.529 167.068H269.314V176.734H272.529V167.068Z" fill="#455A64"/>
<path d="M277.177 167.068H273.962V176.734H277.177V167.068Z" fill="#455A64"/>
<path d="M281.818 167.068H278.603V176.734H281.818V167.068Z" fill="#455A64"/>
<path d="M286.458 167.068H283.243V176.734H286.458V167.068Z" fill="#455A64"/>
<path d="M291.106 167.068H287.891V176.734H291.106V167.068Z" fill="#455A64"/>
<path d="M295.746 167.068H292.531V176.734H295.746V167.068Z" fill="#455A64"/>
<path d="M300.394 167.068H297.179V176.734H300.394V167.068Z" fill="#455A64"/>
<path d="M305.035 167.068H301.82V176.734H305.035V167.068Z" fill="#455A64"/>
<path d="M309.675 167.068H306.46V176.734H309.675V167.068Z" fill="#455A64"/>
<path d="M314.323 167.068H311.108V176.734H314.323V167.068Z" fill="#455A64"/>
<path d="M314.822 187.207H256.405V203.652H314.822V187.207Z" fill="#263238"/>
<path d="M261.309 189.273H258.037V201.862H261.309V189.273Z" fill="#455A64"/>
<path d="M265.159 191.926C265.159 192.503 264.695 192.966 264.118 192.966C263.54 192.966 263.077 192.503 263.077 191.926C263.077 191.348 263.54 190.885 264.118 190.885C264.695 190.885 265.159 191.348 265.159 191.926Z" fill="white"/>
<path d="M265.159 196.373C265.159 196.951 264.695 197.414 264.118 197.414C263.54 197.414 263.077 196.951 263.077 196.373C263.077 195.796 263.54 195.333 264.118 195.333C264.695 195.333 265.159 195.796 265.159 196.373Z" fill="white"/>
<path d="M272.529 190.885H269.314V200.551H272.529V190.885Z" fill="#455A64"/>
<path d="M277.177 190.885H273.962V200.551H277.177V190.885Z" fill="#455A64"/>
<path d="M281.818 190.885H278.603V200.551H281.818V190.885Z" fill="#455A64"/>
<path d="M286.458 190.885H283.243V200.551H286.458V190.885Z" fill="#455A64"/>
<path d="M291.106 190.885H287.891V200.551H291.106V190.885Z" fill="#455A64"/>
<path d="M295.746 190.885H292.531V200.551H295.746V190.885Z" fill="#455A64"/>
<path d="M300.394 190.885H297.179V200.551H300.394V190.885Z" fill="#455A64"/>
<path d="M305.035 190.885H301.82V200.551H305.035V190.885Z" fill="#455A64"/>
<path d="M309.675 190.885H306.46V200.551H309.675V190.885Z" fill="#455A64"/>
<path d="M314.323 190.885H311.108V200.551H314.323V190.885Z" fill="#455A64"/>
<path d="M314.822 212.213H256.405V228.658H314.822V212.213Z" fill="#263238"/>
<path d="M261.309 214.28H258.037V226.868H261.309V214.28Z" fill="#455A64"/>
<path d="M265.159 216.932C265.159 217.509 264.695 217.973 264.118 217.973C263.54 217.973 263.077 217.509 263.077 216.932C263.077 216.354 263.54 215.891 264.118 215.891C264.695 215.891 265.159 216.354 265.159 216.932Z" fill="white"/>
<path d="M265.159 221.38C265.159 221.957 264.695 222.42 264.118 222.42C263.54 222.42 263.077 221.957 263.077 221.38C263.077 220.802 263.54 220.339 264.118 220.339C264.695 220.339 265.159 220.802 265.159 221.38Z" fill="white"/>
<path d="M272.529 215.891H269.314V225.557H272.529V215.891Z" fill="#455A64"/>
<path d="M277.177 215.891H273.962V225.557H277.177V215.891Z" fill="#455A64"/>
<path d="M281.818 215.891H278.603V225.557H281.818V215.891Z" fill="#455A64"/>
<path d="M286.458 215.891H283.243V225.557H286.458V215.891Z" fill="#455A64"/>
<path d="M291.106 215.891H287.891V225.557H291.106V215.891Z" fill="#455A64"/>
<path d="M295.746 215.891H292.531V225.557H295.746V215.891Z" fill="#455A64"/>
<path d="M300.394 215.891H297.179V225.557H300.394V215.891Z" fill="#455A64"/>
<path d="M305.035 215.891H301.82V225.557H305.035V215.891Z" fill="#455A64"/>
<path d="M309.675 215.891H306.46V225.557H309.675V215.891Z" fill="#455A64"/>
<path d="M314.323 215.891H311.108V225.557H314.323V215.891Z" fill="#455A64"/>
<path d="M314.822 238.916H256.405V255.361H314.822V238.916Z" fill="#263238"/>
<path d="M261.309 240.983H258.037V253.572H261.309V240.983Z" fill="#455A64"/>
<path d="M265.159 243.635C265.159 244.212 264.695 244.676 264.118 244.676C263.54 244.676 263.077 244.212 263.077 243.635C263.077 243.058 263.54 242.594 264.118 242.594C264.695 242.594 265.159 243.058 265.159 243.635Z" fill="white"/>
<path d="M265.159 248.083C265.159 248.66 264.695 249.123 264.118 249.123C263.54 249.123 263.077 248.66 263.077 248.083C263.077 247.505 263.54 247.042 264.118 247.042C264.695 247.042 265.159 247.505 265.159 248.083Z" fill="white"/>
<path d="M272.529 242.594H269.314V252.26H272.529V242.594Z" fill="#455A64"/>
<path d="M277.177 242.594H273.962V252.26H277.177V242.594Z" fill="#455A64"/>
<path d="M281.818 242.594H278.603V252.26H281.818V242.594Z" fill="#455A64"/>
<path d="M286.458 242.594H283.243V252.26H286.458V242.594Z" fill="#455A64"/>
<path d="M291.106 242.594H287.891V252.26H291.106V242.594Z" fill="#455A64"/>
<path d="M295.746 242.594H292.531V252.26H295.746V242.594Z" fill="#455A64"/>
<path d="M300.394 242.594H297.179V252.26H300.394V242.594Z" fill="#455A64"/>
<path d="M305.035 242.594H301.82V252.26H305.035V242.594Z" fill="#455A64"/>
<path d="M309.675 242.594H306.46V252.26H309.675V242.594Z" fill="#455A64"/>
<path d="M314.323 242.594H311.108V252.26H314.323V242.594Z" fill="#455A64"/>
<path d="M314.822 290.632H256.405V307.077H314.822V290.632Z" fill="#263238"/>
<path d="M261.309 292.699H258.037V305.288H261.309V292.699Z" fill="#455A64"/>
<path d="M265.159 295.344C265.159 295.921 264.695 296.385 264.118 296.385C263.54 296.385 263.077 295.921 263.077 295.344C263.077 294.767 263.54 294.303 264.118 294.303C264.695 294.303 265.159 294.767 265.159 295.344Z" fill="white"/>
<path d="M265.159 299.792C265.159 300.369 264.695 300.832 264.118 300.832C263.54 300.832 263.077 300.369 263.077 299.792C263.077 299.214 263.54 298.751 264.118 298.751C264.695 298.751 265.159 299.214 265.159 299.792Z" fill="white"/>
<path d="M272.529 294.303H269.314V303.969H272.529V294.303Z" fill="#455A64"/>
<path d="M277.177 294.303H273.962V303.969H277.177V294.303Z" fill="#455A64"/>
<path d="M281.818 294.303H278.603V303.969H281.818V294.303Z" fill="#455A64"/>
<path d="M286.458 294.303H283.243V303.969H286.458V294.303Z" fill="#455A64"/>
<path d="M291.106 294.303H287.891V303.969H291.106V294.303Z" fill="#455A64"/>
<path d="M295.746 294.303H292.531V303.969H295.746V294.303Z" fill="#455A64"/>
<path d="M300.394 294.303H297.179V303.969H300.394V294.303Z" fill="#455A64"/>
<path d="M305.035 294.303H301.82V303.969H305.035V294.303Z" fill="#455A64"/>
<path d="M309.675 294.303H306.46V303.969H309.675V294.303Z" fill="#455A64"/>
<path d="M314.323 294.303H311.108V303.969H314.323V294.303Z" fill="#455A64"/>
<path d="M314.822 264.799H256.405V281.244H314.822V264.799Z" fill="#263238"/>
<path d="M261.309 266.866H258.037V279.455H261.309V266.866Z" fill="#455A64"/>
<path d="M265.159 269.511C265.159 270.088 264.695 270.552 264.118 270.552C263.54 270.552 263.077 270.088 263.077 269.511C263.077 268.934 263.54 268.47 264.118 268.47C264.695 268.47 265.159 268.941 265.159 269.511Z" fill="white"/>
<path d="M265.159 273.959C265.159 274.537 264.695 275 264.118 275C263.54 275 263.077 274.537 263.077 273.959C263.077 273.382 263.54 272.918 264.118 272.918C264.695 272.918 265.159 273.382 265.159 273.959Z" fill="white"/>
<path d="M272.529 268.47H269.314V278.136H272.529V268.47Z" fill="#455A64"/>
<path d="M277.177 268.47H273.962V278.136H277.177V268.47Z" fill="#455A64"/>
<path d="M281.818 268.47H278.603V278.136H281.818V268.47Z" fill="#455A64"/>
<path d="M286.458 268.47H283.243V278.136H286.458V268.47Z" fill="#455A64"/>
<path d="M291.106 268.47H287.891V278.136H291.106V268.47Z" fill="#455A64"/>
<path d="M295.746 268.47H292.531V278.136H295.746V268.47Z" fill="#455A64"/>
<path d="M300.394 268.47H297.179V278.136H300.394V268.47Z" fill="#455A64"/>
<path d="M305.035 268.47H301.82V278.136H305.035V268.47Z" fill="#455A64"/>
<path d="M309.675 268.47H306.46V278.136H309.675V268.47Z" fill="#455A64"/>
<path d="M314.323 268.47H311.108V278.136H314.323V268.47Z" fill="#455A64"/>
<path d="M314.024 113.613H257.21V121.861H314.024V113.613Z" fill="#263238"/>
<path d="M300.636 117.74H269.706V121.86H300.636V117.74Z" fill="#455A64"/>
<path d="M406.564 154.622H297.5V320H406.564V154.622Z" fill="#E0E0E0"/>
<path d="M414.951 161.317H291.084V193.21H414.951V161.317Z" fill="#EBEBEB"/>
<path d="M371.496 172.303C372.52 172.303 373.351 171.474 373.351 170.451C373.351 169.429 372.52 168.6 371.496 168.6C370.472 168.6 369.642 169.429 369.642 170.451C369.642 171.474 370.472 172.303 371.496 172.303Z" fill="#178A00"/>
<path d="M371.496 179.265C372.52 179.265 373.351 178.436 373.351 177.413C373.351 176.391 372.52 175.562 371.496 175.562C370.472 175.562 369.642 176.391 369.642 177.413C369.642 178.436 370.472 179.265 371.496 179.265Z" fill="#FFF94D"/>
<path d="M371.496 186.227C372.52 186.227 373.351 185.398 373.351 184.376C373.351 183.353 372.52 182.524 371.496 182.524C370.472 182.524 369.642 183.353 369.642 184.376C369.642 185.398 370.472 186.227 371.496 186.227Z" fill="#FF6600"/>
<path d="M382.231 169.58H380.673V185.239H382.231V169.58Z" fill="#4D4D4D"/>
<path d="M386.906 169.58H385.348V185.239H386.906V169.58Z" fill="#4D4D4D"/>
<path d="M391.58 169.58H390.022V185.239H391.58V169.58Z" fill="#4D4D4D"/>
<path d="M396.254 169.58H394.696V185.239H396.254V169.58Z" fill="#4D4D4D"/>
<path d="M400.928 169.58H399.37V185.239H400.928V169.58Z" fill="#4D4D4D"/>
<path d="M405.602 169.58H404.044V185.239H405.602V169.58Z" fill="#4D4D4D"/>
<path d="M410.277 169.58H408.719V185.239H410.277V169.58Z" fill="#4D4D4D"/>
<path d="M414.951 233.628H291.084V265.522H414.951V233.628Z" fill="#EBEBEB"/>
<path d="M357.822 241.663H305.815V256.283H357.822V241.663Z" fill="#263238"/>
<path d="M310.174 243.5H307.261V254.692H310.174V243.5Z" fill="url(#paint0_linear)"/>
<path d="M313.608 245.851C313.608 246.365 313.195 246.777 312.681 246.777C312.167 246.777 311.755 246.365 311.755 245.851C311.755 245.338 312.167 244.926 312.681 244.926C313.195 244.926 313.608 245.345 313.608 245.851Z" fill="white"/>
<path d="M313.608 249.806C313.608 250.319 313.195 250.731 312.681 250.731C312.167 250.731 311.755 250.319 311.755 249.806C311.755 249.292 312.167 248.88 312.681 248.88C313.195 248.88 313.608 249.299 313.608 249.806Z" fill="white"/>
<path d="M320.17 244.926H317.308V253.519H320.17V244.926Z" fill="#455A64"/>
<path d="M324.301 244.926H321.439V253.519H324.301V244.926Z" fill="#455A64"/>
<path d="M328.439 244.926H325.577V253.519H328.439V244.926Z" fill="#455A64"/>
<path d="M332.57 244.926H329.708V253.519H332.57V244.926Z" fill="#455A64"/>
<path d="M336.708 244.926H333.846V253.519H336.708V244.926Z" fill="#455A64"/>
<path d="M340.839 244.926H337.977V253.519H340.839V244.926Z" fill="#455A64"/>
<path d="M344.971 244.926H342.109V253.519H344.971V244.926Z" fill="#455A64"/>
<path d="M349.108 244.926H346.246V253.519H349.108V244.926Z" fill="#455A64"/>
<path d="M353.24 244.926H350.378V253.519H353.24V244.926Z" fill="#455A64"/>
<path d="M357.378 244.926H354.516V253.519H357.378V244.926Z" fill="#455A64"/>
<path d="M371.496 244.614C372.52 244.614 373.351 243.785 373.351 242.763C373.351 241.74 372.52 240.911 371.496 240.911C370.472 240.911 369.642 241.74 369.642 242.763C369.642 243.785 370.472 244.614 371.496 244.614Z" fill="#178A00"/>
<path d="M371.496 251.576C372.52 251.576 373.351 250.747 373.351 249.724C373.351 248.702 372.52 247.873 371.496 247.873C370.472 247.873 369.642 248.702 369.642 249.724C369.642 250.747 370.472 251.576 371.496 251.576Z" fill="#FFF94D"/>
<path d="M371.496 258.538C372.52 258.538 373.351 257.709 373.351 256.687C373.351 255.664 372.52 254.835 371.496 254.835C370.472 254.835 369.642 255.664 369.642 256.687C369.642 257.709 370.472 258.538 371.496 258.538Z" fill="#FF6600"/>
<path d="M382.231 241.891H380.673V257.55H382.231V241.891Z" fill="#4D4D4D"/>
<path d="M386.906 241.891H385.348V257.55H386.906V241.891Z" fill="#4D4D4D"/>
<path d="M391.58 241.891H390.022V257.55H391.58V241.891Z" fill="#4D4D4D"/>
<path d="M396.254 241.891H394.696V257.55H396.254V241.891Z" fill="#4D4D4D"/>
<path d="M400.928 241.891H399.37V257.55H400.928V241.891Z" fill="#4D4D4D"/>
<path d="M405.602 241.891H404.044V257.55H405.602V241.891Z" fill="#4D4D4D"/>
<path d="M410.277 241.891H408.719V257.55H410.277V241.891Z" fill="#4D4D4D"/>
<path d="M414.951 269.784H291.084V301.677H414.951V269.784Z" fill="#EBEBEB"/>
<path d="M357.822 279.158H305.815V293.777H357.822V279.158Z" fill="#263238"/>
<path d="M310.174 280.995H307.261V292.186H310.174V280.995Z" fill="url(#paint1_linear)"/>
<path d="M313.608 283.347C313.608 283.86 313.195 284.272 312.681 284.272C312.167 284.272 311.755 283.86 311.755 283.347C311.755 282.833 312.167 282.421 312.681 282.421C313.195 282.421 313.608 282.84 313.608 283.347Z" fill="white"/>
<path d="M313.608 287.301C313.608 287.814 313.195 288.226 312.681 288.226C312.167 288.226 311.755 287.814 311.755 287.301C311.755 286.787 312.167 286.375 312.681 286.375C313.195 286.375 313.608 286.794 313.608 287.301Z" fill="white"/>
<path d="M320.17 282.421H317.308V291.014H320.17V282.421Z" fill="#455A64"/>
<path d="M324.301 282.421H321.439V291.014H324.301V282.421Z" fill="#455A64"/>
<path d="M328.439 282.421H325.577V291.014H328.439V282.421Z" fill="#455A64"/>
<path d="M332.57 282.421H329.708V291.014H332.57V282.421Z" fill="#455A64"/>
<path d="M336.708 282.421H333.846V291.014H336.708V282.421Z" fill="#455A64"/>
<path d="M340.839 282.421H337.977V291.014H340.839V282.421Z" fill="#455A64"/>
<path d="M344.971 282.421H342.109V291.014H344.971V282.421Z" fill="#455A64"/>
<path d="M349.108 282.421H346.246V291.014H349.108V282.421Z" fill="#455A64"/>
<path d="M353.24 282.421H350.378V291.014H353.24V282.421Z" fill="#455A64"/>
<path d="M357.378 282.421H354.516V291.014H357.378V282.421Z" fill="#455A64"/>
<path d="M371.496 280.77C372.52 280.77 373.351 279.941 373.351 278.918C373.351 277.896 372.52 277.067 371.496 277.067C370.472 277.067 369.642 277.896 369.642 278.918C369.642 279.941 370.472 280.77 371.496 280.77Z" fill="#178A00"/>
<path d="M371.496 287.732C372.52 287.732 373.351 286.903 373.351 285.881C373.351 284.858 372.52 284.029 371.496 284.029C370.472 284.029 369.642 284.858 369.642 285.881C369.642 286.903 370.472 287.732 371.496 287.732Z" fill="#FFF94D"/>
<path d="M371.496 294.694C372.52 294.694 373.351 293.866 373.351 292.843C373.351 291.821 372.52 290.992 371.496 290.992C370.472 290.992 369.642 291.821 369.642 292.843C369.642 293.866 370.472 294.694 371.496 294.694Z" fill="#FF6600"/>
<path d="M382.231 278.047H380.673V293.706H382.231V278.047Z" fill="#4D4D4D"/>
<path d="M386.906 278.047H385.348V293.706H386.906V278.047Z" fill="#4D4D4D"/>
<path d="M391.58 278.047H390.022V293.706H391.58V278.047Z" fill="#4D4D4D"/>
<path d="M396.254 278.047H394.696V293.706H396.254V278.047Z" fill="#4D4D4D"/>
<path d="M400.928 278.047H399.37V293.706H400.928V278.047Z" fill="#4D4D4D"/>
<path d="M405.602 278.047H404.044V293.706H405.602V278.047Z" fill="#4D4D4D"/>
<path d="M410.277 278.047H408.719V293.706H410.277V278.047Z" fill="#4D4D4D"/>
<path d="M357.822 170.691H305.815V185.31H357.822V170.691Z" fill="#263238"/>
<path d="M310.174 172.528H307.261V183.72H310.174V172.528Z" fill="url(#paint2_linear)"/>
<path d="M313.608 174.88C313.608 175.393 313.195 175.805 312.681 175.805C312.167 175.805 311.755 175.393 311.755 174.88C311.755 174.366 312.167 173.955 312.681 173.955C313.195 173.955 313.608 174.373 313.608 174.88Z" fill="white"/>
<path d="M313.608 178.833C313.608 179.347 313.195 179.759 312.681 179.759C312.167 179.759 311.755 179.347 311.755 178.833C311.755 178.32 312.167 177.908 312.681 177.908C313.195 177.908 313.608 178.326 313.608 178.833Z" fill="white"/>
<path d="M320.17 173.955H317.307V182.548H320.17V173.955Z" fill="#455A64"/>
<path d="M324.301 173.955H321.439V182.548H324.301V173.955Z" fill="#455A64"/>
<path d="M328.439 173.955H325.577V182.548H328.439V173.955Z" fill="#455A64"/>
<path d="M332.57 173.955H329.708V182.548H332.57V173.955Z" fill="#455A64"/>
<path d="M336.708 173.955H333.846V182.548H336.708V173.955Z" fill="#455A64"/>
<path d="M340.839 173.955H337.977V182.548H340.839V173.955Z" fill="#455A64"/>
<path d="M344.971 173.955H342.109V182.548H344.971V173.955Z" fill="#455A64"/>
<path d="M349.108 173.955H346.246V182.548H349.108V173.955Z" fill="#455A64"/>
<path d="M353.24 173.955H350.378V182.548H353.24V173.955Z" fill="#455A64"/>
<path d="M357.378 173.955H354.516V182.548H357.378V173.955Z" fill="#455A64"/>
<path d="M414.951 197.473H291.084V229.366H414.951V197.473Z" fill="#EBEBEB"/>
<path d="M357.822 206.177H305.815V220.797H357.822V206.177Z" fill="#263238"/>
<path d="M310.174 208.015H307.261V219.206H310.174V208.015Z" fill="url(#paint3_linear)"/>
<path d="M313.608 210.366C313.608 210.879 313.195 211.291 312.681 211.291C312.167 211.291 311.755 210.879 311.755 210.366C311.755 209.852 312.167 209.44 312.681 209.44C313.195 209.44 313.608 209.859 313.608 210.366Z" fill="white"/>
<path d="M313.608 214.32C313.608 214.833 313.195 215.245 312.681 215.245C312.167 215.245 311.755 214.833 311.755 214.32C311.755 213.806 312.167 213.395 312.681 213.395C313.195 213.395 313.608 213.813 313.608 214.32Z" fill="white"/>
<path d="M320.17 209.44H317.308V218.033H320.17V209.44Z" fill="#455A64"/>
<path d="M324.301 209.44H321.439V218.033H324.301V209.44Z" fill="#455A64"/>
<path d="M328.439 209.44H325.577V218.033H328.439V209.44Z" fill="#455A64"/>
<path d="M332.57 209.44H329.708V218.033H332.57V209.44Z" fill="#455A64"/>
<path d="M336.708 209.44H333.846V218.033H336.708V209.44Z" fill="#455A64"/>
<path d="M340.839 209.44H337.977V218.033H340.839V209.44Z" fill="#455A64"/>
<path d="M344.971 209.44H342.109V218.033H344.971V209.44Z" fill="#455A64"/>
<path d="M349.108 209.44H346.246V218.033H349.108V209.44Z" fill="#455A64"/>
<path d="M353.24 209.44H350.378V218.033H353.24V209.44Z" fill="#455A64"/>
<path d="M357.378 209.44H354.516V218.033H357.378V209.44Z" fill="#455A64"/>
<path d="M371.496 208.086C372.52 208.086 373.351 207.257 373.351 206.235C373.351 205.212 372.52 204.383 371.496 204.383C370.472 204.383 369.642 205.212 369.642 206.235C369.642 207.257 370.472 208.086 371.496 208.086Z" fill="#178A00"/>
<path d="M371.496 215.048C372.52 215.048 373.351 214.219 373.351 213.197C373.351 212.174 372.52 211.345 371.496 211.345C370.472 211.345 369.642 212.174 369.642 213.197C369.642 214.219 370.472 215.048 371.496 215.048Z" fill="#FFF94D"/>
<path d="M371.496 222.01C372.52 222.01 373.351 221.181 373.351 220.158C373.351 219.136 372.52 218.307 371.496 218.307C370.472 218.307 369.642 219.136 369.642 220.158C369.642 221.181 370.472 222.01 371.496 222.01Z" fill="#4D4D4D"/>
<path d="M382.231 205.363H380.673V221.022H382.231V205.363Z" fill="#4D4D4D"/>
<path d="M386.906 205.363H385.348V221.022H386.906V205.363Z" fill="#B4B4CC"/>
<path d="M391.58 205.363H390.022V221.022H391.58V205.363Z" fill="#4D4D4D"/>
<path d="M396.254 205.363H394.696V221.022H396.254V205.363Z" fill="#B4B4CC"/>
<path d="M400.928 205.363H399.37V221.022H400.928V205.363Z" fill="#4D4D4D"/>
<path d="M405.602 205.363H404.044V221.022H405.602V205.363Z" fill="#B4B4CC"/>
<path d="M410.277 205.363H408.719V221.022H410.277V205.363Z" fill="#B4B4CC"/>
<path d="M403.473 77.6382C403.473 77.6382 411.982 109.114 402.323 140.9C402.323 140.9 400.158 147.77 389.93 143.121L357.527 121.402L362.35 115.147C362.35 115.147 376.14 120.866 389.545 124.867C389.545 124.867 384.905 107.26 391.036 84.1469C392.543 78.4667 396.324 76.7684 401.563 77.1482C402.223 77.1993 402.87 77.3651 403.473 77.6382Z" fill="#F7931E"/>
<path d="M423.262 156.786L421.865 187.973L421.386 198.55V323.544H406.385L395.134 156.786H423.262Z" fill="#3D3D3D"/>
<path d="M421.865 187.973L421.386 198.55V252.297C417.758 226.861 410.135 173.368 410.285 172.468L421.865 187.973Z" fill="#333231"/>
<path d="M457.015 320.733L459.828 330.102L445.764 331.976V320.733H457.015Z" fill="#1A1A1A"/>
<path d="M402.635 156.786H439.201L459.828 323.544L444.826 324.481L420.449 193.323L402.635 156.786Z" fill="#3D3D3D"/>
<path d="M391.29 327.151C396.041 324.792 401.086 323.078 406.291 322.054L421.396 322.607L422.183 330.505C422.203 330.69 422.184 330.877 422.126 331.055C422.069 331.232 421.975 331.395 421.85 331.534C421.725 331.673 421.573 331.784 421.403 331.86C421.232 331.936 421.048 331.975 420.861 331.975H384.295C384.143 331.977 383.994 331.928 383.872 331.836C383.751 331.743 383.664 331.613 383.625 331.465C383.586 331.318 383.598 331.162 383.658 331.021C383.719 330.881 383.824 330.765 383.958 330.692C386.067 329.502 388.505 328.546 391.29 327.151Z" fill="#1A1A1A"/>
<path d="M445.764 331.976C445.764 331.976 444.732 324.481 452.327 324.012C452.327 324.012 458.421 323.582 462.219 331.001C462.265 331.1 462.287 331.208 462.281 331.317C462.275 331.426 462.243 331.531 462.186 331.624C462.129 331.717 462.05 331.795 461.956 331.849C461.862 331.904 461.756 331.935 461.647 331.938L445.764 331.976Z" fill="#1A1A1A"/>
<path d="M409.667 171.326C409.667 171.326 417.167 185.378 419.98 191.936" stroke="#808080" stroke-width="0.5" stroke-miterlimit="10" stroke-linecap="round"/>
<path d="M449.045 81.3881C448.792 82.3249 440.607 111.461 439.669 118.862C439.407 124.136 439.238 129.607 439.201 135.257C439.144 142.929 439.322 150.246 439.669 157.272C439.669 157.272 437.494 158.022 433.884 158.856C432.009 159.277 429.825 159.727 427.321 160.102C418.395 161.451 405.954 161.891 394.656 157.291C394.656 157.291 389.03 96.3963 394.656 78.5963L410.595 68.291H426.534L438.141 74.7365L449.045 81.3881Z" fill="#F7931E"/>
<path d="M439.669 118.862C439.407 124.137 439.238 129.608 439.2 135.257C439.144 142.93 439.322 150.246 439.669 157.273C439.669 157.273 437.494 158.022 433.884 158.856C432.009 159.278 429.825 159.727 427.321 160.102C425.615 147.97 428.643 127.219 433.566 108.089C434.973 102.626 436.855 97.2971 439.191 92.1622C442.463 88.5834 445.754 84.986 449.026 81.4072C448.783 82.3253 440.588 111.461 439.669 118.862Z" fill="#E57607"/>
<path d="M392.987 87.5811C392.987 87.5811 391.852 111.368 392.79 122.61" stroke="#CE6700" stroke-width="0.5" stroke-miterlimit="10" stroke-linecap="round"/>
<path d="M457.587 326.054C457.587 326.054 450.921 321.22 447.17 326.841" stroke="#808080" stroke-width="0.5" stroke-miterlimit="10" stroke-linecap="round"/>
<path d="M425.606 164.768C425.606 164.768 429.356 173.199 438.732 173.199" stroke="#808080" stroke-width="0.5" stroke-miterlimit="10" stroke-linecap="round"/>
<path d="M446.233 233.157C446.233 235.031 456.546 313.726 456.546 313.726" stroke="#808080" stroke-miterlimit="10" stroke-linecap="round"/>
<path d="M410.182 52.5991V69.7059C410.632 70.2212 413.717 74.3901 418.836 74.3433C423.955 74.2964 427.003 70.2212 427.443 69.7059V52.5991H410.182Z" fill="#FFD3CA"/>
<path d="M409.638 62.7451C410.623 62.0799 413.698 62.4172 413.726 62.4172L413.773 62.0706C413.642 62.0706 410.539 61.7239 409.442 62.4453L409.638 62.7451Z" fill="#E08C8C"/>
<path d="M427.79 64.0381H411.233C410.627 64.0381 410.136 64.5288 410.136 65.1342V76.0578C410.136 76.6632 410.627 77.1539 411.233 77.1539H427.79C428.396 77.1539 428.887 76.6632 428.887 76.0578V65.1342C428.887 64.5288 428.396 64.0381 427.79 64.0381Z" fill="#F7931E"/>
<path d="M410.604 70.1465C413.137 71.9005 416.126 72.8789 419.207 72.9621C422.288 73.0453 425.326 72.2296 427.95 70.6149" stroke="#CE6700" stroke-width="0.5" stroke-miterlimit="10" stroke-linecap="round"/>
<path d="M411.542 65.4619C413.92 66.4992 416.455 67.1325 419.043 67.3356C421.889 67.546 424.75 67.2284 427.481 66.3988" stroke="#CE6700" stroke-width="0.5" stroke-miterlimit="10" stroke-linecap="round"/>
<path d="M423.046 60.6655C423.046 60.6655 417.327 69.7342 410.182 69.0971V64.2349L423.046 60.6655Z" fill="#EA8C8C"/>
<path d="M405.11 43.2405C405.11 43.2405 404.097 64.5256 411.204 65.5561C412.465 65.759 413.75 65.759 415.011 65.5561C418.329 64.949 421.308 63.1454 423.383 60.4878L427.443 55.4101V35.1274L405.11 36.1392V43.2405Z" fill="#FFD3CA"/>
<path d="M429.365 34.0216C432.178 38.9494 429.965 44.4205 429.619 45.2637C429.6 45.353 429.55 45.4327 429.478 45.4885L426.337 47.9524C426.287 47.9917 426.227 48.018 426.164 48.0293C426.101 48.0405 426.037 48.0362 425.976 48.0169C425.915 47.9975 425.86 47.9636 425.815 47.9181C425.77 47.8726 425.737 47.8169 425.718 47.7557L423.121 39.2304C423.039 38.8023 422.865 38.397 422.611 38.0428C422.357 37.6885 422.029 37.3937 421.649 37.1787C420.064 36.4855 418.677 38.5465 414.983 39.6333C413.642 40.0174 414.045 39.6801 409.357 40.3265C405.288 40.8886 404.669 41.1978 404.088 40.6825C402.813 39.4553 404.088 35.4081 406.198 32.9629C408.616 30.1243 412.601 28.8034 413.398 28.541H413.501C417.149 27.3231 425.84 27.7728 429.365 34.0216Z" fill="#333333"/>
<path d="M409.292 55.8219C410.914 55.8219 412.02 55.4846 412.592 54.8851L412.095 54.3885C411.851 54.6321 411.157 55.0443 409.282 55.0818C409.147 55.076 409.017 55.023 408.917 54.9319C408.823 54.8394 408.767 54.7163 408.757 54.5853L410.07 46.6315L409.376 46.519L408.073 54.5946C408.072 54.757 408.103 54.918 408.166 55.0678C408.229 55.2175 408.322 55.353 408.438 55.4659C408.666 55.6911 408.972 55.8188 409.292 55.8219Z" fill="#E08C8C"/>
<path d="M411.242 46.6221C412.123 46.2923 413.038 46.0629 413.97 45.9382C415.106 45.7883 416.257 45.7883 417.392 45.9382L417.486 45.2449C416.288 45.0857 415.074 45.0857 413.876 45.2449C412.893 45.3777 411.928 45.6197 410.998 45.9663L411.242 46.6221Z" fill="#333333"/>
<path d="M407.839 46.2662L408.082 45.6104C407.025 45.2238 405.889 45.0984 404.773 45.245L404.866 45.9383C405.417 45.8634 405.975 45.8634 406.526 45.9383C406.975 45.9968 407.415 46.1068 407.839 46.2662Z" fill="#333333"/>
<path d="M411.063 58.9043C411.45 58.9009 411.836 58.8664 412.217 58.8012C413.579 58.578 414.846 57.9626 415.864 57.0306L415.498 56.6465C414.615 57.4818 413.513 58.0494 412.319 58.2833C411.126 58.5171 409.891 58.4076 408.757 57.9674L408.569 58.4546C409.366 58.7573 410.211 58.9097 411.063 58.9043Z" fill="#E08C8C"/>
<path d="M413.951 50.145C414.222 50.145 414.482 50.0374 414.674 49.8459C414.865 49.6544 414.973 49.3946 414.973 49.1238V48.3088C414.973 48.0379 414.865 47.7782 414.674 47.5867C414.482 47.3952 414.222 47.2876 413.951 47.2876C413.68 47.2876 413.42 47.3952 413.229 47.5867C413.037 47.7782 412.929 48.0379 412.929 48.3088V49.1238C412.929 49.3946 413.037 49.6544 413.229 49.8459C413.42 50.0374 413.68 50.145 413.951 50.145Z" fill="#333333"/>
<path d="M407.135 50.145H407.257C407.677 50.145 408.017 49.8053 408.017 49.3862V48.0371C408.017 47.618 407.677 47.2783 407.257 47.2783H407.135C406.716 47.2783 406.376 47.618 406.376 48.0371V49.3862C406.376 49.8053 406.716 50.145 407.135 50.145Z" fill="#333333"/>
<path d="M424.752 53.8735C425.04 54.3607 425.429 54.7803 425.893 55.1036C426.358 55.427 426.886 55.6465 427.443 55.7472V54.2202L424.752 53.8735Z" fill="#EA8C8C"/>
<path d="M422.371 49.3295C422.371 51.8402 424.358 54.4353 426.43 54.3978C428.118 54.3978 429.3 52.6365 429.478 52.3742C430.162 51.3718 430.265 50.3506 430.49 48.3083C430.643 47.6425 430.643 46.9506 430.49 46.2847C429.946 44.8888 428.024 44.0738 426.43 44.2518C424.096 44.5235 422.371 46.978 422.371 49.3295Z" fill="#FFD3CA"/>
<path d="M426.206 48.0461C426.206 48.73 426.721 48.8611 426.909 49.798C427.096 50.7348 426.665 51.4093 426.909 51.5499C427.153 51.6904 427.715 51.1376 427.959 50.8472C428.3 50.4401 428.541 49.9588 428.662 49.442C428.817 49.1139 428.898 48.7556 428.898 48.3927C428.898 48.0298 428.817 47.6715 428.662 47.3434C428.522 47.1247 428.325 46.9481 428.092 46.8326C427.859 46.7171 427.599 46.667 427.34 46.6876C427.031 46.7645 426.755 46.9376 426.551 47.1818C426.347 47.426 426.226 47.7287 426.206 48.0461Z" fill="#EA8C8C"/>
<path d="M405.156 60.6655C404.453 61.9677 403.441 65.4059 404.453 67.6825C405.785 70.6804 410.519 71.3455 413.22 71.1863C418.761 70.8584 422.024 66.502 422.699 65.5652C424.081 63.5947 424.927 61.2995 425.155 58.9042C425.155 57.602 425.155 56.253 425.155 54.8758C425.108 52.4869 424.986 50.1916 424.808 48.0368L423.402 47.6621C422.77 48.9529 421.941 50.138 420.945 51.1753C419.877 52.2714 418.761 53.049 418.133 54.6791C417.962 55.1322 417.846 55.6039 417.786 56.0843C417.667 56.2651 417.513 56.4197 417.332 56.5389C417.152 56.6581 416.949 56.7393 416.736 56.7776C416.154 56.8338 415.798 56.3841 415.329 56.0843C414.467 55.4754 413.135 55.541 410.416 55.7283C407.294 55.9532 406.778 56.4591 406.553 56.7776C406.287 57.1956 406.165 57.6892 406.207 58.1829C406.068 59.0845 405.707 59.9376 405.156 60.6655ZM412.17 59.6162C411.945 59.4476 411.898 59.1103 411.466 58.9136C411.299 58.8355 411.117 58.7942 410.933 58.7926C410.749 58.7909 410.566 58.829 410.398 58.9042C410.135 59.026 410.154 59.1478 409.873 59.3446C409.798 59.3914 409.113 59.8598 408.644 59.6069C408.497 59.5026 408.38 59.3607 408.305 59.1959C408.231 59.0312 408.203 58.8496 408.222 58.67C408.227 58.5445 408.273 58.4241 408.355 58.3288C408.437 58.2334 408.549 58.1687 408.672 58.1454C409.474 57.9981 410.286 57.9074 411.101 57.8737C412.322 57.8249 413.544 57.9066 414.748 58.1173C414.796 58.1269 414.84 58.15 414.875 58.184C414.91 58.218 414.934 58.2613 414.945 58.3088C414.956 58.3563 414.953 58.4059 414.936 58.4517C414.92 58.4975 414.89 58.5376 414.851 58.567C413.21 59.7661 412.488 59.8411 412.17 59.6162Z" fill="#333333"/>
<path d="M423.749 40.3267C423.749 41.0137 423.749 41.7163 423.749 42.4346C423.749 44.3082 423.59 46.0508 423.402 47.6903C423.843 48.1025 424.424 48.5615 424.677 48.4023C424.93 48.243 424.799 48.1306 424.808 48.0463C424.933 46.9201 425.291 45.8322 425.859 44.8516C426.205 44.2817 426.693 43.8106 427.274 43.4838L423.749 40.3267Z" fill="#333333"/>
<path d="M405.391 53.1143C405.325 53.5639 405.222 54.2759 405.156 55.1659C405.074 56.3012 405.074 57.4408 405.156 58.5761C405.244 61.3915 405.125 64.2096 404.8 67.0077L407.613 65.2558C405.766 55.3908 405.381 53.1986 405.391 53.1143Z" fill="#333333"/>
<path d="M407.585 57.1618C407.207 57.1348 406.843 57.0123 406.526 56.8058C406.178 56.5194 405.903 56.1561 405.72 55.7447C405.538 55.3332 405.454 54.885 405.476 54.4355V59.2603C405.476 59.2603 406.357 60.3845 406.488 60.2908C406.554 60.0753 406.948 58.9511 407.585 57.1618Z" fill="#333333"/>
<path d="M408.132 70.1384C408.132 70.1384 408.36 77.3308 408.973 81.8912C409.495 85.7681 410.711 90.8344 411.619 94.3336C412.14 96.3393 413.93 96.6297 414.796 94.7473C416.367 91.3355 418.511 86.2788 420.892 82.5225C424.013 77.5979 428.029 72.669 429.819 70.5554" stroke="#333333" stroke-width="2"/>
<rect width="14.6148" height="8.2817" rx="2" transform="matrix(0.9986 0.0528959 -0.0528948 0.9986 406.689 97.3816)" fill="#E57607"/>
<rect width="14.6148" height="8.2817" rx="2" transform="matrix(0.9986 0.0528959 -0.0528948 0.9986 405.333 95.3584)" fill="white"/>
<path d="M387.547 96.3088L406.428 99.2696C407.218 99.3953 407.927 99.8301 408.397 100.479C408.866 101.127 409.059 101.936 408.933 102.727L400.453 156.204C400.327 156.992 399.893 157.698 399.247 158.167C398.602 158.636 397.797 158.83 397.009 158.706L378.329 155.765C380.144 154.417 381.521 152.564 382.288 150.437C383.055 148.31 383.177 146.004 382.639 143.81C382.102 141.615 380.928 139.628 379.265 138.099C377.603 136.57 375.525 135.567 373.294 135.215C371.062 134.863 368.776 135.178 366.722 136.121C364.667 137.064 362.936 138.592 361.746 140.515C360.556 142.437 359.959 144.668 360.031 146.927C360.102 149.186 360.839 151.373 362.149 153.213L343.469 150.273C343.078 150.212 342.704 150.076 342.366 149.87C342.029 149.664 341.736 149.394 341.503 149.075C341.271 148.755 341.104 148.393 341.012 148.009C340.92 147.624 340.905 147.225 340.967 146.835L343.938 128.085C342.11 129.412 339.931 130.168 337.674 130.258C335.418 130.347 333.187 129.765 331.262 128.586C329.338 127.407 327.806 125.683 326.861 123.633C325.916 121.582 325.6 119.297 325.952 117.066C326.305 114.834 327.311 112.757 328.842 111.096C330.374 109.435 332.363 108.265 334.558 107.733C336.753 107.202 339.055 107.333 341.174 108.11C343.294 108.888 345.135 110.276 346.464 112.1L349.429 93.3459C349.491 92.9554 349.629 92.5808 349.836 92.2436C350.043 91.9064 350.314 91.6133 350.634 91.3809C350.954 91.1485 351.316 90.9815 351.701 90.8894C352.085 90.7974 352.484 90.782 352.874 90.8443L370.65 93.6547L387.547 96.3088Z" fill="#178A00"/>
<path fill-rule="evenodd" clip-rule="evenodd" d="M376.607 121.631C375.894 121.465 375.197 121.23 374.527 120.929C374.424 120.862 373.956 120.614 373.835 120.535C372.874 119.886 372.098 119 371.588 117.97C371.078 116.939 370.853 115.802 370.935 114.675C371.017 113.548 371.405 112.473 372.057 111.561C372.709 110.649 373.602 109.933 374.643 109.488C375.685 109.043 376.837 108.884 377.98 109.029C379.123 109.174 380.215 109.616 381.144 110.311C382.073 111.005 382.805 111.927 383.263 112.979C383.721 114.032 383.889 115.177 383.75 116.297L386.076 116.7C386.282 115.186 386.075 113.633 385.477 112.199C384.879 110.764 383.912 109.5 382.673 108.534C381.434 107.568 379.968 106.935 378.424 106.699C376.88 106.464 375.313 106.634 373.883 107.193C372.452 107.752 371.209 108.679 370.281 109.881C369.352 111.083 368.77 112.516 368.594 114.034C368.419 115.553 368.656 117.103 369.281 118.526C369.907 119.95 370.898 121.197 372.155 122.14C372.586 122.449 373.039 122.728 373.508 122.975C374.32 123.35 375.165 123.645 376.031 123.858C376.315 123.926 377.319 124.107 377.614 124.158L393.554 126.867L393.891 124.583L377.988 121.883C377.737 121.844 376.803 121.675 376.607 121.631ZM378.454 118.307L377.24 118.089C376.931 118.012 376.627 117.918 376.327 117.808C376.105 117.711 375.893 117.594 375.692 117.46C375.299 117.161 374.989 116.769 374.794 116.321C374.599 115.874 374.525 115.387 374.579 114.91C374.634 114.434 374.815 113.983 375.106 113.605C375.396 113.226 375.784 112.933 376.231 112.754C376.679 112.575 377.17 112.517 377.656 112.586C378.141 112.655 378.604 112.848 378.997 113.146C379.39 113.444 379.7 113.836 379.895 114.283C380.091 114.73 380.165 115.217 380.111 115.694L382.334 116.071C382.439 115.209 382.31 114.327 381.959 113.515C381.609 112.703 381.049 111.991 380.337 111.451C379.626 110.91 378.788 110.561 377.908 110.439C377.029 110.316 376.139 110.425 375.331 110.753C374.522 111.082 373.823 111.619 373.304 112.31C372.785 113 372.465 113.82 372.377 114.685C372.289 115.55 372.436 116.43 372.803 117.235C373.169 118.041 373.743 118.742 374.465 119.269C374.717 119.453 374.987 119.611 375.272 119.738C375.77 119.948 376.285 120.115 376.811 120.237C376.987 120.285 377.893 120.444 378.086 120.478L394.065 123.195L394.378 121.013L378.476 118.313L378.454 118.307ZM365.957 122.149L363.626 121.751L365.761 106.898L362.347 106.334L362.678 104.047L368.42 105.024L365.963 122.153L365.957 122.149ZM359.631 107.028L359.316 109.225L361.881 109.66L360.224 121.169L362.469 121.553L364.446 107.825L359.631 107.028Z" fill="white"/>
<path d="M418.017 129.092C415.711 126.836 413.257 124.739 410.672 122.816C408.968 121.52 407.134 120.409 405.199 119.502C404.178 118.941 403.066 118.567 401.915 118.397C401.226 118.331 400.197 118.397 396.442 119.502C395.446 119.811 394.592 120.098 393.903 120.342C393.678 120.42 393.485 120.571 393.353 120.77C393.22 120.969 393.156 121.207 393.169 121.446C393.195 121.72 393.25 121.991 393.333 122.253C393.557 122.838 393.867 123.385 394.253 123.877C395.118 125.291 394.713 125.943 395.347 127.191C395.84 128.134 396.603 128.904 397.537 129.401C398.5 129.699 400.021 130.119 401.915 130.506C404.761 131.102 406.436 131.18 409.577 131.61C411.11 131.831 413.376 132.174 416.145 132.715L418.017 129.092Z" fill="#F9C6B9"/>
<path d="M449.024 81.2147C449.024 81.2147 464.447 109.943 462.243 143.09C462.243 143.09 461.693 150.272 450.676 148.063L414.194 134.254L417.474 127.069C417.474 127.069 432.201 129.513 446.164 130.372C446.164 130.372 437.653 114.275 438.386 90.3731C438.566 84.4993 441.863 81.9881 447.052 81.1705C447.707 81.0705 448.374 81.0855 449.024 81.2147Z" fill="#F7931E"/>
<path d="M461.672 123.158C461.995 128.631 462.017 133.29 461.95 136.879C461.839 143.12 461.46 145.394 459.722 146.91C457.649 148.727 454.64 148.593 452.901 148.336" stroke="#C36302" stroke-miterlimit="10" stroke-linecap="round"/>
<path d="M414.672 133.193L433.309 141.317" stroke="#C46302" stroke-miterlimit="10" stroke-linecap="round"/>
<path d="M441.718 119.012C441.657 119.012 441.598 118.993 441.549 118.957C441.5 118.921 441.464 118.87 441.446 118.812C434.647 94.8792 439.467 86.0226 439.675 85.6616C439.71 85.5977 439.768 85.55 439.837 85.5288C439.907 85.5076 439.982 85.5148 440.046 85.5486C440.109 85.587 440.155 85.6482 440.174 85.7195C440.193 85.7907 440.184 85.8666 440.149 85.9313C440.149 85.9313 438.906 88.1855 438.521 93.3124C438.154 98.052 438.468 106.289 441.981 118.66C441.991 118.695 441.993 118.732 441.988 118.768C441.983 118.804 441.971 118.839 441.953 118.871C441.935 118.902 441.91 118.93 441.881 118.952C441.852 118.974 441.819 118.99 441.784 118.999L441.718 119.012Z" fill="#C36302"/>
<path d="M115.825 192.542C115.898 192.793 115.897 193.059 115.822 193.31C115.748 193.56 115.603 193.784 115.404 193.954C115.269 194.069 115.112 194.155 114.942 194.206C114.772 194.257 114.593 194.272 114.417 194.25C114.241 194.228 114.072 194.17 113.92 194.079C113.767 193.988 113.636 193.867 113.534 193.722L109.393 188.409C109.217 188.169 109.12 187.881 109.117 187.585C109.113 187.288 109.203 186.998 109.374 186.755L111.113 184.201C111.208 184.057 111.332 183.935 111.477 183.842C111.622 183.748 111.785 183.686 111.956 183.659C112.127 183.632 112.301 183.64 112.468 183.684C112.635 183.728 112.791 183.806 112.927 183.913C113.215 184.131 113.409 184.45 113.47 184.805C113.531 185.16 113.454 185.525 113.254 185.826L112.085 187.545L115.591 192.041C115.701 192.191 115.781 192.362 115.825 192.542Z" fill="#DB7C6F"/>
<path d="M113.413 184.433C113.497 184.708 113.515 184.999 113.466 185.283C113.418 185.567 113.303 185.835 113.132 186.068L111.702 187.712L114.628 194.112C114.825 194.472 114.889 194.89 114.809 195.292C114.728 195.694 114.509 196.056 114.189 196.314C113.562 196.685 112.74 196.314 112.319 195.459L108.907 187.888C108.744 187.578 108.673 187.229 108.701 186.881C108.729 186.533 108.856 186.199 109.066 185.919L111.179 183.467C111.307 183.337 111.464 183.238 111.637 183.179C111.81 183.12 111.995 183.102 112.177 183.127C112.358 183.151 112.531 183.217 112.683 183.32C112.834 183.422 112.959 183.558 113.048 183.717C113.216 183.93 113.34 184.173 113.413 184.433Z" fill="#E5978C"/>
<path d="M105.074 188.585L108.243 193.109L111.44 197.679C111.621 197.939 111.892 198.123 112.2 198.198C112.509 198.273 112.835 198.233 113.115 198.085C113.396 197.937 113.613 197.693 113.725 197.397C113.836 197.102 113.835 196.776 113.721 196.481L111.767 191.427L110.337 187.712L112.179 184.386C112.945 185.64 115.469 189.597 116.937 189.774C117.171 189.774 117.676 189.858 117.872 189.588C118.068 189.319 117.722 188.724 117.685 188.659L113.796 180.002L113.721 179.909L112.459 173.053C112.428 172.884 112.363 172.724 112.268 172.58C112.173 172.436 112.051 172.313 111.908 172.217C111.764 172.12 111.603 172.052 111.432 172.018C111.262 171.985 111.087 171.986 110.917 172.022L106.785 172.867C106.361 175.914 105.944 178.958 105.532 181.999L104.906 187.693C104.849 188.001 104.909 188.319 105.074 188.585Z" fill="#F9C6B9"/>
<path d="M176.954 178.187C176.668 178.268 176.42 178.445 176.249 178.688C176.078 178.93 175.995 179.224 176.015 179.52C176.034 179.816 176.154 180.097 176.355 180.315C176.556 180.533 176.826 180.676 177.119 180.72L183.478 181.642C183.759 181.683 184.046 181.631 184.294 181.492C184.543 181.354 184.738 181.138 184.851 180.877L186.049 178.113C186.158 177.803 186.145 177.464 186.013 177.163C185.882 176.862 185.641 176.622 185.34 176.491C185.039 176.361 184.7 176.349 184.39 176.458C184.08 176.568 183.824 176.79 183.671 177.081L182.861 178.924L177.488 178.15C177.309 178.129 177.128 178.142 176.954 178.187Z" fill="#DB7C6F"/>
<path d="M184.943 177.965C184.713 178.028 184.505 178.153 184.342 178.327C184.179 178.501 184.068 178.717 184.022 178.951L183.607 180.932L178.188 181.282C177.858 181.322 177.556 181.486 177.344 181.741C177.131 181.997 177.024 182.324 177.046 182.655C177.067 182.987 177.214 183.297 177.458 183.524C177.701 183.75 178.022 183.874 178.354 183.871L184.805 183.457C185.076 183.434 185.334 183.325 185.539 183.146C185.745 182.967 185.888 182.727 185.947 182.462L186.565 179.476C186.6 179.309 186.602 179.137 186.57 178.969C186.539 178.802 186.475 178.642 186.381 178.499C186.288 178.356 186.168 178.233 186.027 178.137C185.886 178.04 185.727 177.973 185.56 177.938C185.355 177.899 185.144 177.908 184.943 177.965Z" fill="#F4AA89"/>
<path d="M188.574 180.297L184.805 185.567C183.183 186.414 181.838 187.068 180.852 187.492C180.631 187.638 180.383 187.735 180.122 187.776C179.861 187.818 179.595 187.802 179.34 187.732C179.012 187.523 178.778 187.194 178.69 186.814C178.602 186.435 178.667 186.037 178.87 185.705L183.247 183.383L183.082 179.845L179.958 177.717C179.959 177.855 179.937 177.992 179.893 178.122L178.05 183.973C177.978 184.31 177.775 184.605 177.485 184.792C177.196 184.98 176.844 185.044 176.507 184.972C176.169 184.9 175.874 184.697 175.687 184.408C175.499 184.118 175.435 183.766 175.507 183.429L176.52 174.566V174.437L176.428 167.214C176.379 167.047 176.365 166.872 176.385 166.699C176.405 166.526 176.46 166.359 176.546 166.208C176.632 166.057 176.747 165.924 176.885 165.818C177.023 165.713 177.181 165.636 177.35 165.592L179.396 165.002C179.561 164.95 179.735 164.931 179.907 164.947C180.08 164.963 180.247 165.013 180.4 165.095C180.553 165.176 180.688 165.287 180.797 165.422C180.906 165.556 180.987 165.711 181.036 165.878V165.988L184.777 172.53L187.956 177.321L188.574 180.297Z" fill="#F9C6B9"/>
<path d="M165.679 158.413C145.113 166.773 120.807 158.413 120.807 158.413C120.863 157.205 120.919 155.988 120.966 154.762C121.209 148.928 121.312 142.869 121.275 136.583C121.275 131.009 121.069 125.556 120.807 120.327C120.125 114.939 115.881 97.3354 113.6 88.0739C112.73 84.5533 112.179 82.2402 112.179 82.2402L132.997 70.1641H149.824L165.716 80.3823C166.052 82.0637 166.716 85.4265 167.333 89.6717C167.333 89.6717 170.334 110.285 165.716 158.413H165.679Z" fill="#E6E6E6"/>
<path d="M149.712 55.0417V71.0937C150.17 73.4532 150.965 78.9061 148.599 80.3831C145.954 82.0366 139.85 78.4323 133.427 71.0937V55.0417H149.712Z" fill="#F9C6B9"/>
<path d="M137.578 62.6128C137.578 62.6128 142.972 71.1218 149.731 70.4809V65.9291L137.578 62.6128Z" fill="#DB7C6F"/>
<path d="M154.498 46.2537C154.498 46.2537 155.433 66.2444 148.749 67.2012C147.559 67.3836 146.349 67.3836 145.159 67.2012C142.028 66.6266 139.218 64.9311 137.26 62.4358C135.982 60.8566 134.705 59.2712 133.427 57.6796V38.6458L154.498 39.5747V46.2537Z" fill="#F9C6B9"/>
<path d="M129.006 37.6335L131.352 48.1398C131.371 48.2231 131.417 48.298 131.483 48.3534L134.418 50.6758C134.465 50.7156 134.52 50.743 134.58 50.7557C134.64 50.7683 134.703 50.7657 134.761 50.7481C134.82 50.7306 134.873 50.6985 134.916 50.655C134.959 50.6115 134.991 50.558 135.007 50.4993L137.484 42.4826C137.498 42.4319 137.524 42.3848 137.558 42.3447C137.592 42.3046 137.635 42.2723 137.683 42.2502C137.731 42.2281 137.783 42.2167 137.836 42.2167C137.889 42.2167 137.941 42.2282 137.989 42.2503C140.915 43.523 159.761 51.1495 160.425 36.6767C160.425 36.6767 160.425 36.6117 160.425 36.5838C160.593 36.0543 162.126 30.5736 155.751 31.1124C155.699 31.1172 155.649 31.1329 155.604 31.1586C155.559 31.1842 155.52 31.2192 155.489 31.261C155.096 31.7812 153.189 33.6856 146.636 32.5151H146.533C145.982 32.2457 140.364 29.7283 130.193 35.0883C129.75 35.3337 129.397 35.7121 129.183 36.1693C128.97 36.6265 128.908 37.1391 129.006 37.6335Z" fill="#333333"/>
<path d="M150.553 58.0603C149.444 58.1637 148.334 57.8633 147.431 57.2149L147.898 56.7505C148.132 56.9827 148.833 57.3729 150.563 57.4007C150.689 57.4009 150.811 57.3529 150.903 57.2665C150.995 57.1801 151.051 57.0619 151.058 56.9363L149.824 49.5048L150.469 49.3933L151.722 56.9456C151.722 57.0978 151.691 57.2486 151.632 57.389C151.572 57.5294 151.485 57.6565 151.376 57.763C151.151 57.9643 150.856 58.0708 150.553 58.0603Z" fill="#DB7C6F"/>
<path d="M148.366 50.4061C146.664 49.6612 144.75 49.5491 142.972 50.0902L142.775 49.4678C144.707 48.8792 146.788 49.0013 148.637 49.8115L148.366 50.4061Z" fill="#333333"/>
<path d="M151.441 50.2019L151.18 49.6074C151.912 49.3672 152.672 49.2175 153.442 49.1615C153.899 49.1242 154.359 49.1242 154.816 49.1615L154.76 49.8117C154.337 49.7839 153.912 49.7839 153.489 49.8117C152.793 49.858 152.105 49.989 151.441 50.2019Z" fill="#333333"/>
<path d="M148.88 60.9681C148.516 60.9679 148.154 60.9368 147.795 60.8752C146.504 60.6543 145.308 60.0597 144.355 59.166L144.701 58.813C145.583 59.6359 146.688 60.1848 147.88 60.3922C148.949 60.5691 150.046 60.4601 151.058 60.0763L151.236 60.5408C150.483 60.8224 149.685 60.9672 148.88 60.9681Z" fill="#DB7C6F"/>
<path d="M146.159 52.7381C145.912 52.7381 145.674 52.6402 145.498 52.466C145.323 52.2918 145.225 52.0555 145.225 51.8091V51.0381C145.225 50.7843 145.326 50.541 145.507 50.3615C145.687 50.1821 145.932 50.0813 146.188 50.0813C146.443 50.0813 146.688 50.1821 146.868 50.3615C147.049 50.541 147.15 50.7843 147.15 51.0381V51.8091C147.151 51.9359 147.125 52.0615 147.074 52.178C147.024 52.2945 146.95 52.3995 146.857 52.4865C146.764 52.5735 146.654 52.6407 146.534 52.684C146.415 52.7273 146.287 52.7457 146.159 52.7381Z" fill="#333333"/>
<path d="M153.302 50.8242C153.302 50.3984 152.956 50.0532 152.53 50.0532C152.104 50.0532 151.759 50.3984 151.759 50.8242V51.9668C151.759 52.3926 152.104 52.7378 152.53 52.7378C152.956 52.7378 153.302 52.3926 153.302 51.9668V50.8242Z" fill="#333333"/>
<path d="M149.684 64.4702C149.279 64.3194 148.859 64.2135 148.431 64.1544C147.91 64.0894 147.382 64.0894 146.861 64.1544L146.767 63.5413C147.344 63.467 147.929 63.467 148.506 63.5413C148.982 63.6041 149.449 63.7194 149.899 63.885L149.684 64.4702Z" fill="#DB7C6F"/>
<path d="M135.97 56.2397C135.694 56.6907 135.324 57.078 134.886 57.3759C134.448 57.6738 133.95 57.8755 133.427 57.9676V56.5184L135.97 56.2397Z" fill="#DB7C6F"/>
<path d="M138.214 51.9671C138.214 54.3358 136.344 56.7604 134.381 56.7325C132.801 56.7325 131.679 55.079 131.511 54.8282C130.866 53.8992 130.763 52.9703 130.576 51.0195C130.438 50.3922 130.438 49.7426 130.576 49.1152C131.09 47.8054 132.913 47.0437 134.409 47.2574C136.587 47.4617 138.214 49.7655 138.214 51.9671Z" fill="#F9C6B9"/>
<path d="M134.615 50.7685C134.615 51.4095 134.128 51.5302 133.951 52.4127C133.773 53.2952 134.184 53.9269 133.951 54.0569C133.717 54.187 133.194 53.6668 132.96 53.3974C132.643 53.0122 132.416 52.5616 132.296 52.0783C132.15 51.7703 132.075 51.434 132.075 51.0936C132.075 50.7532 132.15 50.417 132.296 50.109C132.429 49.9027 132.615 49.7365 132.836 49.6284C133.057 49.5203 133.304 49.4744 133.549 49.4959C133.839 49.5682 134.099 49.7305 134.291 49.9593C134.482 50.1881 134.596 50.4715 134.615 50.7685Z" fill="#DB7C6F"/>
<path d="M184.16 170.481C182.745 170.156 181.276 170.144 179.856 170.446C178.436 170.747 177.1 171.355 175.943 172.227C175.803 171.995 175.672 171.772 175.55 171.54C174.157 169.087 172.867 166.542 171.68 163.932C171.213 162.891 170.745 161.832 170.306 160.773C169.867 159.714 169.371 158.442 168.922 157.262C168.062 155.005 167.268 152.71 166.539 150.406C165.426 146.876 164.463 143.319 163.622 139.761C156.424 109.561 158.265 80.021 158.265 80.021C159.445 79.3305 160.795 78.9799 162.164 79.0084C165.389 79.1199 168.389 81.563 169.867 85.1952C171.362 92.766 172.671 100.764 173.84 109.18C174.643 115.2 175.295 121.03 175.793 126.672C177.738 134.726 179.533 143.216 181.178 152.125C182.318 158.423 183.312 164.542 184.16 170.481Z" fill="#333333"/>
<path d="M172.007 124.043C170.942 135.11 169.895 146.173 168.866 157.234C168.006 154.977 167.212 152.682 166.482 150.378C165.535 146.725 164.572 143.17 163.594 139.714C163.594 132.704 163.75 125.452 164.061 117.959C164.373 110.112 164.84 102.541 165.464 95.2461C168.142 100.844 170.03 106.784 171.072 112.896C171.697 116.579 172.009 120.308 172.007 124.043Z" fill="#282828"/>
<path d="M164.426 322.715L149.366 323.263L148.581 331.103C148.562 331.287 148.583 331.472 148.642 331.648C148.7 331.823 148.795 331.984 148.92 332.121C149.045 332.257 149.198 332.366 149.368 332.441C149.538 332.515 149.722 332.553 149.908 332.552H183.562L183.898 331.289L164.426 322.715Z" fill="#1A1A1A"/>
<path d="M136.895 157.679L140.223 188.455L141.364 198.887C144.087 240.831 146.823 282.767 149.572 324.692L157.05 323.764L164.529 322.835L164.921 155.933L136.895 157.679Z" fill="#3D3D3D"/>
<path d="M140.223 188.455L141.364 198.887L144.711 252.115C146.739 226.718 150.955 173.313 150.787 172.431L140.223 188.455Z" fill="#333231"/>
<path d="M113.516 322.008L111.3 331.455L125.416 332.44L124.715 321.312L113.516 322.008Z" fill="#1A1A1A"/>
<path d="M157.415 156.398L121.032 158.664L110.898 324.962H125.883L141.972 193.657L157.415 156.398Z" fill="#3D3D3D"/>
<path d="M125.192 332.933C125.192 332.933 126.22 325.501 118.648 325.046C118.648 325.046 112.571 324.61 108.785 331.976C108.732 332.076 108.705 332.188 108.708 332.301C108.712 332.415 108.745 332.525 108.804 332.622C108.864 332.719 108.948 332.798 109.048 332.853C109.148 332.907 109.26 332.935 109.374 332.933H125.192Z" fill="#1A1A1A"/>
<path fill-rule="evenodd" clip-rule="evenodd" d="M151.38 171.095C151.441 171.123 151.468 171.195 151.44 171.256L151.329 171.205L151.218 171.155C151.246 171.093 151.319 171.067 151.38 171.095ZM151.218 171.155C151.218 171.154 151.218 171.155 151.329 171.205C151.44 171.256 151.44 171.256 151.44 171.256L151.365 171.419C151.316 171.526 151.244 171.683 151.152 171.886C150.967 172.292 150.7 172.879 150.373 173.605C149.718 175.056 148.819 177.06 147.846 179.272C145.899 183.698 143.655 188.952 142.46 192.278C142.437 192.341 142.368 192.374 142.304 192.351C142.241 192.328 142.208 192.258 142.231 192.195C143.429 188.86 145.677 183.599 147.623 179.174C148.597 176.961 149.496 174.956 150.151 173.505C150.479 172.779 150.746 172.191 150.93 171.785C151.023 171.582 151.095 171.425 151.144 171.318L151.218 171.155Z" fill="#808080"/>
<path fill-rule="evenodd" clip-rule="evenodd" d="M113.359 327.453C113.307 327.496 113.231 327.488 113.188 327.436C113.145 327.384 113.153 327.308 113.204 327.265L113.282 327.359C113.204 327.265 113.204 327.265 113.204 327.265L113.205 327.264L113.206 327.264L113.21 327.261L113.224 327.249C113.237 327.239 113.255 327.224 113.279 327.206C113.327 327.168 113.398 327.114 113.49 327.047C113.673 326.913 113.939 326.729 114.271 326.524C114.933 326.115 115.862 325.625 116.921 325.302C117.981 324.979 119.177 324.823 120.372 325.088C121.569 325.355 122.755 326.044 123.792 327.396C123.833 327.45 123.823 327.526 123.77 327.567C123.717 327.608 123.64 327.598 123.599 327.544C122.594 326.235 121.457 325.58 120.319 325.326C119.178 325.072 118.026 325.22 116.992 325.535C115.959 325.85 115.05 326.329 114.398 326.731C114.073 326.932 113.812 327.113 113.634 327.244C113.544 327.309 113.475 327.361 113.429 327.398C113.405 327.416 113.388 327.43 113.376 327.439L113.363 327.45L113.36 327.452L113.359 327.453Z" fill="#808080"/>
<path fill-rule="evenodd" clip-rule="evenodd" d="M135.096 165.61C135.159 165.633 135.191 165.703 135.168 165.766L135.054 165.724C135.168 165.766 135.168 165.767 135.168 165.767L135.168 165.767L135.167 165.768L135.165 165.774L135.158 165.793C135.151 165.81 135.141 165.834 135.128 165.866C135.102 165.931 135.062 166.024 135.009 166.143C134.902 166.381 134.739 166.722 134.514 167.131C134.064 167.95 133.367 169.048 132.375 170.164C130.392 172.397 127.23 174.705 122.525 174.995C122.458 174.999 122.4 174.948 122.396 174.881C122.392 174.814 122.443 174.756 122.51 174.752C127.135 174.467 130.241 172.2 132.193 170.002C133.17 168.903 133.857 167.821 134.3 167.014C134.522 166.611 134.682 166.276 134.787 166.043C134.839 165.927 134.878 165.836 134.903 165.774C134.915 165.743 134.925 165.72 134.931 165.704L134.938 165.687L134.939 165.682L134.94 165.681L134.94 165.681C134.94 165.681 134.94 165.681 134.94 165.681M135.096 165.61C135.033 165.586 134.963 165.618 134.94 165.681L135.096 165.61Z" fill="#808080"/>
<path fill-rule="evenodd" clip-rule="evenodd" d="M118.772 234.417C118.906 234.408 119.022 234.51 119.031 234.644C119.04 234.778 119.024 235.212 118.992 235.88C118.96 236.559 118.908 237.498 118.841 238.661C118.705 240.986 118.506 244.206 118.263 248.017C117.777 255.64 117.117 265.628 116.454 275.559C115.791 285.489 115.124 295.361 114.623 302.751C114.372 306.446 114.163 309.52 114.017 311.671C113.944 312.746 113.886 313.59 113.847 314.166L113.787 315.047C113.787 315.048 113.787 315.048 113.544 315.031C113.301 315.015 113.301 315.015 113.301 315.014L113.361 314.133C113.4 313.557 113.458 312.713 113.531 311.638C113.677 309.487 113.887 306.413 114.137 302.718C114.638 295.329 115.305 285.456 115.968 275.526C116.632 265.596 117.291 255.608 117.777 247.986C118.02 244.175 118.219 240.957 118.354 238.633C118.422 237.471 118.473 236.533 118.506 235.857C118.539 235.171 118.551 234.774 118.545 234.676C118.536 234.542 118.638 234.426 118.772 234.417ZM113.527 315.274C113.393 315.265 113.292 315.149 113.301 315.015L113.544 315.031L113.787 315.048C113.777 315.182 113.661 315.284 113.527 315.274Z" fill="#808080"/>
<path d="M131.81 148.195L120.966 154.762C121.209 148.929 121.312 142.869 121.275 136.583C121.275 131.01 121.069 125.557 120.807 120.327C120.125 114.939 115.881 97.3357 113.6 88.0742L121.836 88.26C121.836 88.26 137.419 121.256 131.81 148.195Z" fill="#E57607"/>
<path d="M152.806 125.669C152.775 125.669 152.744 125.662 152.716 125.65C152.687 125.638 152.662 125.62 152.64 125.597C152.619 125.574 152.603 125.547 152.593 125.518C152.583 125.489 152.579 125.458 152.582 125.427C153.016 111.981 151.441 98.5445 147.908 85.5573C147.898 85.528 147.894 85.497 147.897 85.4663C147.899 85.4355 147.908 85.4057 147.923 85.3786C147.938 85.3515 147.959 85.3278 147.983 85.309C148.008 85.2902 148.036 85.2767 148.067 85.2693C148.096 85.2608 148.127 85.2581 148.157 85.2614C148.188 85.2647 148.217 85.274 148.244 85.2886C148.299 85.3182 148.339 85.3681 148.356 85.4272C151.895 98.4641 153.47 111.95 153.03 125.446C153.028 125.504 153.004 125.56 152.962 125.601C152.921 125.642 152.865 125.666 152.806 125.669Z" fill="#CE6700"/>
<path d="M149.572 77.5957L147.702 82.2404L143.963 80.3825V85.0272C143.963 85.9561 152.376 86.8851 152.376 86.8851C152.376 86.8851 154.246 83.1693 153.311 83.1693C152.376 83.1693 149.572 77.5957 149.572 77.5957Z" fill="#E6E6E6"/>
<path fill-rule="evenodd" clip-rule="evenodd" d="M162.622 87.9973H155.143V87.6321H162.622V87.9973Z" fill="#CE6700"/>
<path d="M144.898 78.943L149.628 78.1813C149.81 78.134 150.001 78.132 150.184 78.1754C150.368 78.2188 150.537 78.3063 150.679 78.4301C150.82 78.554 150.928 78.7104 150.995 78.8857C151.061 79.061 151.082 79.2497 151.058 79.4353L150.329 82.9467C150.266 83.1904 150.131 83.4096 149.941 83.5754C149.751 83.7412 149.514 83.8459 149.263 83.8756L147.468 84.1636C147.237 84.2083 146.997 84.1887 146.776 84.1067C146.555 84.0247 146.361 83.8837 146.216 83.6991L144 80.6615C143.899 80.4953 143.842 80.3058 143.835 80.1114C143.829 79.9171 143.873 79.7243 143.963 79.5517C144.053 79.3791 144.186 79.2324 144.35 79.1258C144.514 79.0192 144.702 78.9562 144.898 78.943Z" fill="#F7931E"/>
<path d="M146.767 83.2443C147.39 101.823 148.014 120.377 148.637 138.906L155.181 144.48C156.424 142.315 157.677 140.151 158.92 137.977C155.729 119.566 152.551 101.154 149.385 82.7427L146.767 83.2443Z" fill="#F7931E"/>
<path d="M145.468 83.0493L128.828 75.4877C128.77 75.4614 128.725 75.4135 128.702 75.3545C128.68 75.2954 128.681 75.2299 128.706 75.1719C128.733 75.1168 128.78 75.0741 128.838 75.0533C128.895 75.0324 128.959 75.035 129.015 75.0604L145.187 82.4083L146.038 79.863C146.048 79.8338 146.063 79.8067 146.084 79.7834C146.104 79.7601 146.129 79.741 146.157 79.7272C146.184 79.7133 146.215 79.7051 146.246 79.7029C146.277 79.7007 146.308 79.7046 146.337 79.7144C146.367 79.7242 146.394 79.7396 146.417 79.7598C146.441 79.78 146.46 79.8046 146.474 79.8322C146.488 79.8599 146.496 79.8899 146.498 79.9207C146.5 79.9515 146.497 79.9824 146.487 80.0117L145.468 83.0493Z" fill="#808080"/>
<path d="M165.426 157.484H120.555V163.058H165.426V157.484Z" fill="#141414"/>
<path d="M133.119 68.0276L127.136 73.8799L144.897 82.2403C145.524 80.3824 146.141 78.5246 146.767 76.6667C143.439 74.1028 136.409 70.6007 133.119 68.0276Z" fill="#E6E6E6"/>
<path d="M153.311 172.347L148.637 178.85C145.211 179.027 141.779 179.027 138.354 178.85C137.008 178.785 134.428 178.618 130.314 178.107L129.006 177.94C125.958 177.54 122.153 176.946 117.732 176.082C117.732 175.989 117.788 175.849 117.825 175.682C119.675 167.578 120.603 159.292 120.592 150.982C120.845 134.846 120.966 126.774 120.592 122.185C119.465 108.575 116.638 95.1575 112.179 82.2407C114.634 80.7606 117.127 79.2124 119.657 77.596C122.565 75.7381 125.369 73.8803 128.071 72.0224C128.363 71.6944 128.676 71.3842 129.006 71.0935C129.848 70.3466 130.792 69.7212 131.81 69.2356C132.857 72.7563 133.867 75.6081 134.614 77.596C136.814 83.2948 139.31 88.8759 142.093 94.3168C143.71 97.6053 143.757 97.5681 144.898 99.8905C147.71 105.635 150.207 111.527 152.376 117.54C152.663 135.815 152.974 154.085 153.311 172.347Z" fill="#333333"/>
<path d="M153.311 72.0227C153.703 76.2772 154.115 81.9716 154.246 88.7435C154.33 92.8401 154.246 95.9521 154.246 98.0329C154.162 103.068 153.928 109.691 153.311 117.541L156.115 172.348L158.92 176.992C160.226 177.281 161.582 177.263 162.88 176.941C164.178 176.618 165.382 176 166.398 175.134C166.333 153.258 167.333 137.466 168.268 126.83C168.97 119.73 169.282 112.598 169.203 105.464C169.1 97.3822 168.475 89.3148 167.333 81.3121L153.311 72.0227Z" fill="#333333"/>
<path fill-rule="evenodd" clip-rule="evenodd" d="M128.289 71.9024C128.355 71.9146 128.399 71.9781 128.387 72.0442C128.088 73.6663 127.786 75.2888 127.485 76.9096C127.245 78.2045 127.004 79.4983 126.765 80.79L129.574 82.6508L129.554 82.7342C129.382 83.4259 129.208 84.1158 129.033 84.8042C128.899 85.3373 128.764 85.8695 128.631 86.4008C132.138 92.1634 135.867 98.0309 139.82 104.003C143.889 110.152 147.939 116.034 151.97 121.649C152.009 121.704 151.997 121.78 151.942 121.819C151.888 121.858 151.812 121.846 151.772 121.791C147.739 116.173 143.687 110.288 139.617 104.138C135.653 98.1478 131.912 92.2633 128.397 86.4839L128.37 86.4405L128.383 86.3911C128.52 85.8413 128.659 85.2925 128.798 84.743C128.965 84.0834 129.132 83.423 129.297 82.759L126.497 80.9041L126.511 80.8249C126.755 79.5061 127 78.1858 127.246 76.8646C127.547 75.2442 127.849 73.6224 128.147 72.0001C128.159 71.934 128.223 71.8902 128.289 71.9024Z" fill="#808080"/>
<path fill-rule="evenodd" clip-rule="evenodd" d="M156.991 74.7026C157.05 74.6702 157.124 74.6917 157.157 74.7506L159.482 78.9774L159.465 79.0278C159.311 79.4925 159.154 79.9571 158.998 80.4213C158.848 80.867 158.697 81.3127 158.549 81.758L160.412 84.5339L160.405 84.5799C158.99 94.7001 157.432 104.919 155.731 115.238C155.426 117.091 155.115 118.943 154.798 120.796C154.96 122.578 155.123 124.358 155.287 126.137C155.436 127.759 155.585 129.38 155.732 130.999C155.738 131.066 155.688 131.125 155.622 131.131C155.555 131.137 155.495 131.088 155.489 131.021C155.342 129.403 155.194 127.782 155.044 126.16C154.88 124.375 154.716 122.588 154.554 120.803L154.553 120.787L154.556 120.771C154.874 118.913 155.185 117.056 155.49 115.198C157.189 104.897 158.745 94.6954 160.158 84.5923L158.281 81.7945L158.299 81.7379C158.454 81.2731 158.61 80.8084 158.767 80.344C158.918 79.8963 159.069 79.4489 159.218 79.0016L156.943 74.8679C156.911 74.809 156.933 74.735 156.991 74.7026Z" fill="#808080"/>
<path fill-rule="evenodd" clip-rule="evenodd" d="M154.232 135.486C154.299 135.484 154.355 135.536 154.358 135.603L154.236 135.608L154.115 135.613C154.112 135.545 154.165 135.489 154.232 135.486ZM154.236 135.608C154.115 135.613 154.115 135.612 154.115 135.613L154.125 135.875C154.131 136.046 154.141 136.297 154.154 136.617C154.18 137.256 154.218 138.171 154.267 139.271C154.364 141.472 154.503 144.416 154.671 147.389C154.839 150.362 155.037 153.366 155.251 155.684C155.358 156.843 155.469 157.833 155.583 158.564C155.64 158.928 155.698 159.231 155.758 159.459C155.787 159.572 155.818 159.67 155.85 159.748C155.88 159.823 155.917 159.893 155.964 159.94C156.012 159.987 156.089 159.987 156.136 159.939C156.184 159.891 156.183 159.814 156.136 159.767C156.124 159.756 156.103 159.724 156.075 159.656C156.049 159.592 156.021 159.505 155.993 159.397C155.937 159.181 155.88 158.888 155.824 158.526C155.711 157.803 155.6 156.819 155.493 155.662C155.28 153.348 155.082 150.348 154.914 147.375C154.746 144.404 154.607 141.461 154.51 139.26C154.461 138.16 154.423 137.246 154.398 136.607C154.385 136.287 154.375 136.036 154.368 135.865L154.358 135.603C154.358 135.603 154.358 135.603 154.236 135.608Z" fill="#808080"/>
<path d="M168.268 99.5841C168.207 99.5818 168.149 99.5566 168.105 99.5136C168.062 99.4705 168.037 99.4128 168.034 99.3519C167.898 94.6074 167.351 89.8833 166.398 85.2321C166.392 85.2022 166.392 85.1714 166.398 85.1415C166.404 85.1115 166.415 85.083 166.432 85.0576C166.449 85.0321 166.471 85.0102 166.497 84.9932C166.522 84.9761 166.551 84.9642 166.581 84.9581C166.611 84.952 166.642 84.9518 166.672 84.9576C166.702 84.9634 166.731 84.9751 166.756 84.9919C166.782 85.0087 166.804 85.0304 166.821 85.0556C166.838 85.0809 166.85 85.1093 166.856 85.1392C167.825 89.8201 168.385 94.5753 168.53 99.3519C168.53 99.3849 168.523 99.4176 168.51 99.4477C168.496 99.4779 168.477 99.5048 168.452 99.5268C168.427 99.5488 168.398 99.5653 168.366 99.5752C168.334 99.585 168.301 99.5881 168.268 99.5841Z" fill="#808080"/>
<path d="M130.436 178.069H130.277L129.006 177.939C125.226 177.394 121.48 176.634 117.788 175.663C119.649 167.566 120.59 159.287 120.592 150.981C120.845 134.846 120.966 126.773 120.592 122.184C119.465 108.575 116.638 95.157 112.179 82.2402C118.588 92.0424 123.62 102.669 127.136 113.824C133.559 134.639 134.693 156.712 130.436 178.069Z" fill="#282828"/>
<path d="M112.263 82.1205L112.768 81.6653L113.011 81.9533C114.106 81.7727 115.228 81.8265 116.301 82.1112C121.387 83.5232 123.387 90.1836 123.93 92.0043C125.678 97.838 124.425 102.223 120.798 116.956C119.171 123.542 117.928 128.772 117.236 131.661C117.068 139.928 116.647 148.604 115.927 157.671C115.416 164.056 114.793 170.224 114.058 176.175L105.644 175.757C102.301 160.629 101.327 145.078 102.756 129.654C103.588 121.136 106.486 108.047 112.263 82.1205Z" fill="#333333"/>
<path fill-rule="evenodd" clip-rule="evenodd" d="M123.791 91.8785C123.855 91.8587 123.923 91.8946 123.943 91.9589C124.413 93.4799 124.728 95.044 124.883 96.6276L124.883 96.6277C125.034 98.1801 125.034 99.7435 124.883 101.296L124.882 101.305L124.879 101.314C123.932 105.03 122.997 108.745 122.075 112.461L122.075 112.461C120.754 117.756 119.455 123.019 118.177 128.252C118.161 128.317 118.095 128.357 118.03 128.342C117.965 128.326 117.925 128.26 117.941 128.194C119.218 122.961 120.518 117.697 121.839 112.402C122.761 108.689 123.695 104.976 124.641 101.263C124.79 99.7294 124.79 98.185 124.64 96.6513C124.487 95.0841 124.175 93.5361 123.71 92.0307C123.691 91.9665 123.727 91.8983 123.791 91.8785Z" fill="#999999"/>
<path fill-rule="evenodd" clip-rule="evenodd" d="M102.843 129.458C102.91 129.465 102.958 129.525 102.952 129.592L102.831 129.58L102.709 129.567C102.716 129.501 102.776 129.452 102.843 129.458ZM102.831 129.58C102.709 129.567 102.709 129.567 102.709 129.567L102.708 129.582L102.704 129.625C102.7 129.663 102.695 129.719 102.688 129.793C102.674 129.941 102.655 130.159 102.63 130.443C102.582 131.009 102.516 131.833 102.444 132.866C102.301 134.932 102.138 137.831 102.055 141.167C101.889 147.837 102.045 156.259 103.337 163.248C103.349 163.314 103.413 163.357 103.479 163.345C103.545 163.333 103.589 163.27 103.577 163.203C102.289 156.24 102.132 147.838 102.298 141.173C102.381 137.842 102.544 134.946 102.687 132.883C102.758 131.852 102.825 131.028 102.873 130.463C102.897 130.181 102.917 129.963 102.93 129.815C102.937 129.742 102.943 129.686 102.946 129.648L102.95 129.606L102.952 129.592C102.952 129.591 102.952 129.592 102.831 129.58Z" fill="#999999"/>
<path d="M149.534 67.3782L153.274 72.0229L151.404 82.2411L147.665 76.6675L149.534 67.3782Z" fill="#E6E6E6"/>
<path d="M151.142 82.1199C151.104 82.1195 151.066 82.1101 151.032 82.0923C150.997 82.0746 150.968 82.049 150.946 82.0177L148.375 78.1812C148.358 78.1557 148.345 78.127 148.339 78.0967C148.333 78.0664 148.333 78.0353 148.339 78.005C148.345 77.9747 148.357 77.946 148.375 77.9204C148.392 77.8948 148.414 77.873 148.44 77.8561C148.492 77.8239 148.553 77.8127 148.613 77.8248C148.672 77.837 148.724 77.8715 148.758 77.9211L151.338 81.7576C151.371 81.8099 151.383 81.8726 151.371 81.9331C151.359 81.9935 151.324 82.0471 151.273 82.0827C151.234 82.1077 151.188 82.1207 151.142 82.1199Z" fill="#808080"/>
<path d="M151.881 79.8816C151.821 79.8682 151.769 79.833 151.734 79.7831C151.7 79.7332 151.685 79.6722 151.694 79.6122L152.844 73.314C152.848 73.2836 152.859 73.2544 152.875 73.2283C152.891 73.2022 152.913 73.1797 152.938 73.1622C152.964 73.1448 152.992 73.1327 153.023 73.1269C153.053 73.121 153.084 73.1215 153.115 73.1282C153.145 73.1326 153.175 73.1432 153.201 73.1594C153.227 73.1756 153.25 73.197 153.267 73.2223C153.285 73.2476 153.297 73.2762 153.303 73.3064C153.309 73.3365 153.308 73.3676 153.302 73.3976L152.152 79.6958C152.147 79.7262 152.137 79.7554 152.12 79.7815C152.104 79.8076 152.083 79.8301 152.057 79.8475C152.032 79.865 152.003 79.877 151.972 79.8829C151.942 79.8887 151.911 79.8883 151.881 79.8816Z" fill="#808080"/>
<path d="M137.2 43.4461L130.25 43.2026L130.468 44.1956L131.012 46.6132L136.129 46.8687L137.2 43.4461Z" fill="#C4C4C4"/>
<defs>
<linearGradient id="paint0_linear" x1="308.718" y1="243.5" x2="308.718" y2="254.692" gradientUnits="userSpaceOnUse">
<stop stop-color="#40A800"/>
<stop offset="1" stop-color="#178A00"/>
</linearGradient>
<linearGradient id="paint1_linear" x1="308.718" y1="280.995" x2="308.718" y2="292.186" gradientUnits="userSpaceOnUse">
<stop stop-color="#40A800"/>
<stop offset="1" stop-color="#178A00"/>
</linearGradient>
<linearGradient id="paint2_linear" x1="308.718" y1="172.528" x2="308.718" y2="183.72" gradientUnits="userSpaceOnUse">
<stop stop-color="#40A800"/>
<stop offset="1" stop-color="#178A00"/>
</linearGradient>
<linearGradient id="paint3_linear" x1="308.718" y1="208.015" x2="308.718" y2="219.206" gradientUnits="userSpaceOnUse">
<stop stop-color="#40A800"/>
<stop offset="1" stop-color="#178A00"/>
</linearGradient>
</defs>
</svg>
