<svg width="51" height="49" viewBox="0 0 51 49" fill="none" xmlns="http://www.w3.org/2000/svg">
<path fill-rule="evenodd" clip-rule="evenodd" d="M48.0901 10.3793L44.5266 11.2952L39.9613 9.33459L35.3531 13.628L36.684 9.62082L33.4067 4.62618L35.4246 0.0751953L30.6447 3.43835V10.179L33.5069 15.2452L33.1634 18.6512L33.5212 18.78L33.1348 20.4974C32.7294 19.8602 32.2489 19.274 31.7037 18.7514C31.2233 20.1922 30.9252 21.6874 30.8164 23.2022C30.7801 23.6407 30.8785 24.0798 31.0984 24.4608C31.3183 24.8419 31.6493 25.1467 32.0472 25.3346L30.8021 30.916H31.6035L32.82 25.5779C33.2057 25.2438 33.5115 24.8272 33.7146 24.359C33.9177 23.8909 34.013 23.383 33.9935 22.8731C34.0053 22.4678 33.9372 22.0642 33.7931 21.6852L34.3942 19.0663L34.7377 19.2094L36.5838 17.535L43.7395 18.4366L47.8182 15.2452H50.6805L48.0901 10.3793ZM35.2672 32.7049H33.693L32.0758 36.6691L36.9559 48.0323H39.2314L33.2779 36.6691L35.2672 32.7049ZM0.190186 48.0752H11.353V0.118086H0.190186V48.0752ZM2.30825 4.59752H9.23491V28.4687H2.30825V4.59752ZM5.77158 37.0555C6.46223 37.0555 7.13736 37.2603 7.71161 37.644C8.28586 38.0277 8.73343 38.5731 8.99773 39.2111C9.26203 39.8492 9.33118 40.5513 9.19644 41.2287C9.0617 41.9061 8.72913 42.5283 8.24077 43.0166C7.75241 43.505 7.1302 43.8376 6.45283 43.9723C5.77546 44.107 5.07334 44.0379 4.43527 43.7736C3.7972 43.5093 3.25183 43.0617 2.86813 42.4875C2.48443 41.9132 2.27963 41.2381 2.27963 40.5475C2.2834 39.6225 2.65251 38.7365 3.30656 38.0824C3.96062 37.4284 4.84662 37.0593 5.77158 37.0555ZM37.6428 9.23437L37.0131 11.0233L39.7322 8.17534L44.3834 10.2075L48.8056 9.04832L45.9863 6.40074L40.6625 4.9553L45.8718 5.3417L39.2743 0.475868L39.3315 6.3578L38.4442 1.29161H35.8396L34.4371 4.38285L37.6428 9.23437ZM37.8575 21.0412C36.9209 21.3226 36.1166 21.9313 35.5912 22.7561C35.0658 23.581 34.8543 24.5672 34.9952 25.5349C35.8079 25.9748 36.702 26.2437 37.6226 26.3249C38.5431 26.4061 39.4705 26.298 40.3476 26.0072C43.6392 25.0913 46.3154 24.1753 46.3154 24.1753C46.3154 24.1753 41.2206 20.1109 37.8575 21.0412ZM37.3709 30.9446C37.1816 29.6766 36.7176 28.4653 36.0113 27.3954C35.7304 26.9339 35.3247 26.5613 34.841 26.3207C34.3573 26.0802 33.8153 25.9814 33.2779 26.0358C32.9375 26.4928 32.7537 27.0474 32.7537 27.6172C32.7537 28.187 32.9375 28.7416 33.2779 29.1986C34.4228 30.916 37.3709 30.9446 37.3709 30.9446ZM28.0829 32.7049H31.5176L30.387 36.6691L33.7788 48.0323H28.0829V32.7049ZM25.2922 48.0323H14.1437V0.0751953H25.2922V48.0323ZM23.1741 4.55463H16.2475V28.3686H23.1741V4.55463ZM21.6276 37.6095C21.0511 37.2268 20.374 37.0241 19.6822 37.0269C18.7598 37.0269 17.8753 37.3933 17.2231 38.0455C16.5709 38.6977 16.2045 39.5822 16.2045 40.5046C16.2017 41.1964 16.4045 41.8735 16.7871 42.45C17.1697 43.0264 17.7149 43.4762 18.3536 43.7422C18.9922 44.0083 19.6955 44.0787 20.3742 43.9444C21.0529 43.8101 21.6764 43.4772 22.1656 42.988C22.6549 42.4988 22.9877 41.8753 23.122 41.1966C23.2563 40.5179 23.1859 39.8146 22.9199 39.1759C22.6538 38.5373 22.204 37.9921 21.6276 37.6095Z" fill="url(#paint0_linear)"/>
<defs>
<linearGradient id="paint0_linear" x1="5.94224" y1="41.3916" x2="44.1718" y2="1.1787" gradientUnits="userSpaceOnUse">
<stop stop-color="#FE4E00"/>
<stop offset="1" stop-color="#FF914B"/>
</linearGradient>
</defs>
</svg>
