<svg width="52" height="48" viewBox="0 0 52 48" fill="none" xmlns="http://www.w3.org/2000/svg">
<path fill-rule="evenodd" clip-rule="evenodd" d="M48.446 12.6324C50.0966 14.3765 51.0072 16.7019 51.0072 19.1436C51.0072 23.0968 48.6737 26.4687 45.3725 27.8639V38.0958C45.3725 38.7353 44.8603 39.2585 44.2342 39.2585H39.9655C39.3394 39.2585 38.8272 38.7353 38.8272 38.0958C38.8272 37.4563 39.3394 36.9331 39.9655 36.9331H43.0959V28.5034C42.6406 28.5616 42.1852 28.6197 41.7299 28.6197H39.5671L41.3315 30.4219C41.7868 30.887 41.7868 31.5846 41.3315 32.0497C41.1038 32.2822 40.8192 32.3985 40.5347 32.3985C40.2501 32.3985 39.9655 32.2822 39.7378 32.0497L36.0383 28.2709C35.5829 27.8058 35.5829 27.1082 36.0383 26.6431L39.7378 22.8643C40.1932 22.3992 40.8762 22.3992 41.3315 22.8643C41.7868 23.3294 41.7868 24.027 41.3315 24.4921L39.5671 26.2943H41.7299C42.1852 26.2943 42.6406 26.2943 43.0959 26.178V2.40061H16.516V5.53993C16.516 6.17942 16.0038 6.70263 15.3777 6.70263C14.7516 6.70263 14.2394 6.17942 14.2394 5.53993V1.2379C14.2394 0.598414 14.7516 0.0751953 15.3777 0.0751953H44.2342C44.8603 0.0751953 45.3725 0.598414 45.3725 1.2379V25.2478C47.3646 24.027 48.7306 21.7597 48.7306 19.1436C48.7306 17.2833 48.0476 15.5392 46.7954 14.2021C46.397 13.737 46.397 13.0394 46.8524 12.5743C47.3077 12.1674 47.9907 12.1674 48.446 12.6324ZM34.7861 32.1661C34.7861 31.5266 35.2983 31.0034 35.9244 31.0034C36.5505 31.0034 37.0627 31.5266 37.0627 32.1661V46.5837C37.0627 47.2232 36.5505 47.7464 35.9244 47.7464H7.06787C6.44179 47.7464 5.92954 47.2232 5.92954 46.5837V19.26C3.76673 20.4227 2.2869 22.8063 2.2869 25.5386C2.2869 27.3408 2.9699 29.143 4.27897 30.4801C4.67738 30.9452 4.67738 31.6429 4.22205 32.1079C3.99439 32.2823 3.70981 32.3986 3.42523 32.3986C3.08373 32.3986 2.79915 32.2823 2.57148 32.0498C0.920914 30.3057 0.0102539 27.9803 0.0102539 25.5386C0.0102539 21.5273 2.45765 18.0392 5.92954 16.6439V9.66766C5.92954 9.02817 6.44179 8.50495 7.06787 8.50495H35.9244C36.5505 8.50495 37.0627 9.02817 37.0627 9.66766V22.3993C37.0627 23.0388 36.5505 23.562 35.9244 23.562C35.2983 23.562 34.7861 23.0388 34.7861 22.3993V10.8304H8.20619V16.0626C8.54769 16.0044 8.9461 16.0044 9.2876 16.0044H11.4504L9.68601 14.2022C9.23068 13.7371 9.23068 13.0395 9.68601 12.5744C10.1413 12.1094 10.8243 12.1094 11.2797 12.5744L14.9792 16.3532C15.4346 16.8183 15.4346 17.5159 14.9792 17.981L11.2797 21.7598C11.052 21.9924 10.7674 22.1086 10.4828 22.1086C10.1983 22.1086 9.91368 21.9924 9.68601 21.7598C9.23068 21.2947 9.23068 20.5971 9.68601 20.132L11.4504 18.3298H9.2876C8.9461 18.3298 8.54769 18.388 8.20619 18.4461V45.421H34.7861V32.1661ZM21.923 14.5511H31.2003C31.8264 14.5511 32.3386 15.0743 32.3386 15.7138C32.3386 16.3533 31.8264 16.8765 31.2003 16.8765H21.923C21.2969 16.8765 20.7846 16.3533 20.7846 15.7138C20.7846 15.0743 21.2969 14.5511 21.923 14.5511ZM31.2003 19.318H21.923C21.2969 19.318 20.7846 19.8412 20.7846 20.4807C20.7846 21.1202 21.2969 21.6434 21.923 21.6434H31.2003C31.8264 21.6434 32.3386 21.1202 32.3386 20.4807C32.3386 19.8412 31.8264 19.318 31.2003 19.318ZM11.5073 24.0851H31.2003C31.8264 24.0851 32.3386 24.6083 32.3386 25.2478C32.3386 25.8873 31.8264 26.4105 31.2003 26.4105H11.5073C10.8812 26.4105 10.369 25.8873 10.369 25.2478C10.369 24.6083 10.8812 24.0851 11.5073 24.0851ZM31.2003 28.7944H11.5073C10.8812 28.7944 10.369 29.3176 10.369 29.9571C10.369 30.5966 10.8812 31.1198 11.5073 31.1198H31.2003C31.8264 31.1198 32.3386 30.5966 32.3386 29.9571C32.3386 29.3176 31.8264 28.7944 31.2003 28.7944ZM11.4504 33.5612H31.2003C31.8264 33.5612 32.3387 34.0844 32.3387 34.7239C32.3387 35.3634 31.8264 35.8866 31.2003 35.8866H11.4504C10.8243 35.8866 10.3121 35.3634 10.3121 34.7239C10.3121 34.0844 10.8243 33.5612 11.4504 33.5612ZM31.2003 38.3284H11.4504C10.8243 38.3284 10.3121 38.8516 10.3121 39.4911C10.3121 40.1306 10.8243 40.6538 11.4504 40.6538H31.2003C31.8264 40.6538 32.3387 40.1306 32.3387 39.4911C32.3387 38.8516 31.8264 38.3284 31.2003 38.3284Z" fill="url(#paint0_linear)"/>
<defs>
<linearGradient id="paint0_linear" x1="5.82004" y1="41.1086" x2="43.75" y2="0.532434" gradientUnits="userSpaceOnUse">
<stop stop-color="#FE4E00"/>
<stop offset="1" stop-color="#FF914B"/>
</linearGradient>
</defs>
</svg>
