<svg width="484" height="307" viewBox="0 0 484 307" fill="none" xmlns="http://www.w3.org/2000/svg">
<path d="M484 294.015C484 301.19 384.827 307 262.496 307C140.164 307 41 301.19 41 294.015C41 286.841 140.232 286 262.606 286C384.979 286 484 286.841 484 294.015Z" fill="#DDDDDD"/>
<path d="M183 295.252C183 301.743 147.181 307 102.998 307C58.8156 307 23 301.743 23 295.252C23 288.761 58.84 288 103.038 288C147.236 288 183 288.761 183 295.252Z" fill="#DDDDDD"/>
<path d="M136.655 118.453H394.923C401.862 118.453 407.619 112.101 407.619 104.119V14.897C407.619 6.91353 401.889 0.563613 394.951 0.563613H136.655C129.718 0.563613 123.988 6.91353 123.988 14.897V104.119C123.988 112.103 129.718 118.453 136.655 118.453Z" fill="white" stroke="#E2E2E2" stroke-width="1.12723"/>
<path fill-rule="evenodd" clip-rule="evenodd" d="M150 17C151.105 17 152 17.8452 152 18.8878V52.1122C152 53.1548 151.105 54 150 54C148.895 54 148 53.1548 148 52.1122V18.8878C148 17.8452 148.895 17 150 17Z" fill="#333333"/>
<path fill-rule="evenodd" clip-rule="evenodd" d="M144 44C144 42.8954 144.855 42 145.91 42L159.09 42C160.145 42 161 42.8954 161 44C161 45.1046 160.145 46 159.09 46H145.91C144.855 46 144 45.1046 144 44Z" fill="#333333"/>
<path fill-rule="evenodd" clip-rule="evenodd" d="M147.92 18.9139C147.92 17.8569 148.768 17 149.813 17H161.291C166.101 17 170 20.9416 170 25.8038V29.1962C170 34.0584 166.101 38 161.291 38H145.893C144.848 38 144 37.1431 144 36.0861C144 35.0291 144.848 34.1723 145.893 34.1723H161.291C164.01 34.1723 166.214 31.9444 166.214 29.1962V25.8038C166.214 23.0556 164.01 20.8277 161.291 20.8277H149.813C148.768 20.8277 147.92 19.9709 147.92 18.9139Z" fill="#333333"/>
<path d="M200.109 50.8408H207.464V103.176H200.109V50.8408Z" fill="#F0F0F0"/>
<path d="M218.385 61.4927H225.74V103.208H218.385V61.4927Z" fill="#F0F0F0"/>
<path d="M236.661 53.6709H244.016V103.208H236.661V53.6709Z" fill="#F0F0F0"/>
<path d="M254.937 69.1233H262.292V103.208H254.937V69.1233Z" fill="#F0F0F0"/>
<path d="M273.213 55.2607H280.568V103.208H273.213V55.2607Z" fill="#F0F0F0"/>
<path d="M291.489 48.043H298.844V103.208H291.489V48.043Z" fill="#F0F0F0"/>
<path d="M309.765 45.0225H317.12V103.177H309.765V45.0225Z" fill="#F0F0F0"/>
<path opacity="0.8" d="M200.109 70.3635H207.464V103.208H200.109V70.3635Z" fill="#FF6600"/>
<path opacity="0.8" d="M218.385 77.0408H225.74V103.209H218.385V77.0408Z" fill="#B0B0B0"/>
<path opacity="0.8" d="M236.661 72.1125H244.016V103.177H236.661V72.1125Z" fill="#FF6600"/>
<path opacity="0.8" d="M254.937 81.8101H262.292V103.209H254.937V81.8101Z" fill="#BDBDBD"/>
<path opacity="0.8" d="M273.213 73.1299H280.568V103.208H273.213V73.1299Z" fill="#FF6600"/>
<path opacity="0.8" d="M291.489 68.5833H298.844V103.177H291.489V68.5833Z" fill="#FF6600"/>
<path opacity="0.8" d="M309.765 66.707H317.12V103.208H309.765V66.707Z" fill="#FF6600"/>
<path d="M329.92 50.8408H337.275V103.176H329.92V50.8408Z" fill="#F0F0F0"/>
<path d="M348.196 61.4927H355.551V103.208H348.196V61.4927Z" fill="#F0F0F0"/>
<path d="M366.472 53.6709H373.827V103.208H366.472V53.6709Z" fill="#F0F0F0"/>
<path d="M384.748 69.1235H392.103V103.208H384.748V69.1235Z" fill="#F0F0F0"/>
<path opacity="0.8" d="M329.92 70.3635H337.275V103.208H329.92V70.3635Z" fill="#FF6600"/>
<path opacity="0.8" d="M348.196 77.0408H355.551V103.209H348.196V77.0408Z" fill="#BDBDBD"/>
<path opacity="0.8" d="M366.472 72.1125H373.827V103.177H366.472V72.1125Z" fill="#FF6600"/>
<path opacity="0.8" d="M384.748 81.8101H392.103V103.209H384.748V81.8101Z" fill="#BDBDBD"/>
<path opacity="0.9" d="M198.198 24.9911H389.906C391.116 24.9911 392.103 24.0054 392.103 22.7972V19.6812C392.103 18.473 391.116 17.4873 389.906 17.4873H198.198C196.989 17.4873 196.002 18.473 196.002 19.6812V22.7972C196.033 24.0054 196.989 24.9911 198.198 24.9911Z" fill="#009245"/>
<path d="M198.198 38.0276H389.906C391.116 38.0276 392.103 37.042 392.103 35.8337V32.7496C392.103 31.5413 391.116 30.5557 389.906 30.5557H198.198C196.989 30.5557 196.002 31.5413 196.002 32.7496V35.8655C196.033 37.0738 196.989 38.0276 198.198 38.0276Z" fill="#DEDEDE"/>
<rect x="163.978" y="133.122" width="55.541" height="39.6721" fill="#F4F4F4"/>
<path d="M236.27 141.293C236.27 140.189 237.165 139.293 238.27 139.293H281.876C282.981 139.293 283.876 140.189 283.876 141.293V172.794H236.27V141.293Z" fill="#EDEDED"/>
<path d="M236.27 141.293C236.27 140.189 237.165 139.293 238.27 139.293H243.322V172.794H236.27V141.293Z" fill="#C4C4C4"/>
<path d="M238.033 242.677C238.033 241.573 238.928 240.677 240.033 240.677H310.087C311.192 240.677 312.087 241.573 312.087 242.677V292.692H238.033V242.677Z" fill="#EDEDED"/>
<path d="M236.27 242.677C236.27 241.573 237.165 240.677 238.27 240.677H246.612C247.717 240.677 248.612 241.573 248.612 242.677V292.692H236.27V242.677Z" fill="#D4D4D4"/>
<rect x="118.991" y="172.794" width="2.64481" height="119.898" fill="#474747"/>
<rect x="390.55" y="172.794" width="2.64481" height="119.898" fill="#474747"/>
<rect x="148.991" y="172.794" width="244.204" height="7.05282" fill="#474747"/>
<rect x="319.14" y="195.716" width="65.2386" height="96.9763" fill="#EBEBEB"/>
<rect x="319.14" y="195.716" width="13.224" height="96.9763" fill="#D5D5D5"/>
<rect x="335.009" y="209.822" width="46.725" height="0.881603" fill="#AFAFAF"/>
<rect x="335.009" y="231.862" width="46.725" height="0.881603" fill="#AFAFAF"/>
<rect x="335.009" y="253.902" width="46.725" height="0.881603" fill="#AFAFAF"/>
<rect x="335.009" y="275.942" width="46.725" height="0.881603" fill="#AFAFAF"/>
<circle cx="358.372" cy="226.131" r="2.20401" fill="#AFAFAF"/>
<circle cx="358.372" cy="248.171" r="2.20401" fill="#AFAFAF"/>
<circle cx="358.372" cy="270.211" r="2.20401" fill="#AFAFAF"/>
<path d="M319.14 137.122C319.14 134.913 320.931 133.122 323.14 133.122H377.734C379.943 133.122 381.734 134.913 381.734 137.122V172.794H319.14V137.122Z" fill="#999999"/>
<path d="M320.903 136.885C320.903 135.781 321.799 134.885 322.903 134.885H377.971C379.075 134.885 379.971 135.781 379.971 136.885V169.031C379.971 170.136 379.075 171.031 377.971 171.031H322.903C321.799 171.031 320.903 170.136 320.903 169.031V136.885Z" fill="white"/>
<path fill-rule="evenodd" clip-rule="evenodd" d="M352.5 159.563C351.682 159.512 350.741 159.371 350.001 159.159C349.865 159.121 349.287 158.909 349.138 158.845C346.554 157.665 344.757 155.081 344.757 152.094C344.757 147.99 348.138 144.644 352.292 144.644C356.413 144.644 359.769 147.933 359.827 151.985H362.547C362.488 146.445 357.913 141.957 352.292 141.957C346.632 141.957 342.031 146.503 342.031 152.094C342.031 155.947 344.224 159.3 347.437 161.012C348.015 161.313 348.852 161.628 349.131 161.711C350.046 161.98 351.169 162.16 352.169 162.237C352.506 162.262 353.694 162.275 354.038 162.275H372.789V159.595H354.077C353.83 159.589 352.74 159.576 352.5 159.563ZM354.077 155.357C353.882 155.357 352.844 155.351 352.649 155.338C352.324 155.312 351.857 155.261 351.552 155.197C351.208 155.107 350.89 154.985 350.747 154.908C349.735 154.37 349.047 153.312 349.047 152.094C349.047 150.324 350.501 148.888 352.292 148.888C354.051 148.888 355.472 150.266 355.531 151.991H358.146C358.094 148.843 355.492 146.304 352.292 146.304C349.053 146.304 346.425 148.894 346.425 152.094C346.425 154.351 347.736 156.3 349.637 157.255C349.929 157.422 350.481 157.601 350.637 157.64C351.176 157.781 351.896 157.877 352.487 157.915C352.701 157.935 353.765 157.941 353.993 157.941V157.947H372.789V155.364H354.077V155.357ZM340.356 162.256H337.617V144.644H333.613V141.938H340.363V162.256H340.356ZM330.601 145.996V148.599H333.613V162.256H336.248V145.996H330.601Z" fill="#F24545"/>
<rect x="316.495" y="170.149" width="67.8834" height="2.64481" rx="1.3224" fill="#818181"/>
<rect x="163.978" y="135.767" width="55.541" height="7.93443" fill="#E2E2E2"/>
<rect x="163.978" y="160.452" width="55.541" height="3.52641" fill="#E2E2E2"/>
<rect x="163.978" y="145.464" width="35.2641" height="0.881603" fill="#E2E2E2"/>
<rect x="172.794" y="138.412" width="35.2641" height="0.881603" fill="#F4F4F4"/>
<rect x="174.557" y="148.991" width="44.9618" height="0.881603" fill="#E2E2E2"/>
<rect x="163.978" y="155.162" width="29.0929" height="1.76321" fill="#E2E2E2"/>
<rect x="163.978" y="166.623" width="35.2641" height="0.881603" fill="#E2E2E2"/>
<rect x="208.94" y="146.346" width="13.224" height="2.64481" fill="#F4F4F4"/>
<path d="M436.576 40.7098L442.648 58.6602L441.506 72.3638C445.328 73.8365 447.158 74.2681 451.239 74.6193C457.78 75.1521 465.753 74.7066 471.882 72.3638C470.227 62.1665 465.91 51.0659 464.345 40.7098C464.18 39.5642 463.378 39.2503 463.203 38.1047C463.058 37.6237 462.294 37.18 462.062 36.7344L436.576 40.7098Z" fill="#6D2309"/>
<path d="M402.492 91.5927L399.504 92.5092C399.332 92.5604 399.177 92.6574 399.056 92.7897C398.935 92.9221 398.852 93.0849 398.817 93.2607L397.9 98.063C397.883 98.3568 397.956 98.6489 398.108 98.9008C398.26 99.1527 398.485 99.3527 398.753 99.4744C402.419 101.124 404.251 101.436 405.168 101.307C405.471 101.256 405.781 101.256 406.084 101.307C407.001 101.509 407.404 102.224 408.614 102.755C408.846 102.874 409.112 102.906 409.365 102.847C409.619 102.773 409.833 102.602 409.961 102.37L411.794 98.952C411.857 98.839 411.897 98.7146 411.912 98.586C411.927 98.4574 411.916 98.3272 411.88 98.2028C411.844 98.0784 411.784 97.9623 411.704 97.8613C411.623 97.7602 411.523 97.6761 411.409 97.6139L407.477 95.4419L403.381 91.776C403.257 91.6781 403.112 91.6105 402.958 91.5786C402.804 91.5468 402.644 91.5516 402.492 91.5927Z" fill="#F9C6B9"/>
<path d="M403.253 96.1566C403.181 96.301 403.071 96.4237 402.936 96.5122C402.801 96.6007 402.645 96.6519 402.483 96.6606L398.24 97.073C397.979 97.0985 397.718 97.0192 397.515 96.8525C397.312 96.6858 397.184 96.4453 397.158 96.184C397.133 95.9228 397.212 95.662 397.379 95.4592C397.546 95.2564 397.786 95.1281 398.047 95.1026L402.291 94.6902C402.422 94.6789 402.554 94.6937 402.68 94.7337C402.805 94.7737 402.922 94.8382 403.022 94.9234C403.123 95.0086 403.205 95.1128 403.265 95.2301C403.325 95.3473 403.362 95.4753 403.372 95.6067C403.384 95.7975 403.343 95.9879 403.253 96.1566Z" fill="#E99084"/>
<path d="M403.033 95.3133C402.932 95.4966 402.776 95.6432 402.587 95.7321C402.397 95.821 402.185 95.8477 401.979 95.8082L397.791 95.0384C397.662 95.0143 397.538 94.9646 397.428 94.8923C397.318 94.82 397.224 94.7265 397.151 94.6173C397.077 94.5081 397.026 94.3853 397.001 94.2562C396.976 94.127 396.976 93.9942 397.003 93.8653C397.026 93.7372 397.074 93.615 397.145 93.5058C397.216 93.3966 397.308 93.3026 397.415 93.2293C397.523 93.1559 397.644 93.1047 397.771 93.0786C397.899 93.0524 398.03 93.0519 398.158 93.0771L402.346 93.8653C402.603 93.9142 402.831 94.0632 402.979 94.2797C403.126 94.4962 403.182 94.7624 403.134 95.02C403.114 95.122 403.08 95.2208 403.033 95.3133Z" fill="#E99084"/>
<path d="M402.73 98.0904C402.658 98.2348 402.548 98.3575 402.413 98.446C402.278 98.5345 402.122 98.5857 401.961 98.5944L398.753 98.906C398.495 98.9233 398.241 98.8393 398.045 98.6719C397.848 98.5046 397.725 98.2671 397.701 98.0101C397.677 97.7531 397.755 97.497 397.917 97.2963C398.079 97.0955 398.313 96.9661 398.57 96.9356L401.768 96.6148C401.9 96.6023 402.032 96.6162 402.158 96.6557C402.284 96.6952 402.401 96.7596 402.502 96.845C402.603 96.9305 402.685 97.0352 402.745 97.153C402.805 97.2709 402.84 97.3995 402.849 97.5313C402.864 97.7252 402.822 97.919 402.73 98.0904Z" fill="#E99084"/>
<path d="M402.73 93.0406C402.667 93.1544 402.582 93.2547 402.48 93.3356C402.378 93.4166 402.261 93.4767 402.136 93.5124C402.011 93.5482 401.88 93.5589 401.751 93.544C401.622 93.5291 401.497 93.4888 401.383 93.4255L394.436 89.6221C394.234 89.4857 394.089 89.2795 394.03 89.0431C393.97 88.8066 394 88.5566 394.114 88.3408C394.227 88.1251 394.417 87.9588 394.645 87.8739C394.874 87.7891 395.126 87.7915 395.352 87.8808L402.299 91.6934C402.417 91.7525 402.522 91.8345 402.607 91.9346C402.693 92.0347 402.758 92.151 402.798 92.2764C402.838 92.4019 402.853 92.5341 402.841 92.6653C402.829 92.7966 402.792 92.9241 402.73 93.0406Z" fill="#E99084"/>
<path d="M405.48 94.9651C405.42 95.0618 405.35 95.151 405.269 95.2308C405.07 95.4022 404.813 95.4894 404.551 95.474C404.289 95.4586 404.044 95.3418 403.867 95.1484L402.602 93.7278L400.448 94.296L400.073 96.9355C400.036 97.1956 399.898 97.4305 399.688 97.5886C399.478 97.7467 399.215 97.8151 398.954 97.7786C398.694 97.7422 398.459 97.6039 398.301 97.3942C398.143 97.1845 398.075 96.9206 398.111 96.6605L398.579 93.3704C398.605 93.178 398.688 92.9978 398.817 92.8526C398.946 92.7074 399.115 92.6037 399.303 92.5547L402.685 91.6383C402.861 91.5914 403.048 91.5948 403.223 91.6483C403.397 91.7017 403.554 91.803 403.674 91.9407L405.342 93.7736C405.492 93.9298 405.587 94.1309 405.612 94.3462C405.637 94.5614 405.59 94.7788 405.48 94.9651Z" fill="#F9C6B9"/>
<path d="M405.728 98.576C405.683 98.6531 405.617 98.7151 405.537 98.7543C405.457 98.7935 405.367 98.808 405.279 98.796C404.838 98.7176 404.417 98.5528 404.039 98.3111C403.662 98.0695 403.337 97.7557 403.081 97.3878C402.826 97.0199 402.645 96.6051 402.551 96.1674C402.456 95.7296 402.449 95.2774 402.529 94.8368C402.541 94.7226 402.598 94.6178 402.688 94.5457C402.777 94.4735 402.892 94.4397 403.006 94.4519C403.12 94.464 403.225 94.5211 403.297 94.6105C403.369 94.6998 403.403 94.8142 403.391 94.9285C403.316 95.2569 403.308 95.597 403.368 95.9284C403.428 96.2599 403.554 96.5759 403.739 96.8574C403.924 97.139 404.163 97.3803 404.444 97.567C404.724 97.7536 405.039 97.8817 405.37 97.9437C405.426 97.9526 405.48 97.9725 405.528 98.0022C405.577 98.0319 405.619 98.0709 405.652 98.1169C405.685 98.1628 405.709 98.2149 405.722 98.2701C405.735 98.3253 405.737 98.3826 405.728 98.4385C405.734 98.4841 405.734 98.5304 405.728 98.576Z" fill="#E99084"/>
<path d="M406.782 102.416L422.582 110.078L426.77 112.112L431.352 114.348L436.329 116.777L438.345 117.694C437.453 113.111 436.558 108.529 435.66 103.946L434.377 103.58L427.311 101.555L420.492 99.6024L409.412 95.6982L406.782 102.416Z" fill="#009245"/>
<path d="M426.779 112.112L431.361 114.349L436.328 116.777H436.539L434.339 103.58L427.273 101.555C426.358 104.988 426.177 108.577 426.742 112.085L426.779 112.112Z" fill="#007233"/>
<path d="M432.91 97.5314C432.298 100.238 431.99 103.005 431.994 105.78C431.994 107.136 432.049 108.199 432.131 109.116C432.461 112.781 432.837 115.412 432.91 115.861C433.332 118.445 433.396 124.412 431.994 138.773C431.765 140.202 430.353 149.853 436.576 156.186C444.779 164.516 461.843 162.647 466.82 153.436C470.147 147.296 466.82 139.689 465.903 137.856C465.5 136.665 465.106 135.437 464.73 134.19C463.814 131.258 463.108 128.426 462.494 125.704C461.797 121.515 462.1 115.962 462.952 110.014C462.957 109.986 462.957 109.959 462.952 109.931C463.88 103.817 465.122 97.7537 466.673 91.7667C469.496 80.6408 472.566 71.6043 472.566 71.6043C469.511 70.4435 466.371 69.304 463.145 68.1859C462.008 67.7918 460.872 67.3977 459.735 67.022L446.905 67.9384C439.307 70.0647 438.592 70.6879 437.483 71.8518C436.743 72.6746 436.125 73.6008 435.651 74.6012C434.724 76.9268 434.409 79.4509 434.734 81.933C433.72 83.0783 432.8 84.3043 431.985 85.5989C430.106 88.5866 428.814 90.6303 429.235 92.9307C429.657 95.231 431.609 96.7798 432.91 97.5314Z" fill="#009245"/>
<path d="M451.578 114.944C451.259 121.67 451.452 128.41 452.156 135.107C452.257 135.455 452.357 135.812 452.449 136.17C454.224 142.997 454.746 150.089 453.989 157.102C456.567 155.736 459.354 154.806 462.237 154.353C467.003 153.62 469.23 154.664 470.485 153.436C471.741 152.208 471.814 148.35 465.903 137.856C465.5 136.665 465.106 135.437 464.73 134.19C463.813 131.258 463.108 128.426 462.494 125.704C461.797 121.515 462.1 115.962 462.952 110.014V109.931C463.658 103.672 466.16 97.0365 471.393 90.2088C469.523 86.0969 467.647 81.985 465.765 77.873C465.765 77.873 463.401 93.6272 453.32 98.2096C451.218 98.7693 449.006 98.7693 446.904 98.2096C448.626 99.858 450.632 101.181 452.825 102.114C452.238 106.064 451.789 110.362 451.578 114.944Z" fill="#007233"/>
<path d="M437.951 78.7712C439.238 77.9457 440.463 77.0267 441.616 76.0218C443.164 74.6852 444.578 73.2028 445.841 71.5952" stroke="#286004" stroke-width="0.5" stroke-miterlimit="10" stroke-linecap="round"/>
<path d="M448.242 68.3783C448.142 70.3854 448.838 71.2011 449.159 71.4943C450.836 73.0707 455.061 72.2825 459.24 68.7449C459.405 64.1503 459.573 59.568 459.744 54.9978V54.3013L459.808 52.9632L459.946 49.8381L449.113 49.0774L448.682 59.3969L448.417 65.6472C448.343 66.5362 448.242 67.4618 448.242 68.3783Z" fill="#F9C6B9"/>
<path d="M448.407 67.0311C452.401 64.5908 455.359 60.7683 456.72 56.29L448.673 59.7085L448.407 67.0311Z" fill="#DB7C6F"/>
<path d="M440.205 39.2434C439.234 44.8706 438.482 49.2696 439.921 53.7328C440.425 55.2817 442.24 61.0096 446.4 62.0361C450.561 63.0625 456.289 59.0392 459.937 51.7074L460.853 39.6833L452.724 33.6804L441.25 34.3769C440.911 35.5317 440.553 37.1997 440.205 39.2434Z" fill="#F9C6B9"/>
<path d="M436.42 44.2567C436.42 44.7333 436.512 45.1732 436.576 45.6497C437.03 48.6379 438.159 51.4835 439.875 53.9713C439.514 52.0692 439.303 50.1418 439.243 48.2067C439.059 42.8178 439.848 42.048 440.159 41.7914C441.186 41.0857 442.661 41.4981 443.688 41.7914C445.14 42.199 446.467 42.9648 447.546 44.0184C449.113 45.7414 452.321 47.6018 459.534 48.1792L463.502 48.1242C464.811 45.9844 465.552 43.5461 465.656 41.0399C465.685 39.9805 465.549 38.923 465.252 37.9056C465.252 37.8047 465.188 37.7039 465.151 37.6031C465.006 37.1221 464.816 36.6557 464.583 36.2101C461.751 30.5279 453.861 27.7602 447.537 29.1532C441.378 30.5096 438.07 35.4952 437.254 36.8149C436.498 39.2185 436.215 41.7455 436.42 44.2567Z" fill="#6D2309"/>
<path d="M447.656 47.7852H447.665C448.217 47.7852 448.664 48.2324 448.664 48.7841V49.5906C448.664 50.1423 448.217 50.5896 447.665 50.5896H447.656C447.105 50.5896 446.657 50.1423 446.657 49.5906V48.7841C446.657 48.2324 447.105 47.7852 447.656 47.7852Z" fill="#333333"/>
<path d="M441.049 47.7852H441.058C441.498 47.7852 441.855 48.1421 441.855 48.5825V49.7922C441.855 50.2326 441.498 50.5896 441.058 50.5896H441.049C440.608 50.5896 440.252 50.2326 440.252 49.7922V48.5825C440.252 48.1421 440.608 47.7852 441.049 47.7852Z" fill="#333333"/>
<path d="M458.324 54.5398C458.503 54.743 458.723 54.9067 458.969 55.0203C459.215 55.1339 459.483 55.195 459.754 55.1996L459.818 53.6233L458.764 53.0093L457.847 53.2292C457.836 53.7104 458.006 54.1783 458.324 54.5398Z" fill="#EA8C8C"/>
<path d="M458.213 50.168C457.663 51.3594 457.297 53.4948 458.342 54.1821C459.176 54.7503 460.679 54.0263 461.43 53.449C462.078 52.934 462.56 52.2389 462.814 51.451C463.057 50.9604 463.191 50.423 463.207 49.8756C463.223 49.3282 463.12 48.7839 462.906 48.28C462.585 47.6935 461.843 46.8503 461.073 46.9237C460.505 46.9878 460.055 47.6019 459.157 48.8483C458.802 49.258 458.486 49.6998 458.213 50.168Z" fill="#F9C6B9"/>
<path d="M459.589 49.7097C459.589 50.3971 460.331 50.6262 460.295 51.2677C460.258 51.9093 459.561 52.23 459.717 52.5691C459.873 52.9082 460.285 52.8166 460.331 52.8166C460.53 52.7928 460.722 52.7275 460.894 52.6249C461.066 52.5223 461.215 52.3846 461.33 52.2209C461.646 51.8705 461.872 51.4492 461.99 50.9928C462.131 50.7077 462.204 50.3942 462.204 50.0763C462.204 49.7585 462.131 49.4449 461.99 49.1598C461.841 48.9609 461.645 48.8023 461.419 48.6982C461.194 48.5942 460.946 48.5481 460.698 48.5641C460.411 48.602 460.145 48.7358 459.944 48.9438C459.743 49.1517 459.617 49.4217 459.589 49.7097Z" fill="#DB7C6F"/>
<path d="M459.415 55.896C458.883 55.896 458.453 55.3215 458.453 54.6129C458.453 53.9043 458.883 53.3298 459.415 53.3298C459.946 53.3298 460.377 53.9043 460.377 54.6129C460.377 55.3215 459.946 55.896 459.415 55.896Z" fill="#F15A24"/>
<path d="M424.973 111.279C424.725 111.572 410.419 104.222 410.419 104.222" stroke="#286004" stroke-width="0.5" stroke-miterlimit="10" stroke-linecap="round"/>
<path d="M445.292 46.6303C445.565 46.6275 445.837 46.606 446.107 46.5661C446.373 46.5661 446.639 46.4836 446.896 46.4286C447.504 46.3449 448.12 46.3449 448.728 46.4286C449.286 46.5755 449.852 46.6858 450.424 46.7586C450.708 46.7586 451.001 46.8227 451.295 46.8319C451.6 46.8561 451.906 46.8561 452.211 46.8319C451.965 46.6647 451.708 46.5147 451.441 46.3828C451.178 46.2545 450.913 46.1354 450.644 46.0254C450.108 45.8123 449.561 45.6317 449.003 45.4847C448.249 45.3515 447.472 45.4407 446.767 45.7413C446.529 45.8696 446.3 45.9979 446.071 46.1445C445.798 46.2846 445.537 46.4471 445.292 46.6303Z" fill="#6D2309"/>
<path d="M442.176 46.3738C441.8 46.2271 441.424 46.108 441.048 45.9705C440.673 45.833 440.297 45.7322 439.921 45.6223C439.558 45.4545 439.172 45.3433 438.775 45.2923C438.574 45.2701 438.372 45.2701 438.171 45.2923C437.951 45.3251 437.738 45.3899 437.538 45.4848C437.53 45.4969 437.526 45.5113 437.526 45.526C437.526 45.5407 437.53 45.5551 437.538 45.5673C437.695 45.7238 437.874 45.8566 438.07 45.9613C438.244 46.0627 438.428 46.1456 438.62 46.2088C439.006 46.3051 439.405 46.3422 439.802 46.3188C440.187 46.3188 440.581 46.3371 440.984 46.3738C441.378 46.3738 441.772 46.3738 442.176 46.3738V46.3279C442.176 46.3279 442.194 46.3738 442.176 46.3738Z" fill="#6D2309"/>
<path d="M444.237 54.567C444.923 54.5494 445.589 54.3398 446.162 53.9622L445.786 53.4123C445.471 53.6245 445.115 53.769 444.741 53.8369C444.367 53.9047 443.984 53.8943 443.614 53.8064C443.28 53.6795 442.97 53.4966 442.697 53.2656L442.844 53.0457C443.28 52.4681 443.592 51.8066 443.761 51.1028C443.983 49.6101 443.895 48.0878 443.504 46.6304L442.872 46.8228C443.229 48.1798 443.31 49.5947 443.11 50.9836C442.96 51.5979 442.685 52.175 442.303 52.6791C442.184 52.8441 442.083 52.9999 441.992 53.1557L441.873 53.3664L442.038 53.5497C442.438 53.9562 442.923 54.2692 443.458 54.4662C443.712 54.5347 443.974 54.5686 444.237 54.567Z" fill="#DB7C6F"/>
<path d="M445.365 57.7015C445.888 57.6988 446.408 57.6311 446.914 57.4998C447.596 57.324 448.241 57.0293 448.82 56.6292C448.848 56.6124 448.872 56.5901 448.891 56.5637C448.91 56.5372 448.923 56.5072 448.93 56.4755C448.937 56.4437 448.937 56.4109 448.931 56.379C448.925 56.3471 448.912 56.3169 448.893 56.2901C448.856 56.2352 448.799 56.1969 448.734 56.1832C448.669 56.1696 448.601 56.1816 448.545 56.2168C448.013 56.5833 447.421 56.8532 446.795 57.0141C445.851 57.261 444.86 57.261 443.917 57.0141C443.853 57 443.785 57.0112 443.729 57.0453C443.673 57.0794 443.632 57.1339 443.615 57.1974C443.606 57.2293 443.605 57.2625 443.609 57.2951C443.614 57.3277 443.626 57.359 443.643 57.3871C443.66 57.4153 443.682 57.4398 443.709 57.4591C443.736 57.4785 443.766 57.4923 443.798 57.4998C444.31 57.6304 444.836 57.6982 445.365 57.7015Z" fill="#DB7C6F"/>
<path fill-rule="evenodd" clip-rule="evenodd" d="M451.202 186.842C451.523 189.298 451.844 191.662 452.119 193.788C452.403 195.777 452.669 197.564 452.916 199.067L454.153 206.592L455.006 211.852C455.4 214.29 455.794 216.719 456.197 219.184C456.197 219.312 456.243 219.45 456.261 219.578C459.396 238.76 462.567 257.914 465.481 276.94L465.096 277.472C464.823 278.593 464.627 279.732 464.51 280.881C464.262 283.035 465.307 294.454 465.307 294.454L469.889 297.771L474.82 296.617L474.985 294.784L473.894 290.431C473.894 290.431 471.86 279.726 471.75 278.434C470.833 267.739 472.602 243.223 471.026 218.863C471.026 218.506 470.98 218.148 470.952 217.791C470.797 215.509 470.613 213.209 470.384 210.982C470.247 209.506 470.082 208.04 469.908 206.582C469.541 203.402 469.083 200.268 468.533 197.207C468.505 196.902 468.505 196.595 468.533 196.29C468.533 195.667 468.625 194.797 468.716 193.733C468.89 191.901 469.174 189.454 469.495 186.787L451.202 186.842Z" fill="#F9C6B9"/>
<path fill-rule="evenodd" clip-rule="evenodd" d="M452.147 193.761C452.431 195.75 452.697 197.537 452.944 199.04L454.154 206.592L455.006 211.852C460.132 211.822 465.252 211.535 470.348 210.991C470.211 209.515 470.046 208.049 469.872 206.592C469.505 203.411 469.047 200.277 468.497 197.216C468.469 196.911 468.469 196.604 468.497 196.3V196.208C468.448 195.381 468.516 194.551 468.698 193.743L452.147 193.761Z" fill="#DB7C6F"/>
<path fill-rule="evenodd" clip-rule="evenodd" d="M427.283 294.775L429.116 296.709L433.056 296.241L442.157 282.375L440.911 275.428C440.759 275.023 440.643 274.606 440.562 274.182C440.892 259.133 444.448 239.356 444.54 220.046V219.523C444.54 216.975 444.485 214.437 444.338 211.926C444.283 210.762 444.201 209.607 444.1 208.452C443.843 205.336 443.449 202.266 442.899 199.287C442.864 198.659 442.904 198.028 443.019 197.409C443.019 197.097 443.101 196.749 443.156 196.373C443.486 194.036 444.072 190.59 444.815 186.878H428.217C428.355 190.315 428.511 193.587 428.667 196.373C428.667 196.731 428.667 197.07 428.722 197.409C428.786 198.398 428.841 199.315 428.896 200.158C429.088 202.908 429.271 205.712 429.464 208.507V208.883C429.592 210.808 429.73 212.75 429.858 214.693C429.913 215.454 429.968 216.206 430.014 216.966C431.297 236.02 432.461 255.513 432.516 274.172C432.516 280.02 432.91 287.498 432.204 289.597C430.994 293.171 429.812 293.473 429.812 293.473L428.41 293.95C427.164 293.922 427.283 294.775 427.283 294.775Z" fill="#F9C6B9"/>
<path fill-rule="evenodd" clip-rule="evenodd" d="M428.667 196.336C428.667 196.694 428.667 197.033 428.722 197.372C428.786 198.362 428.841 199.278 428.896 200.121C429.089 202.871 429.272 205.675 429.464 208.47V208.846C433.863 209.946 438.858 211.027 444.339 211.944C444.284 210.78 444.201 209.625 444.1 208.47C443.844 205.354 443.45 202.284 442.9 199.306C442.864 198.677 442.904 198.046 443.019 197.427C443.019 197.115 443.102 196.767 443.156 196.391L428.667 196.336Z" fill="#DB7C6F"/>
<path fill-rule="evenodd" clip-rule="evenodd" d="M434.186 132.796C433.011 132.585 431.872 133.396 431.734 134.582C430.894 141.783 430.064 148.984 429.244 156.186C427.484 171.65 425.78 187.055 424.13 202.403C424.141 202.681 424.252 202.946 424.442 203.15C424.632 203.353 424.889 203.482 425.166 203.512C426.21 203.741 448.902 210.734 473.317 203.136C473.656 202.458 473.995 201.78 474.325 201.102C475.925 180.403 473.691 159.587 467.736 139.698C466.999 137.25 466.207 134.862 465.378 132.537C465.138 131.864 464.552 131.378 463.84 131.323C461.609 131.151 456.207 131.069 448.358 133.117C443.95 134.267 437.523 133.394 434.186 132.796Z" fill="#202023"/>
<path fill-rule="evenodd" clip-rule="evenodd" d="M444.339 279.964C444.339 279.964 445.411 280.313 445.081 282.558C444.751 284.803 443.065 286.224 443.065 290.687V299.155C443.065 299.155 443.065 300.072 442.524 300.072H442.139C441.901 300.072 441.681 299.843 441.681 299.155V289.716C441.681 288.304 441.131 285.537 440.59 285.032C440.05 284.528 444.339 279.964 444.339 279.964Z" fill="#E34400"/>
<path fill-rule="evenodd" clip-rule="evenodd" d="M440.911 275.428C442.811 276.565 444.356 278.209 445.374 280.175C445.425 280.383 445.414 280.601 445.34 280.802C445.267 281.003 445.135 281.177 444.962 281.302C444.347 281.761 440.315 285.408 439.527 287.763C438.739 290.119 437.465 294.765 436.924 296.589C436.383 298.413 435.247 300.072 433.231 300.072H422.673C420.657 300.072 421.344 298.239 422.792 297.322C424.24 296.406 427.439 294.06 427.851 293.886C428.263 293.711 428.438 293.886 428.438 293.886C428.438 293.886 427.988 294.096 428.135 294.481C428.282 294.866 429.363 294.665 430.426 294.665C431.173 294.644 431.898 294.407 432.513 293.983C433.128 293.558 433.607 292.964 433.891 292.273C434.697 290.44 437.813 281.046 438.106 280.175C438.4 279.304 440.443 277.471 440.911 275.428Z" fill="#E34400"/>
<path fill-rule="evenodd" clip-rule="evenodd" d="M473.858 290.476C474.267 291.641 474.76 292.775 475.334 293.867C476.289 294.969 477.182 296.122 478.01 297.322C478.303 298.01 478.871 300.072 476.589 300.072H468.405C466.224 300.072 464.382 299.385 464.364 297.322C464.345 295.26 464.189 288.103 463.887 286.545C463.585 284.987 462.833 283.218 463.2 281.687C463.649 280.141 464.263 278.648 465.033 277.233C465.163 277.084 465.322 276.962 465.5 276.876L465.262 278.232C465.18 278.554 465.127 278.882 465.106 279.213C464.904 281.449 465.738 291.567 465.738 292.419C465.738 293.272 466.655 293.803 468.24 294.252C469.826 294.701 473.198 295.105 474.454 293.904C474.523 293.818 474.568 293.714 474.584 293.605C474.6 293.495 474.587 293.383 474.546 293.281L473.858 290.476Z" fill="#E34400"/>
<ellipse cx="457.265" cy="30.5679" rx="4.79627" ry="4.56788" fill="#6D2309"/>
<path d="M434.142 72.6196H412.99C412.774 72.6212 412.562 72.673 412.371 72.7707C412.179 72.8685 412.014 73.0094 411.888 73.1819C411.763 73.3545 411.68 73.5539 411.648 73.7638C411.615 73.9738 411.634 74.1883 411.701 74.3899L420.444 106.967C420.533 107.234 420.706 107.467 420.937 107.632C421.169 107.796 421.447 107.885 421.733 107.884H442.893C443.108 107.883 443.321 107.833 443.512 107.736C443.704 107.639 443.869 107.499 443.995 107.327C444.121 107.155 444.203 106.956 444.236 106.746C444.268 106.537 444.25 106.322 444.182 106.121L435.431 73.5518C435.345 73.2817 435.174 73.0457 434.942 72.8781C434.71 72.7104 434.43 72.6199 434.142 72.6196Z" fill="#333333"/>
<path d="M450.423 102.342C448.704 100.539 446.876 98.863 444.95 97.3255C443.681 96.2895 442.314 95.4014 440.873 94.6759C440.112 94.2274 439.283 93.9284 438.426 93.7927C437.912 93.7397 437.146 93.7927 434.349 94.6759C433.606 94.9232 432.97 95.1528 432.457 95.3471C432.289 95.4101 432.146 95.5304 432.047 95.6897C431.948 95.8491 431.9 96.0388 431.91 96.2303C431.93 96.4493 431.971 96.6655 432.033 96.8751C432.199 97.3427 432.43 97.7804 432.718 98.1734C433.362 99.3039 433.06 99.825 433.533 100.823C433.9 101.577 434.468 102.192 435.164 102.59C435.882 102.828 437.015 103.164 438.426 103.473C440.547 103.95 441.794 104.011 444.135 104.356C445.277 104.533 446.965 104.806 449.028 105.239L450.423 102.342Z" fill="#F9C6B9"/>
<path d="M472.538 71.8182C472.538 71.8182 483.584 92.8675 482.006 117.155C482.006 117.155 481.612 122.418 473.722 120.798L446.896 105.416L449.263 100.559C449.263 100.559 465.832 105.416 470.566 107.035C470.566 107.035 464.254 92.4628 465.832 78.6997C465.903 78.384 467.41 72.385 471.126 71.7859C471.595 71.7126 472.073 71.7236 472.538 71.8182Z" fill="#009245"/>
<path d="M481.069 102.594C481.288 106.595 481.303 110 481.258 112.624C481.182 117.186 480.925 118.848 479.743 119.956C478.334 121.284 476.289 121.187 475.108 120.999" stroke="#286004" stroke-width="0.5" stroke-miterlimit="10" stroke-linecap="round"/>
<path d="M447.778 106.121L461.002 113.173" stroke="#286004" stroke-width="0.5" stroke-miterlimit="10" stroke-linecap="round"/>
<path d="M468.641 99.9493C468.578 99.9475 468.517 99.9322 468.468 99.9055C468.418 99.8787 468.382 99.842 468.365 99.8005C462.198 82.6489 467.56 76.4931 467.79 76.2425C467.828 76.198 467.891 76.1657 467.964 76.1525C468.038 76.1393 468.116 76.1463 468.181 76.172C468.245 76.2009 468.291 76.2455 468.308 76.2965C468.325 76.3476 468.313 76.4011 468.273 76.4461C468.273 76.4461 466.893 78.0125 466.294 81.6386C465.731 84.9906 465.742 90.8409 468.929 99.7065C468.938 99.7317 468.939 99.7578 468.932 99.7833C468.926 99.8088 468.912 99.8331 468.892 99.855C468.871 99.8768 468.845 99.8957 468.814 99.9105C468.783 99.9254 468.748 99.9359 468.71 99.9414L468.641 99.9493Z" fill="#286004"/>
<rect x="418.685" y="71.738" width="8.81603" height="1.76321" rx="0.881603" fill="#9B9B9B"/>
<rect x="256.546" y="144.583" width="15.8689" height="3.52641" rx="1.76321" fill="#C4C4C4"/>
<rect x="270.652" y="252.138" width="19.3953" height="3.52641" rx="1.76321" fill="#C4C4C4"/>
<rect x="263.599" y="162.215" width="16.7505" height="7.93443" fill="white"/>
<rect x="234.506" y="237.151" width="78.4627" height="7.93443" fill="#EDEDED"/>
<rect x="236.27" y="245.086" width="75.8178" height="0.881603" fill="#AFAFAF"/>
<path d="M169.356 84.1347C170.929 87.2527 171.389 90.7661 170.667 94.1505C169.945 97.5349 168.079 100.609 165.348 102.913C162.618 105.217 159.168 106.629 155.515 106.936C151.862 107.244 148.201 106.431 145.079 104.62C141.957 102.808 139.541 100.095 138.192 96.8853C136.843 93.6754 136.633 90.1409 137.593 86.8094C138.554 83.478 140.634 80.5283 143.522 78.4006C146.41 76.273 149.952 75.0815 153.619 75.004L154 91L169.356 84.1347Z" fill="#1A9D58"/>
<path d="M38.6589 164.571L47.3701 225H108L99.1243 163.429C98.8405 161.461 97.1539 160 95.1652 160H42.618C40.1817 160 38.3113 162.159 38.6589 164.571Z" fill="#944040"/>
<path d="M46 186L50 217" stroke="#484848"/>
<path d="M88.4574 226.83L84.6888 226.201L72.419 299.688L76.1876 300.318L88.4574 226.83Z" fill="#1C1C1C"/>
<rect width="3.82076" height="74.5047" transform="matrix(-0.973637 0.228104 0.228104 0.973637 126.864 225.875)" fill="#1C1C1C"/>
<rect width="3.82076" height="74.5047" transform="matrix(-0.985967 -0.166942 -0.166942 0.985967 51.2051 226.513)" fill="#1C1C1C"/>
<rect width="3.82076" height="74.5047" transform="matrix(-0.99317 0.116678 0.116678 0.99317 96.0026 225.875)" fill="#1C1C1C"/>
<path d="M130 221.75C130 221.75 104.659 216.966 88 217C71.7165 217.034 46 221.75 46 221.75V236H130V221.75Z" fill="#944040"/>
<path d="M104.5 168.5C108.639 163.565 112.618 162.882 113 162.5C102 141.5 94.3432 132.186 91 125.5L88.9351 143.729L104.5 168.5Z" fill="#E57607"/>
<path d="M98.0094 142.774C99.1239 144.843 100.207 149.556 95.6212 151.849" stroke="#286004" stroke-width="0.5" stroke-linecap="round"/>
<path d="M75.1137 170.846C75.4575 178.047 75.2499 185.264 74.4928 192.434L74.1776 193.57C72.2889 200.868 71.7323 208.446 72.5347 215.941C69.777 214.484 66.7985 213.49 63.7183 212.999C58.6271 212.216 56.2487 213.343 54.9019 212.044C53.5551 210.745 53.4882 206.609 59.802 195.395C60.2319 194.115 60.6521 192.806 61.0533 191.459C62.0085 188.326 62.7918 185.298 63.4413 182.395C64.1863 177.915 63.8616 171.983 62.9541 165.622V165.536C62.1995 158.849 59.525 151.752 53.9276 144.455L59.9453 131.273C59.9453 131.273 62.4957 148.084 73.2415 152.984C75.4881 153.585 77.8532 153.585 80.0998 152.984C78.2649 154.742 76.1297 156.155 73.7955 157.159C74.4069 161.361 74.9131 165.937 75.1137 170.846Z" fill="#E57607"/>
<path d="M75.172 167.206C77.4571 165.583 79.8515 164.12 82.338 162.826C83.974 161.937 85.7028 161.23 87.4933 160.718C88.4453 160.364 89.4551 160.192 90.4706 160.209C91.0741 160.243 91.9521 160.378 95.0464 161.877C95.857 162.262 96.5543 162.63 97.1187 162.92C97.3021 163.017 97.4488 163.171 97.5368 163.359C97.6248 163.547 97.6492 163.758 97.6064 163.961C97.5488 164.192 97.4658 164.416 97.3591 164.629C97.0901 165.1 96.7539 165.531 96.361 165.906C95.4218 166.989 95.6842 167.609 94.9823 168.593C94.4253 169.325 93.669 169.88 92.8043 170.192C91.9264 170.308 90.5684 170.467 88.8829 170.556C86.3419 170.679 84.8952 170.534 82.129 170.487C80.7703 170.462 78.7804 170.456 76.3193 170.562L75.172 167.206Z" fill="#F9C6B9"/>
<path d="M71.7418 166.176L54.0708 169.041" stroke="#286004" stroke-width="0.5" stroke-miterlimit="10" stroke-linecap="round"/>
<path d="M57.8247 157.426C57.8727 157.427 57.9198 157.413 57.9592 157.385C57.9986 157.358 58.0284 157.319 58.0444 157.273C63.7755 138.494 60.1363 131.426 59.9548 131.13C59.9418 131.105 59.924 131.083 59.9025 131.066C59.8809 131.048 59.8561 131.035 59.8295 131.027C59.8028 131.019 59.7748 131.016 59.7472 131.019C59.7195 131.022 59.6926 131.03 59.6682 131.044C59.633 131.078 59.6101 131.123 59.6032 131.171C59.5962 131.219 59.6057 131.269 59.63 131.311C60.3956 133.169 60.7945 135.157 60.8049 137.167C60.9768 140.94 60.5852 147.444 57.6241 157.101C57.6152 157.129 57.6119 157.158 57.6143 157.187C57.6167 157.216 57.6248 157.244 57.6381 157.27C57.6514 157.295 57.6697 157.318 57.6919 157.337C57.7141 157.356 57.7397 157.37 57.7674 157.378L57.8247 157.426Z" fill="#286004"/>
<path d="M141.482 293.64C141.985 294.241 142.636 294.701 143.371 294.973C143.583 294.982 143.789 295.048 143.967 295.164C144.145 295.28 144.289 295.442 144.383 295.632C144.524 296.277 144.613 296.932 144.651 297.591C144.651 297.591 140.305 298.842 138.509 298.24C136.713 297.638 131.717 284.361 130.619 281.811C130.281 281.136 130.105 280.392 130.105 279.638C130.105 278.883 130.281 278.139 130.619 277.465L130.964 267.903L136.703 268.381C136.703 268.381 138.853 274.571 139.101 277.369C139.349 280.168 139.808 288.679 140.505 291.544C140.643 292.316 140.979 293.038 141.482 293.64Z" fill="#F9C6B9"/>
<path fill-rule="evenodd" clip-rule="evenodd" d="M127.18 281.763C127.18 281.763 126.091 282.097 126.425 284.227C126.76 286.357 128.488 287.733 128.488 291.935V299.959C128.488 299.959 128.431 300.857 129.033 300.857H129.425C129.663 300.857 129.883 300.647 129.883 299.949V291.018C129.883 289.672 130.447 287.054 131.001 286.577C131.555 286.099 127.18 281.763 127.18 281.763Z" fill="#202023"/>
<path fill-rule="evenodd" clip-rule="evenodd" d="M130.638 277.465C128.727 278.53 127.153 280.108 126.091 282.021C126.036 282.221 126.047 282.433 126.122 282.626C126.198 282.819 126.335 282.982 126.511 283.091C127.142 283.52 131.24 286.978 132.042 289.213C132.844 291.449 134.143 295.9 134.688 297.581C135.232 299.262 136.445 300.905 138.509 300.905H149.264C151.318 300.905 150.62 299.176 149.14 298.288C147.659 297.399 144.421 295.193 143.991 295.04C143.562 294.887 143.39 295.04 143.39 295.04C143.39 295.04 143.858 295.25 143.705 295.613C143.552 295.976 142.454 295.785 141.365 295.785C140.625 295.772 139.903 295.554 139.281 295.154C138.658 294.754 138.159 294.189 137.84 293.521C137.019 291.812 133.847 282.861 133.542 282.059C133.236 281.257 131.154 279.404 130.638 277.465Z" fill="#202023"/>
<path d="M140.993 275.067L130.486 274.59L129.531 211.07C125.37 212.993 119.066 216.2 114.713 217.636C101.876 221.963 82.0651 226.433 68.2722 219.241L86.4208 200.137C86.4208 200.137 96.2306 197.338 108.075 194.711C118.993 192.314 128.91 193.418 137.172 193.876C137.172 193.876 142.903 193.876 143.858 198.652C144.814 203.428 140.993 275.067 140.993 275.067Z" fill="#3D3D3D"/>
<path d="M135.739 253.575C119.024 192.397 105.651 234.472 71.7896 218.883L89.9381 199.779C89.9381 199.779 100.971 196.981 112.815 194.354C112.815 194.354 115.771 203.146 119.024 210.114C123.31 219.297 135.739 253.575 135.739 253.575Z" fill="#313030"/>
<path d="M130.964 193.398C127.62 193.398 119.501 192.921 113.77 193.876L122.367 214.413L129.531 211.069C130.486 224.442 132.492 251.283 132.874 251.665C133.256 252.047 140.197 259.306 142.426 259.306C142.426 259.306 139.645 232.444 137.172 220.144C134.824 208.461 130.964 193.398 130.964 193.398Z" fill="#313030"/>
<path fill-rule="evenodd" clip-rule="evenodd" d="M144.608 270.769C145.564 274.59 146.461 277.79 147.302 280.178C147.703 281.333 152.078 290.685 152.078 290.685L154.16 294.42L154.437 296.101L150.234 298.317L145.22 296.406C145.22 296.406 141.552 286.157 141.265 284.123C141.106 283.041 141.017 281.949 140.998 280.856L141.227 280.273C140.132 277.726 139.024 275.15 137.903 272.546L144.608 270.769Z" fill="#F9C6B9"/>
<path d="M130.486 274.59V260.262L137.172 275.067L130.486 274.59Z" fill="#333231"/>
<path fill-rule="evenodd" clip-rule="evenodd" d="M152.126 290.685C152.781 291.657 153.502 292.582 154.285 293.455C155.425 294.231 156.519 295.073 157.561 295.976C157.991 296.54 159.003 298.326 156.911 298.842L149.404 300.752C147.398 301.268 145.583 301.077 145.038 299.224C144.494 297.371 142.698 290.799 142.058 289.433C141.418 288.067 140.301 286.635 140.272 285.135C140.317 283.612 140.522 282.097 140.883 280.617C140.971 280.451 141.087 280.302 141.227 280.177L141.332 281.486C141.335 281.806 141.363 282.126 141.418 282.441C141.772 284.552 144.933 293.636 145.134 294.419C145.334 295.203 146.28 295.489 147.875 295.518C149.47 295.546 152.651 295.117 153.492 293.722C153.532 293.626 153.547 293.522 153.537 293.419C153.527 293.315 153.492 293.216 153.434 293.13L152.126 290.685Z" fill="#313135"/>
<path d="M54.2247 211.753C53.9828 210.842 53.8991 207.192 54.2246 206.294C54.5501 205.395 55.9809 199.746 58.3689 197.697C60.7569 195.648 66.9656 194.831 67.4432 194.831C78.9452 194.831 96.4252 192.31 106.169 192.349C106.169 192.349 119.52 191.394 123.526 202.854L148.634 276.501L137.172 278.888L108.516 212.502C108.516 212.502 81.2935 224.92 64.1001 221.577C56.4585 219.189 55.6667 217.12 54.2247 211.753Z" fill="#3D3D3D"/>
<path d="M128.24 217.278C128.156 217.281 128.074 217.262 128.01 217.225C127.945 217.188 127.904 217.135 127.894 217.078C123.738 198.395 119.249 196.731 119.208 196.712C119.132 196.684 119.073 196.638 119.044 196.582C119.015 196.527 119.017 196.466 119.05 196.411C119.083 196.357 119.144 196.312 119.222 196.287C119.3 196.262 119.388 196.257 119.471 196.274C119.665 196.332 124.333 197.796 128.572 217.012C128.584 217.073 128.561 217.136 128.506 217.186C128.452 217.235 128.371 217.269 128.282 217.278H128.24Z" fill="#808080"/>
<path d="M63.1737 98.5024C63.1737 98.5024 49.2702 114.134 52.1281 126.763L56.9074 130.365L67.3544 127.12L67.4123 110.533L63.5502 99.7093L63.1737 98.5024Z" fill="#333333"/>
<path d="M52.5522 123.607C52.5522 123.607 55.7866 133.098 58.7604 144.848C59.8611 149.222 60.9329 153.905 61.7729 158.52C61.8791 159.07 61.9756 159.621 62.0722 160.171C62.9542 164.951 63.4547 169.794 63.5687 174.654C63.6044 176.637 63.4719 178.621 63.1729 180.582C63.1729 180.582 67.537 181.306 73.3301 181.818H73.6777L74.3246 181.876C76.2557 182.04 78.4088 182.165 80.5522 182.223C84.9251 182.44 89.3085 182.181 93.6254 181.451L94.5233 181.258C95.3527 181.079 96.1688 180.843 96.9661 180.553L97.7095 172.694C97.7868 165.993 97.8608 159.289 97.9316 152.582C99.3402 151.284 100.346 149.608 100.828 147.754C102.412 141.295 96.155 135.425 95.3247 134.662C94.7553 134.143 94.1521 133.662 93.5192 133.223C93.6933 132.091 93.6933 130.938 93.5192 129.805C93.2522 128.174 92.5482 126.646 91.4819 125.383C87.5329 120.633 79.5867 119.745 79.5867 119.745L67.595 118.885L66.0694 118.779C63.7799 119.287 61.5229 119.931 59.3108 120.71L58.3453 121.058C56.3672 121.796 54.433 122.647 52.5522 123.607Z" fill="#F7931E"/>
<path d="M78.6216 120.709L77.6561 116.847L78.8726 116.925L79.5871 117.813V119.744L78.6216 120.709Z" fill="#CE6700"/>
<path d="M84.8972 126.986L93.5869 133.744L84.8972 126.986Z" fill="#E6E6E6"/>
<path d="M57.6214 188.142C60.3249 187.108 66.0311 186.848 72.3842 186.944H73.3498H73.8035C76.0436 187.002 78.3318 187.099 80.5622 187.215C84.4243 187.408 88.1705 187.678 91.3084 187.939L94.0698 188.17C97.4878 188.479 99.6988 188.711 99.6988 188.711L97.7678 172.635L93.1236 172.896L80.5718 173.61L73.9291 173.987L72.6932 174.055L63.598 174.576C62.3662 178.896 60.6121 183.049 58.3745 186.944C58.2683 187.118 58.1814 187.263 58.0849 187.398C57.9883 187.533 57.9401 187.639 57.8821 187.736L57.7373 187.968L57.6214 188.142Z" fill="#F7931E"/>
<path d="M78.8732 122.052C77.581 123.531 75.7544 124.438 73.7946 124.572C72.4225 124.608 71.0669 124.267 69.8752 123.586C68.6835 122.905 67.7014 121.91 67.036 120.71C66.933 116.436 66.8235 112.155 66.7077 107.868V107.125L66.6497 105.706L66.4953 102.404L77.956 101.593L78.4194 112.522L78.6994 119.136L78.8732 122.052Z" fill="#F9C6B9"/>
<path d="M78.6602 120.623C74.4244 118.035 71.2924 113.974 69.8643 109.22L78.3802 112.831L78.6602 120.623Z" fill="#DB7C6F"/>
<path d="M87.3497 91.2128C88.3732 97.17 89.1745 101.833 87.6394 106.555C87.1083 108.187 85.1869 114.279 80.7842 115.341C76.3814 116.403 70.3179 112.116 66.4559 104.44L65.4903 91.7148L74.1028 85.3521L86.249 86.0955C86.558 87.2831 86.9732 89.05 87.3497 91.2128Z" fill="#F9C6B9"/>
<path d="M62.6421 100.636C61.8021 99.2267 59.3497 94.6887 60.7787 89.8032C62.8932 82.5715 72.1428 78.468 79.5387 80.5342C85.5925 82.2335 88.5567 87.5439 89.2422 88.8473C90.0374 89.3192 90.7014 89.9832 91.1732 90.7784C92.1388 92.5356 91.8491 94.4763 91.347 96.5136C90.4638 100.055 89.2383 103.502 87.6877 106.806C88.0669 104.792 88.2928 102.752 88.3636 100.704C88.5567 94.9977 87.7167 94.1867 87.3981 93.9453C86.3167 93.2018 84.7525 93.6363 83.6712 93.9453C82.1344 94.3772 80.7303 95.1872 79.587 96.3012C77.9263 98.126 74.5277 100.096 66.8904 100.714L62.6421 100.636Z" fill="#333333"/>
<path d="M81.9916 99.1977C81.7135 99.1947 81.4361 99.1721 81.1612 99.1301C80.8918 99.0999 80.6243 99.0548 80.3598 98.9949C79.7197 98.9001 79.069 98.9001 78.4288 98.9949H78.4771C77.908 99.1409 77.331 99.2537 76.7488 99.3328L75.8605 99.4101C75.5612 99.4101 75.2619 99.4101 74.9529 99.4101C75.2038 99.2424 75.465 99.0909 75.735 98.9563C76.0054 98.8211 76.2757 98.7052 76.546 98.5894C77.0903 98.3699 77.6483 98.186 78.2164 98.039H78.2647C79.0302 97.9011 79.8194 97.9918 80.5336 98.2997C80.776 98.4251 81.0113 98.5637 81.2385 98.7149C81.5024 98.8547 81.7543 99.0162 81.9916 99.1977Z" fill="#333333"/>
<path d="M85.1681 98.9368C85.5447 98.7919 85.9309 98.6664 86.3074 98.5313C86.684 98.3961 87.0798 98.2802 87.466 98.174C87.8366 98.0195 88.2263 97.9155 88.6247 97.865C88.8317 97.8623 89.0385 97.8784 89.2426 97.9133C89.4641 97.9482 89.6789 98.0166 89.8798 98.1161C89.8893 98.1267 89.8946 98.1405 89.8946 98.1547C89.8946 98.169 89.8893 98.1827 89.8798 98.1933C89.7184 98.3519 89.5366 98.4883 89.3391 98.5988C89.1609 98.7002 88.9734 98.7842 88.7791 98.8499C88.3874 98.9439 87.984 98.9796 87.5819 98.9561C87.186 98.9561 86.7805 99.0044 86.375 99.014C85.9695 99.0237 85.5736 99.014 85.1681 99.014C85.1681 99.014 85.1102 99.014 85.1681 98.9657C85.1651 98.9563 85.1651 98.9462 85.1681 98.9368Z" fill="#333333"/>
<path d="M68.1559 107.405C67.965 107.619 67.7317 107.791 67.4708 107.911C67.2099 108.031 66.927 108.095 66.64 108.1L66.5821 106.429L67.6924 105.782L68.658 106.014C68.6744 106.525 68.4948 107.022 68.1559 107.405Z" fill="#D18F88"/>
<path d="M68.2804 102.78C68.8598 104.035 69.246 106.304 68.1453 107.028C67.2667 107.627 65.6735 106.864 64.8722 106.256C64.189 105.709 63.6819 104.974 63.4142 104.141C63.1554 103.621 63.0135 103.051 62.9985 102.471C62.9835 101.89 63.0957 101.313 63.3273 100.781C63.6653 100.163 64.4473 99.2652 65.2584 99.3521C65.857 99.41 66.3301 100.067 67.286 101.38C67.6605 101.814 67.9935 102.283 68.2804 102.78Z" fill="#F9C6B9"/>
<path d="M66.6885 102.152C66.814 102.867 66.0222 103.176 66.1574 103.89C66.2926 104.605 67.0553 104.788 66.9395 105.165C66.8236 105.541 66.3795 105.512 66.3312 105.512C66.1172 105.516 65.9049 105.474 65.7085 105.389C65.512 105.304 65.3359 105.178 65.1919 105.02C64.819 104.695 64.5307 104.284 64.3519 103.823C64.1669 103.54 64.0513 103.218 64.0144 102.883C63.9774 102.547 64.0203 102.208 64.1395 101.892C64.2673 101.662 64.4512 101.468 64.674 101.328C64.8967 101.188 65.1513 101.106 65.414 101.09C65.7142 101.101 66.0025 101.211 66.2333 101.403C66.4641 101.595 66.6243 101.859 66.6885 102.152Z" fill="#DB7C6F"/>
<path d="M81.5179 90.7786C80.2095 92.6012 78.4493 94.052 76.4103 94.9882C75.4009 95.4529 74.3461 95.8121 73.2627 96.06C72.1649 96.304 71.0521 96.4749 69.9317 96.5717C70.4917 96.5717 71.0614 96.62 71.631 96.5717C72.2029 96.5493 72.7733 96.4978 73.34 96.4172C74.4726 96.244 75.5768 95.9193 76.6228 95.4517C77.6647 94.9563 78.6251 94.3052 79.471 93.5206C80.3307 92.7534 81.0268 91.8208 81.5179 90.7786Z" fill="#808080"/>
<path d="M63.743 95.3359C63.2165 96.1225 62.6116 96.8536 61.9375 97.518C61.2298 98.1797 60.4676 98.7804 59.6589 99.3139C59.2083 99.6307 58.8487 100.06 58.6161 100.559C58.5008 100.825 58.4385 101.11 58.4326 101.399C58.4471 101.655 58.4761 101.91 58.5195 102.162C58.6072 103.095 58.4817 104.036 58.1526 104.914C57.9737 105.308 57.6856 105.643 57.3223 105.879C56.9087 106.091 56.454 106.209 55.9899 106.227C55.4688 106.261 54.9705 106.453 54.5609 106.777C54.1801 107.127 53.8972 107.569 53.7402 108.061C53.4513 108.999 53.3144 109.977 53.3347 110.958C53.3437 111.926 53.4049 112.893 53.5181 113.855C53.4436 112.891 53.421 111.924 53.4506 110.958C53.4623 109.971 53.6352 108.993 53.9623 108.061C54.1371 107.66 54.4092 107.308 54.754 107.038C55.1266 106.763 55.5754 106.612 56.0382 106.604C56.555 106.605 57.0658 106.493 57.5347 106.275C57.9939 105.999 58.3603 105.592 58.5871 105.107C59.0023 104.163 59.1845 103.133 59.1182 102.104C59.0078 101.68 59.0452 101.23 59.2244 100.83C59.4216 100.438 59.7179 100.106 60.0837 99.8642C60.9437 99.3614 61.755 98.7796 62.5071 98.1263C63.2598 97.4493 63.9393 96.6953 64.5347 95.8766L63.743 95.3359Z" fill="#333333"/>
<path d="M61.2422 104.296C60.4891 105.493 59.794 106.719 59.1278 107.965C58.4616 109.21 57.8436 110.475 57.1967 111.75C56.5498 113.024 56.0478 114.337 55.565 115.612C55.0494 116.93 54.674 118.299 54.445 119.696C54.8522 118.351 55.3423 117.032 55.9126 115.747C56.4629 114.463 57.0229 113.169 57.6312 111.885L61.2422 104.296Z" fill="#808080"/>
<path d="M67.1899 113.797C67.3538 113.8 67.5167 113.769 67.668 113.706C67.8192 113.643 67.9557 113.549 68.0685 113.43C68.8313 112.638 68.6961 110.697 67.6727 107.637C67.6674 107.622 67.6591 107.608 67.6483 107.597C67.6375 107.585 67.6245 107.576 67.61 107.57C67.5956 107.563 67.5799 107.56 67.5642 107.56C67.5484 107.56 67.5327 107.563 67.5182 107.569C67.5036 107.574 67.49 107.581 67.4782 107.59C67.4664 107.6 67.4567 107.612 67.4495 107.625C67.4423 107.639 67.4379 107.654 67.4364 107.669C67.4349 107.684 67.4365 107.699 67.441 107.714C68.6865 111.373 68.4065 112.744 67.9044 113.246C67.7777 113.367 67.6231 113.453 67.4546 113.499C67.286 113.544 67.1088 113.547 66.9389 113.507C65.0078 113.417 63.9071 112.953 63.6368 112.117C62.9127 110.06 67.1223 106.324 67.161 106.324C67.1834 106.3 67.1959 106.269 67.1959 106.237C67.1959 106.204 67.1834 106.173 67.161 106.15C67.1502 106.139 67.1374 106.13 67.1233 106.125C67.1092 106.119 67.0941 106.116 67.0789 106.116C67.0636 106.116 67.0485 106.119 67.0345 106.125C67.0204 106.13 67.0076 106.139 66.9968 106.15C66.8134 106.304 62.623 110.012 63.4051 112.204C63.7334 113.169 64.9016 113.662 66.8906 113.748C66.9877 113.778 67.0884 113.794 67.1899 113.797Z" fill="#F15A24"/>
<path d="M90.1538 129C91.4359 151.341 92.2179 171.674 93.5 194C93.5 194 81.2682 194.099 73.5 195C67.6009 195.684 58.5 197.5 58.5 197.5C58.0309 191.18 61.614 184.636 63 178C66.3495 161.962 70.1335 145.382 69 130.098L90.1538 129Z" fill="#EBEBEB"/>
<path d="M82.9468 136.003L67 122.64C68.2024 123.238 70.658 123.461 72 123.5C74.1091 123.638 76.0511 124.016 77.6558 122.64C78.5194 121.841 79.1811 120.848 79.5868 119.744C82.6443 124.739 85.7018 129.727 88.7593 134.709L82.9468 136.003Z" fill="#EBEBEB"/>
<path d="M54.0873 191.163C54.0259 191.272 53.9922 191.394 53.9894 191.518C53.9865 191.642 54.0146 191.766 54.071 191.877C54.1274 191.988 54.2105 192.083 54.3128 192.154C54.415 192.225 54.5333 192.269 54.657 192.283L55.2942 192.341L67.0929 193.558L79.6446 194.861C79.707 194.87 79.7704 194.855 79.8223 194.82C79.8742 194.784 79.9107 194.73 79.9246 194.668C83.5566 180.615 84.4224 165.99 82.4736 151.606C81.8299 146.457 81.1862 141.307 80.5426 136.158C80.3977 135.974 76.0915 130.239 75.9563 130.046L67.5853 118.885L66.0598 116.847L58.3356 121.057L55.439 122.621L67.0253 135.173C66.3398 138.224 65.6446 141.265 64.9591 144.316C63.9421 148.822 62.9315 153.305 61.9273 157.766C61.8694 157.998 61.8211 158.239 61.7632 158.471C61.8694 159.021 61.966 159.572 62.0625 160.122C62.5066 162.69 62.8735 165.239 63.1342 167.672C63.9742 172.5 64.3701 173.108 64.0998 174.759C63.6267 178.013 61.6087 179.162 58.5094 183.391L54.0873 191.163Z" fill="#F7931E"/>
<path d="M84.4146 118.778L78.6215 116.847C80.868 123.284 83.1208 129.721 85.3802 136.158C86.3994 140.928 87.0451 145.77 87.3112 150.641C87.5526 154.976 88.5 155.125 88.5 162C88.5579 171.018 89.1138 177.883 89.5 183C89.7897 186.862 91.2641 191.237 91.5345 193.824C91.5448 193.936 91.5793 194.044 91.6357 194.141C91.692 194.238 91.7688 194.321 91.8607 194.386C91.9525 194.45 92.0573 194.494 92.1677 194.513C92.2781 194.533 92.3915 194.529 92.5 194.5L103.557 192.477C100.052 174.672 94.6298 155.903 91.1733 138.089C92.4574 135.839 91.7159 132.759 93 130.5L84.4146 118.778Z" fill="#F7931E"/>
<path d="M53.9427 191.212C53.8927 191.32 53.8694 191.439 53.8748 191.558C53.8802 191.677 53.9142 191.793 53.9738 191.896C54.0335 191.999 54.117 192.087 54.2174 192.151C54.3179 192.215 54.4323 192.254 54.5509 192.265L55.2944 192.342L67.093 193.558C69.7392 189.593 71.6795 185.199 72.8282 180.572C73.3643 178.424 73.7387 176.239 73.9482 174.036C74.5794 167.924 74.4009 161.756 73.4172 155.691C75.716 154.706 77.8189 153.316 79.6255 151.587C77.4112 152.177 75.0811 152.177 72.8668 151.587C72.0995 151.253 71.3629 150.853 70.6655 150.39C68.3711 148.785 66.4319 146.724 64.9689 144.336C62.369 139.989 60.5888 135.201 59.7165 130.211L58.7509 144.848C59.7165 149.82 60.5951 153.789 61.2323 156.434C62.4779 161.687 63.1634 163.917 63.1634 167.692C63.1195 170.084 62.7955 172.463 62.1979 174.779C61.4108 177.827 60.1638 180.738 58.4999 183.411C56.7251 185.853 55.1984 188.467 53.9427 191.212Z" fill="#E57607"/>
<path d="M76.2077 135.916C76.2767 135.916 76.3426 135.888 76.3911 135.839C76.4142 135.817 76.4326 135.791 76.4452 135.762C76.4578 135.733 76.4643 135.702 76.4643 135.67C76.4643 135.638 76.4578 135.607 76.4452 135.578C76.4326 135.549 76.4142 135.523 76.3911 135.501C76.2463 135.366 61.9083 122.949 60.9428 121.984C60.9203 121.96 60.8933 121.942 60.8635 121.929C60.8336 121.916 60.8015 121.91 60.769 121.91C60.7366 121.91 60.7045 121.916 60.6746 121.929C60.6447 121.942 60.6178 121.96 60.5952 121.984C60.5532 122.03 60.5299 122.09 60.5299 122.153C60.5299 122.215 60.5532 122.275 60.5952 122.322C61.5608 123.287 75.4642 135.337 76.0436 135.839C76.0639 135.863 76.0891 135.882 76.1174 135.895C76.1457 135.908 76.1764 135.916 76.2077 135.916Z" fill="#CE6700"/>
<path d="M87.2925 135.289C87.3244 135.285 87.355 135.274 87.3826 135.257C87.4101 135.24 87.4341 135.218 87.453 135.192C87.4719 135.166 87.4853 135.136 87.4926 135.105C87.4999 135.074 87.5008 135.041 87.4953 135.009L85.1008 120.189C85.0869 120.127 85.0504 120.073 84.9985 120.037C84.9466 120.002 84.8832 119.987 84.8208 119.995C84.7584 120.005 84.7021 120.039 84.6642 120.089C84.6263 120.14 84.6097 120.203 84.6181 120.266L87.0608 135.086C87.0698 135.142 87.0978 135.193 87.1402 135.23C87.1825 135.267 87.2364 135.288 87.2925 135.289Z" fill="#CE6700"/>
<path d="M93.5194 133.464C93.5634 133.478 93.6106 133.478 93.6546 133.464C93.7061 133.429 93.742 133.375 93.7546 133.313C93.7672 133.252 93.7556 133.188 93.7222 133.136L88.9621 125.933C88.9459 125.904 88.924 125.879 88.8979 125.86C88.8717 125.84 88.8418 125.826 88.81 125.818C88.7781 125.81 88.7451 125.809 88.7127 125.814C88.6804 125.82 88.6495 125.832 88.6219 125.849C88.5944 125.867 88.5707 125.89 88.5524 125.917C88.534 125.945 88.5214 125.975 88.5153 126.007C88.5092 126.04 88.5097 126.073 88.5168 126.105C88.5239 126.137 88.5375 126.167 88.5566 126.194L93.3166 133.396C93.3434 133.422 93.3754 133.441 93.4105 133.453C93.4455 133.464 93.4827 133.468 93.5194 133.464Z" fill="#CE6700"/>
<path d="M64.6214 86.4336C64.18 87.1842 63.799 87.9688 63.4821 88.7798C63.1654 89.593 62.9104 90.429 62.7193 91.2805C62.5134 92.1398 62.4322 93.0243 62.478 93.9067C62.4664 94.8026 62.7901 95.6704 63.3855 96.3398C62.9653 95.5979 62.777 94.747 62.8448 93.8971C62.8855 93.0522 62.9986 92.2123 63.1828 91.3867C63.5793 89.7127 64.0594 88.0596 64.6214 86.4336Z" fill="#808080"/>
<path d="M79.6065 160.083C81.6378 158.112 83.8024 156.283 86.0851 154.609C87.5834 153.469 89.2023 152.498 90.9127 151.712C91.8103 151.214 92.7924 150.887 93.8093 150.747C94.4176 150.689 95.3251 150.689 98.6369 151.712C99.5058 151.973 100.269 152.234 100.877 152.436C101.075 152.505 101.245 152.637 101.362 152.811C101.479 152.985 101.535 153.193 101.524 153.402C101.498 153.642 101.446 153.878 101.369 154.107C101.177 154.621 100.906 155.103 100.568 155.536C99.8052 156.762 100.153 157.341 99.6024 158.432C99.1658 159.254 98.4933 159.927 97.6714 160.363C96.8217 160.614 95.4796 160.981 93.8093 161.329C91.2893 161.841 89.8217 161.918 87.0506 162.294C85.6989 162.478 83.7003 162.777 81.2575 163.26L79.6065 160.083Z" fill="#F9C6B9"/>
<path d="M52.7751 123.229C52.7751 123.229 39.2578 148.333 41.1888 177.298C41.1888 177.298 41.6716 183.574 51.3268 181.643L84.1545 163.298L81.2579 157.505C81.2579 157.505 60.982 163.298 55.1889 165.229C55.1889 165.229 62.913 147.85 60.982 131.436C60.8854 131.05 59.051 123.895 54.5034 123.181C53.9291 123.093 53.3436 123.109 52.7751 123.229Z" fill="#F7931E"/>
<path fill-rule="evenodd" clip-rule="evenodd" d="M41.7243 159.813C41.5912 159.806 41.477 159.907 41.4691 160.04C41.1887 164.788 41.1693 168.83 41.2273 171.944L41.4687 171.94L41.2273 171.944C41.2273 171.944 41.2273 171.944 41.2273 171.944C41.2756 174.646 41.3816 176.512 41.6694 177.87C41.9598 179.24 42.4392 180.112 43.2406 180.811C43.2404 180.811 43.2402 180.811 43.2401 180.811L43.3997 180.63L43.2411 180.812C43.2409 180.811 43.2408 180.811 43.2406 180.811C45.1245 182.472 47.8228 182.327 49.3437 182.104C49.4756 182.085 49.5669 181.962 49.5475 181.83C49.5282 181.699 49.4056 181.607 49.2737 181.627C47.763 181.848 45.2671 181.954 43.5594 180.449L43.5583 180.448C42.8538 179.833 42.4161 179.064 42.1417 177.77C41.8647 176.463 41.7583 174.641 41.71 171.936L41.71 171.935C41.6522 168.831 41.6714 164.802 41.951 160.069C41.9589 159.936 41.8574 159.821 41.7243 159.813Z" fill="#CE6700"/>
<path fill-rule="evenodd" clip-rule="evenodd" d="M82.4914 164.224C82.4264 164.107 82.2793 164.066 82.163 164.131L67.3229 172.424C67.2066 172.489 67.1649 172.636 67.23 172.753C67.295 172.869 67.4421 172.911 67.5585 172.846L82.3985 164.552C82.5149 164.487 82.5565 164.34 82.4914 164.224Z" fill="#CE6700"/>
<path fill-rule="evenodd" clip-rule="evenodd" d="M67.1014 161.373C67.0614 161.245 66.9259 161.175 66.7987 161.215L54.9132 164.951C54.786 164.991 54.7153 165.127 54.7553 165.254C54.7953 165.381 54.9308 165.452 55.0579 165.412L66.9435 161.675C67.0707 161.635 67.1414 161.5 67.1014 161.373Z" fill="#CE6700"/>
<path d="M58.2392 157.119C58.2939 157.119 58.3471 157.101 58.3907 157.068C58.4343 157.035 58.4658 156.988 58.4806 156.936C63.6461 135.8 59.1564 128.202 58.9633 127.893C58.9498 127.861 58.9295 127.832 58.9037 127.808C58.878 127.785 58.8475 127.767 58.8143 127.757C58.7811 127.746 58.7459 127.743 58.7113 127.747C58.6767 127.751 58.6435 127.763 58.6138 127.781C58.5842 127.8 58.5589 127.824 58.5396 127.853C58.5204 127.882 58.5077 127.915 58.5023 127.95C58.497 127.984 58.4992 128.019 58.5088 128.053C58.5184 128.086 58.5351 128.117 58.5578 128.144C58.5578 128.144 59.7164 130.075 60.2185 134.545C60.6916 138.678 60.682 145.9 58.0075 156.82C57.9928 156.881 58.0028 156.946 58.0353 157C58.0677 157.054 58.1202 157.093 58.1813 157.109L58.2392 157.119Z" fill="#CE6700"/>
<path d="M79.066 102.838H79.0563C78.4751 102.838 78.0039 102.366 78.0039 101.785V100.936C78.0039 100.354 78.4751 99.8832 79.0563 99.8832H79.066C79.6472 99.8832 80.1184 100.354 80.1184 100.936V101.785C80.1184 102.366 79.6472 102.838 79.066 102.838Z" fill="#333333"/>
<path d="M86.027 102.838H86.0173C85.5534 102.838 85.1773 102.462 85.1773 101.998V100.723C85.1773 100.259 85.5534 99.8832 86.0173 99.8832H86.027C86.4909 99.8832 86.867 100.259 86.867 100.723V101.998C86.867 102.462 86.4909 102.838 86.027 102.838Z" fill="#333333"/>
<path d="M82.6381 107.038C81.9138 107.023 81.2094 106.799 80.6105 106.391L81.016 105.821C81.3468 106.043 81.72 106.195 82.112 106.267C82.5041 106.338 82.9067 106.328 83.2947 106.236C83.6498 106.105 83.9773 105.909 84.2602 105.657L84.1153 105.435C83.6483 104.831 83.3188 104.133 83.1498 103.388C82.9126 101.813 83.0013 100.206 83.4105 98.6667L84.0864 98.8792C83.7052 100.305 83.6197 101.793 83.8353 103.253C83.991 103.904 84.2803 104.516 84.685 105.049C84.8009 105.223 84.9167 105.387 85.0133 105.551L85.1388 105.773L84.965 105.956C84.5468 106.389 84.0348 106.719 83.4684 106.922C83.199 107.002 82.9191 107.041 82.6381 107.038Z" fill="#DB7C6F"/>
<path d="M81.4794 110.321C80.9259 110.322 80.3745 110.254 79.838 110.118C79.1165 109.918 78.4365 109.591 77.8297 109.152C77.8008 109.133 77.7761 109.108 77.7571 109.079C77.738 109.05 77.7249 109.017 77.7186 108.983C77.7123 108.949 77.7129 108.914 77.7204 108.88C77.7279 108.846 77.7421 108.814 77.7621 108.786C77.8029 108.729 77.8637 108.691 77.932 108.678C78.0003 108.666 78.0709 108.68 78.129 108.718C78.6918 109.1 79.3154 109.384 79.9732 109.558C80.9637 109.819 82.0047 109.819 82.9952 109.558C83.0289 109.548 83.0642 109.545 83.0991 109.549C83.1339 109.554 83.1674 109.566 83.1974 109.584C83.2275 109.602 83.2533 109.626 83.2734 109.655C83.2934 109.684 83.3072 109.717 83.3139 109.751C83.3316 109.818 83.3222 109.888 83.2879 109.948C83.2535 110.008 83.1969 110.052 83.1304 110.07C82.5922 110.22 82.0378 110.304 81.4794 110.321Z" fill="#DB7C6F"/>
<rect width="136" height="7" transform="matrix(-1 0 0 1 228 173)" fill="#474747"/>
<path d="M159.687 137H111.675C111.206 137 110.747 137.138 110.361 137.397C109.975 137.656 109.679 138.023 109.512 138.449L97.154 169.949C97.0192 170.289 96.9719 170.656 97.0161 171.018C97.0602 171.381 97.1946 171.727 97.4076 172.027C97.6205 172.328 97.9056 172.573 98.2383 172.743C98.5709 172.912 98.941 173.001 99.3167 173H147.328C147.798 173 148.256 172.862 148.642 172.603C149.028 172.344 149.325 171.977 149.491 171.551L161.849 140.043C161.982 139.703 162.028 139.337 161.983 138.976C161.938 138.614 161.803 138.269 161.591 137.97C161.378 137.671 161.094 137.426 160.762 137.257C160.43 137.088 160.061 137 159.687 137Z" fill="#828282"/>
<path d="M113.585 170.425L78.0132 170.468L78.0164 173.073L113.588 173.03L113.585 170.425Z" fill="#828282"/>
<path d="M135.539 157.203C136.832 154.625 136.119 151.672 133.946 150.607C131.773 149.542 128.963 150.768 127.67 153.345C126.377 155.922 127.09 158.875 129.263 159.941C131.436 161.006 134.246 159.78 135.539 157.203Z" fill="#ABABAB"/>
<path d="M86 229H55" stroke="#484848"/>
<rect x="-1" y="1" width="6" height="9" rx="2" transform="matrix(-1 0 0 1 167 159)" stroke="#FF6600" stroke-width="2"/>
<path d="M178 156C178 155.448 177.552 155 177 155H167C166.448 155 166 155.448 166 156V173H178V156Z" fill="#F25800"/>
<path d="M172.332 128C173.06 138.861 184.713 142.694 172.332 151C178.887 140.139 167.233 138.861 172.332 128Z" fill="#E9E9E9"/>
<path d="M168.141 140C168.766 146.611 178.754 148.944 168.141 154C173.76 147.389 163.771 146.611 168.141 140Z" fill="#E9E9E9"/>
</svg>
