<svg width="80" height="52" viewBox="0 0 80 52" fill="none" xmlns="http://www.w3.org/2000/svg">
<path fill-rule="evenodd" clip-rule="evenodd" d="M1.67184 49.3752C2.28224 49.744 3.31661 50.1581 4.29987 50.1581C5.71612 50.1581 6.39267 49.4417 6.39267 48.4924C6.39267 47.519 5.82437 47.0172 4.38707 46.4579C2.41454 45.7324 1.49744 44.6471 1.49744 43.317C1.49744 41.5183 2.93774 40.04 5.25907 40.04C6.35959 40.04 7.33082 40.3423 7.90815 40.7323L7.43907 42.2076C7.0151 41.9294 6.2303 41.5364 5.21396 41.5364C4.03526 41.5364 3.40381 42.2287 3.40381 43.057C3.40381 43.9851 4.03526 44.3992 5.45452 44.9676C7.31879 45.684 8.31107 46.6574 8.31107 48.311C8.31107 50.2911 6.80762 51.6757 4.26679 51.6757C3.07906 51.6757 1.97854 51.3522 1.20276 50.8927L1.67184 49.3752Z" fill="#333333"/>
<path fill-rule="evenodd" clip-rule="evenodd" d="M17.4882 51.0439C16.9771 51.3008 15.8194 51.6908 14.3611 51.6908C11.0805 51.6908 8.94263 49.4114 8.94263 45.9894C8.94263 42.5552 11.2309 40.04 14.7971 40.04C15.9637 40.04 16.9981 40.3423 17.5454 40.6446L17.0973 42.1864C16.6283 41.9294 15.8886 41.6604 14.8091 41.6604C12.3134 41.6604 10.9603 43.5709 10.9603 45.8866C10.9603 48.4682 12.584 50.0584 14.7429 50.0584C15.8645 50.0584 16.6072 49.7802 17.1725 49.5323L17.4882 51.0439Z" fill="#333333"/>
<path fill-rule="evenodd" clip-rule="evenodd" d="M18.6759 35.052H20.6605V51.4338H18.6759V35.052Z" fill="#333333"/>
<path fill-rule="evenodd" clip-rule="evenodd" d="M24.1064 45.8774C24.1064 48.326 25.4595 50.1701 27.387 50.1701C29.2723 50.1701 30.6885 48.3472 30.6885 45.832C30.6885 43.9427 29.7624 41.5605 27.4291 41.5605C25.1077 41.5605 24.1064 43.7734 24.1064 45.8774ZM32.7152 45.7534C32.7152 49.8799 29.9037 51.6786 27.2968 51.6786C24.3741 51.6786 22.0768 49.4657 22.0768 45.9318C22.0768 42.2195 24.4853 40.0278 27.4712 40.0278C30.6013 40.0399 32.7152 42.3646 32.7152 45.7534Z" fill="#333333"/>
<path fill-rule="evenodd" clip-rule="evenodd" d="M43.1913 48.3717C43.1913 49.5446 43.2124 50.5634 43.2785 51.434H41.5255L41.4172 49.6111H41.3751C40.885 50.5059 39.7063 51.691 37.7789 51.691C36.0679 51.691 34.0172 50.6964 34.0172 46.8058V40.276H36.0018V46.4369C36.0018 48.5621 36.6573 50.0162 38.4314 50.0162C39.7604 50.0162 40.6775 49.067 41.0353 48.148C41.1436 47.8699 41.2098 47.501 41.2098 47.1081V40.2639H43.1943V48.3717H43.1913Z" fill="#333333"/>
<path fill-rule="evenodd" clip-rule="evenodd" d="M52.774 44.8135C52.774 44.5565 52.753 44.2088 52.6868 43.964C52.3922 42.6883 51.3127 41.6393 49.8303 41.6393C47.7826 41.6393 46.5708 43.4833 46.5708 45.932C46.5708 48.1902 47.6713 50.0584 49.7852 50.0584C51.1142 50.0584 52.326 49.1303 52.6838 47.6309C52.75 47.3528 52.771 47.0717 52.771 46.7603V44.8135H52.774ZM54.7345 35.0521V48.5469C54.7345 49.5415 54.7796 50.6721 54.8217 51.4309H53.0657L52.9785 49.4961H52.9124C52.323 50.7386 51.027 51.6878 49.25 51.6878C46.6219 51.6878 44.5742 49.4085 44.5742 46.0075C44.5532 42.2953 46.8204 40.0371 49.4574 40.0371C51.1473 40.0371 52.2478 40.8412 52.738 41.7239H52.7801V35.0491H54.7345V35.0521Z" fill="#333333"/>
<path fill-rule="evenodd" clip-rule="evenodd" d="M56.2169 50.2368C56.2169 49.4083 56.7822 48.7825 57.5671 48.7825C58.3519 48.7825 58.8961 49.3872 58.8961 50.2368C58.8961 51.0652 58.3519 51.6911 57.522 51.6911C56.7642 51.6911 56.2169 51.0652 56.2169 50.2368Z" fill="#333333"/>
<path fill-rule="evenodd" clip-rule="evenodd" d="M60.2193 43.7522C60.2193 42.4342 60.1982 41.3036 60.1321 40.2636H61.8641L61.9513 42.4765H62.0174C62.5075 40.9771 63.7283 40.0278 65.0574 40.0278C65.2649 40.0278 65.4182 40.049 65.6016 40.0732V41.9837C65.3942 41.9384 65.1987 41.9384 64.9251 41.9384C63.5299 41.9384 62.5376 42.9995 62.267 44.5201C62.2219 44.7982 62.2008 45.1458 62.2008 45.4693V51.4186H60.2163V43.7522H60.2193Z" fill="#808285"/>
<path fill-rule="evenodd" clip-rule="evenodd" d="M75.5665 48.3717C75.5665 49.5446 75.5875 50.5634 75.6537 51.434H73.8976L73.7894 49.6111H73.7473C73.2572 50.5059 72.0785 51.691 70.151 51.691C68.4401 51.691 66.3894 50.6964 66.3894 46.8058V40.276H68.374V46.4369C68.374 48.5621 69.0295 50.0162 70.8035 50.0162C72.1326 50.0162 73.0497 49.067 73.4075 48.148C73.5158 47.8699 73.5939 47.501 73.5939 47.1081V40.2639H75.5785V48.3717H75.5665Z" fill="#808285"/>
<path fill-rule="evenodd" clip-rule="evenodd" d="M0.312718 34.4384C0.0872002 33.4831 0 32.549 0 31.7146C0 30.0459 0.312718 28.8337 0.312718 28.8337C0.387891 28.3107 0.496139 27.833 0.625436 27.3645C0.721657 27.0319 0.817878 26.7085 0.938154 26.3971C1.03437 26.1401 1.1306 25.8953 1.25087 25.6534C1.34709 25.4418 1.45534 25.2302 1.56359 25.0428C1.65981 24.8644 1.76806 24.6861 1.87631 24.5198C1.97253 24.3626 2.08078 24.2084 2.18903 24.0633C2.28525 23.9182 2.39349 23.7852 2.50174 23.6522C2.59796 23.5313 2.70621 23.4073 2.81446 23.2864C2.91068 23.1745 3.01893 23.0627 3.12718 22.9539C3.2234 22.8541 3.33165 22.7543 3.4399 22.6546C3.53612 22.5548 3.64437 22.4641 3.75262 22.3765C3.84884 22.2888 3.95708 22.2102 4.06533 22.1195C4.16155 22.0409 4.2698 21.9623 4.37805 21.8867C4.4863 21.8081 4.58252 21.7416 4.69077 21.6751C4.79902 21.6086 4.89524 21.5421 5.00349 21.4756C5.11174 21.4091 5.20796 21.3547 5.31621 21.2972C5.42445 21.2428 5.52067 21.1854 5.62892 21.131C5.73717 21.0766 5.83339 21.0312 5.94164 20.9738C6.04989 20.9284 6.14611 20.874 6.25436 20.8287C6.36261 20.7833 6.45883 20.741 6.56708 20.6957C6.67532 20.6503 6.77155 20.6171 6.87979 20.5747C6.98804 20.5415 7.08426 20.4961 7.19251 20.4629C7.30076 20.4296 7.39698 20.3964 7.50523 20.3631C7.61348 20.3299 7.7097 20.3087 7.81795 20.2755C7.9262 20.2422 8.03144 20.221 8.13067 20.1969C8.23891 20.1757 8.34416 20.1515 8.44338 20.1304C8.56065 20.1092 8.65687 20.085 8.7561 20.0759C8.8854 20.0548 8.98162 20.0427 9.06882 20.0306C9.17707 20.0185 9.23119 20.0094 9.23119 20.0094C9.23119 20.0094 9.25224 19.553 9.36951 18.7851C9.43266 18.374 9.53188 17.8631 9.68223 17.2827C9.76943 16.938 9.86565 16.5602 9.99495 16.1581C10.0821 15.8588 10.1874 15.5474 10.3077 15.224C10.4039 14.9579 10.5001 14.6798 10.6204 14.4017C10.7166 14.1568 10.8128 13.912 10.9331 13.6671C11.0293 13.4434 11.1255 13.2227 11.2458 12.999C11.342 12.7995 11.4503 12.5879 11.5585 12.3884C11.6548 12.1979 11.763 12.0105 11.8713 11.811C11.9675 11.6326 12.0757 11.4543 12.184 11.2759C12.2802 11.1096 12.3884 10.9434 12.4967 10.7741C12.5929 10.6169 12.7012 10.4506 12.8094 10.2964C12.9056 10.1392 13.0139 9.99716 13.1221 9.83996C13.2183 9.69485 13.3266 9.54975 13.4348 9.40767C13.5311 9.27465 13.6393 9.12955 13.7476 8.99654C13.8438 8.86352 13.952 8.73958 14.0603 8.60656C14.1565 8.48564 14.2647 8.3617 14.373 8.22868C14.4692 8.10776 14.5775 7.98382 14.6857 7.87197C14.7819 7.76012 14.8902 7.63919 14.9984 7.52734C15.0947 7.41549 15.2029 7.30364 15.3112 7.19481C15.4074 7.08296 15.5156 6.9832 15.6239 6.87135C15.7201 6.77158 15.8283 6.67183 15.9366 6.55997C16.0328 6.46021 16.1411 6.36045 16.2493 6.26069C16.3455 6.16093 16.4538 6.07024 16.562 5.97048C16.6582 5.88281 16.7665 5.79212 16.8747 5.69236C16.971 5.6047 17.0792 5.51401 17.1875 5.42634C17.2837 5.33867 17.3919 5.26007 17.5002 5.16938C17.5964 5.09078 17.7046 5.00311 17.8129 4.92451C17.9091 4.84592 18.0174 4.77034 18.1256 4.67965C18.2218 4.60105 18.3301 4.52245 18.4383 4.44688C18.5346 4.36828 18.6428 4.2927 18.751 4.22317C18.8473 4.14457 18.9555 4.07807 19.0638 3.99947C19.16 3.93296 19.2682 3.85436 19.3765 3.78786C19.4727 3.72135 19.581 3.65484 19.6892 3.58834C19.7854 3.52183 19.8937 3.45532 20.0019 3.38882C20.0981 3.32231 20.2064 3.2558 20.3146 3.1893C20.4109 3.12279 20.5191 3.06837 20.6274 2.99885C20.7236 2.93234 20.8318 2.87792 20.9401 2.82049C21.0363 2.76607 21.1445 2.69956 21.2528 2.64213C21.349 2.58771 21.4573 2.53028 21.5655 2.47586C21.6617 2.42145 21.77 2.36401 21.8782 2.30959C21.9744 2.25518 22.0827 2.19774 22.1909 2.1524C22.2872 2.09798 22.3954 2.05264 22.5037 1.9952C22.5367 1.98311 22.5668 1.96195 22.5999 1.94985C22.6751 1.9166 22.7382 1.88335 22.8134 1.85009C22.9216 1.80475 23.0178 1.75033 23.1261 1.70499C23.2343 1.65964 23.3306 1.61732 23.4388 1.57198C23.5471 1.52663 23.6433 1.48431 23.7515 1.43896C23.8598 1.39362 23.956 1.35129 24.0642 1.31804C24.1725 1.2727 24.2687 1.23037 24.377 1.19712C24.4852 1.15177 24.5814 1.11852 24.6897 1.08527C24.7979 1.05201 24.8942 1.00667 25.0024 0.973415C25.1106 0.940162 25.2069 0.906909 25.3151 0.873655C25.4234 0.840402 25.5196 0.807149 25.6278 0.773895C25.7361 0.740642 25.8323 0.719481 25.9406 0.686228C26.0488 0.652974 26.145 0.631813 26.2533 0.59856C26.3615 0.577399 26.4577 0.544145 26.566 0.519961C26.6742 0.4988 26.7705 0.465546 26.8787 0.441362C26.987 0.420201 27.0832 0.396017 27.1914 0.374856C27.2997 0.353694 27.3959 0.32951 27.5041 0.308349C27.6124 0.287188 27.7086 0.263004 27.8169 0.253934C27.9251 0.232773 28.0213 0.220681 28.1296 0.19952C28.2378 0.187428 28.3341 0.166267 28.4423 0.154174C28.5505 0.142082 28.6468 0.133013 28.755 0.120921C28.8633 0.108829 28.9595 0.09976 29.0677 0.0876678C29.176 0.0755757 29.2722 0.0665066 29.3805 0.0665066C29.4887 0.0544145 29.5849 0.0453454 29.6932 0.0453454C29.8014 0.0332533 29.8976 0.0332533 30.0059 0.0241842C30.1141 0.0241842 30.2104 0.0120921 30.3186 0.0120921C30.4269 0.0120921 30.5231 0 30.6313 0C30.7396 0 30.8358 0 30.944 0C31.0523 0 31.1485 0 31.2568 0C31.365 0 31.4612 0.0120921 31.5695 0.0120921C31.6777 0.0120921 31.7739 0.0241842 31.8822 0.0241842C31.9904 0.0241842 32.0867 0.0362763 32.1949 0.0453454C32.3032 0.0574376 32.3994 0.0574376 32.5076 0.0665066C32.6159 0.0785988 32.7121 0.0876678 32.8204 0.0876678C32.9286 0.09976 33.0248 0.108829 33.1331 0.120921C33.2413 0.133013 33.3375 0.142082 33.4458 0.154174C33.554 0.166267 33.6503 0.187428 33.7585 0.19952C33.8667 0.211612 33.963 0.232773 34.0712 0.244865C34.1795 0.266027 34.2757 0.278119 34.3839 0.29928C34.4922 0.320441 34.5884 0.344625 34.6967 0.353694C34.8049 0.374856 34.9011 0.39904 35.0094 0.420201C35.1176 0.441362 35.2138 0.465546 35.3221 0.486708C35.4303 0.507869 35.5266 0.532053 35.6348 0.565306C35.7431 0.586468 35.8393 0.619721 35.9475 0.643905C36.0558 0.665066 36.152 0.69832 36.2602 0.722504C36.3685 0.755757 36.4647 0.776918 36.573 0.810172C36.6812 0.843425 36.7774 0.864586 36.8857 0.89784C36.9939 0.931093 37.0902 0.964346 37.1984 0.9976C37.3066 1.03085 37.4029 1.06411 37.5111 1.09736C37.6194 1.13061 37.7156 1.16387 37.8238 1.20921C37.9321 1.24247 38.0283 1.28781 38.1366 1.32106C38.2448 1.35432 38.341 1.39966 38.4493 1.44198C38.5575 1.48733 38.6537 1.52058 38.762 1.56291C38.8702 1.60825 38.9665 1.6415 39.0747 1.68383C39.183 1.72917 39.2792 1.7715 39.3874 1.81684C39.4957 1.86219 39.5919 1.90451 39.7001 1.94985C39.8084 1.9952 39.9046 2.03752 40.0129 2.09496C40.1211 2.1403 40.2173 2.19472 40.3256 2.24006C40.4338 2.29448 40.53 2.33982 40.6383 2.39726C40.7465 2.45168 40.8428 2.49702 40.951 2.55446C41.0593 2.60887 41.1555 2.66631 41.2637 2.72073C41.372 2.77514 41.4682 2.83258 41.5765 2.88699C41.6847 2.94141 41.7809 2.99884 41.8892 3.06535C41.9974 3.11977 42.0936 3.18627 42.2019 3.24371C42.3101 3.29812 42.4064 3.36463 42.5146 3.42207C42.6229 3.48858 42.7191 3.54299 42.8273 3.61252C42.9356 3.67903 43.0318 3.74553 43.14 3.80297C43.2483 3.86948 43.3445 3.93598 43.4528 4.00249C43.561 4.069 43.6572 4.1355 43.7655 4.2141C43.8737 4.28061 43.9699 4.35921 44.0782 4.42571C44.1864 4.50431 44.2827 4.57082 44.3909 4.64942C44.4992 4.72802 44.5954 4.80662 44.7036 4.87312C44.8119 4.95172 44.9081 5.03032 45.0163 5.1059C45.1246 5.18449 45.2208 5.27216 45.3291 5.33867C45.4373 5.42634 45.5456 5.50494 45.6418 5.58353C45.75 5.6712 45.8583 5.76189 45.9545 5.84049C46.0718 5.94025 46.171 6.03094 46.2672 6.10652C46.3965 6.21837 46.5048 6.31813 46.5799 6.38464C46.6671 6.46324 46.6972 6.50556 46.6972 6.50556C46.7634 6.4844 46.8145 6.46021 46.8806 6.43905C46.9889 6.4058 47.0851 6.36045 47.1933 6.3272C47.3016 6.29395 47.3978 6.2486 47.5061 6.21535C47.6143 6.18209 47.7105 6.14884 47.8188 6.11559C47.927 6.08233 48.0233 6.04908 48.1315 6.01583C48.2397 5.98257 48.336 5.94932 48.4442 5.91607C48.5525 5.88281 48.6487 5.84956 48.7569 5.8284C48.8652 5.79515 48.9614 5.77399 49.0697 5.74073C49.1779 5.70748 49.2741 5.68632 49.3824 5.65306C49.4906 5.6319 49.5868 5.59865 49.6951 5.57447C49.8033 5.5533 49.8996 5.52005 50.0078 5.49587C50.1161 5.47471 50.2123 5.45052 50.3205 5.42936C50.4288 5.4082 50.525 5.38401 50.6332 5.36285C50.7415 5.34169 50.8377 5.3296 50.946 5.30844C51.0542 5.28728 51.1504 5.27519 51.2587 5.25402C51.3669 5.23286 51.4632 5.22077 51.5714 5.20868C51.6796 5.19659 51.7759 5.17543 51.8841 5.16333C51.9924 5.15124 52.0886 5.14217 52.1968 5.13008C52.3051 5.11799 52.4013 5.10892 52.5096 5.09683C52.6178 5.08473 52.714 5.08473 52.8223 5.07567C52.9305 5.06357 53.0267 5.06357 53.135 5.0545C53.2432 5.0545 53.3395 5.04241 53.4477 5.04241C53.556 5.04241 53.6522 5.04241 53.7604 5.03032C53.8687 5.03032 53.9649 5.03032 54.0731 5.03032C54.1814 5.03032 54.2776 5.03032 54.3859 5.04241C54.4941 5.04241 54.5903 5.0545 54.6986 5.0545C54.8068 5.0666 54.903 5.0666 55.0113 5.07567C55.1195 5.08776 55.2158 5.09683 55.324 5.09683C55.4323 5.10892 55.5285 5.11799 55.6367 5.13008C55.745 5.14217 55.8412 5.16333 55.9494 5.17543C56.0577 5.18752 56.1539 5.20868 56.2622 5.22077C56.3704 5.24193 56.4666 5.25402 56.5749 5.27519C56.6831 5.29635 56.7794 5.32053 56.8876 5.34169C56.9959 5.36285 57.0921 5.38704 57.2003 5.42029C57.3086 5.44145 57.4048 5.47471 57.513 5.49889C57.6213 5.53214 57.7175 5.5533 57.8258 5.58656C57.934 5.61981 58.0302 5.65306 58.1385 5.68632C58.2467 5.71957 58.3429 5.75282 58.4512 5.79817C58.5594 5.83142 58.6557 5.87677 58.7639 5.91909C58.8722 5.96444 58.9684 6.00676 59.0766 6.0521C59.1849 6.09745 59.2811 6.13977 59.3893 6.19721C59.4976 6.24256 59.5938 6.29697 59.7021 6.34231C59.8103 6.39673 59.9065 6.44207 60.0148 6.49649C60.123 6.5509 60.2193 6.60834 60.3275 6.66276C60.4357 6.71717 60.532 6.78368 60.6402 6.85321C60.7485 6.91971 60.8447 6.98622 60.9529 7.05273C61.0612 7.11923 61.1574 7.19783 61.2657 7.26434C61.3739 7.34294 61.4701 7.40944 61.5784 7.48804C61.6866 7.56664 61.7828 7.64524 61.8911 7.72082C61.9993 7.80848 62.0956 7.88708 62.2038 7.97777C62.3121 8.06544 62.4083 8.15613 62.5165 8.2438C62.6248 8.34356 62.721 8.43425 62.8292 8.53401C62.9375 8.63377 63.0337 8.73353 63.142 8.84538C63.2502 8.95724 63.3464 9.06909 63.4547 9.16885C63.5629 9.2807 63.6591 9.40162 63.7674 9.51347C63.8756 9.63439 63.9719 9.75834 64.0801 9.87926C64.1884 10.0123 64.2846 10.1453 64.3928 10.2783C64.5011 10.4234 64.6063 10.5685 64.7056 10.7015C64.8138 10.8587 64.9221 11.0129 65.0183 11.158C65.1265 11.3243 65.2318 11.4905 65.331 11.6598C65.4392 11.8503 65.5475 12.0377 65.6437 12.204C65.761 12.4277 65.8572 12.6272 65.9564 12.8146C66.0977 13.1139 66.203 13.3588 66.2691 13.516C66.3233 13.649 66.3443 13.7276 66.3443 13.7276C66.3443 13.7276 66.4195 13.7487 66.5698 13.8062C66.657 13.8394 66.7533 13.8727 66.8826 13.918C66.9788 13.9513 67.075 13.9966 67.1953 14.0299C67.2915 14.0631 67.3877 14.1085 67.508 14.1508C67.6042 14.1961 67.7125 14.2294 67.8207 14.2717C67.9169 14.3171 68.0252 14.3594 68.1334 14.4047C68.2296 14.4501 68.3379 14.4924 68.4461 14.5498C68.5424 14.5952 68.6506 14.6375 68.7589 14.6949C68.8551 14.7403 68.9633 14.7947 69.0716 14.8521C69.1678 14.9066 69.276 14.9519 69.3843 15.0063C69.4805 15.0607 69.5888 15.1182 69.697 15.1726C69.7932 15.227 69.9015 15.2844 70.0097 15.3389C70.1059 15.3933 70.2142 15.4507 70.3224 15.5172C70.4187 15.5716 70.5269 15.6381 70.6352 15.6956C70.7314 15.75 70.8396 15.8165 70.9479 15.886C71.0441 15.9525 71.1524 16.0069 71.2606 16.0765C71.3568 16.143 71.4651 16.2095 71.5733 16.276C71.6695 16.3425 71.7778 16.409 71.886 16.4876C71.9823 16.5541 72.0905 16.6327 72.1988 16.6992C72.307 16.7778 72.4032 16.8443 72.5115 16.9229C72.6197 17.0015 72.7159 17.0771 72.8242 17.1557C72.9324 17.2343 73.0287 17.3129 73.1369 17.4006C73.2452 17.4792 73.3414 17.5668 73.4496 17.6454C73.5579 17.7331 73.6541 17.8117 73.7623 17.9024C73.8706 17.99 73.9668 18.0807 74.0751 18.1684C74.1833 18.2561 74.2795 18.3589 74.3878 18.4465C74.496 18.5463 74.5923 18.646 74.7005 18.7458C74.8087 18.8456 74.905 18.9453 75.0132 19.0572C75.1215 19.169 75.2177 19.2688 75.3259 19.3806C75.4342 19.4925 75.5304 19.6043 75.6386 19.7253C75.7469 19.8462 75.8431 19.958 75.9514 20.082C76.0596 20.2029 76.1558 20.3389 76.2641 20.4599C76.3723 20.5929 76.4686 20.7259 76.5768 20.8589C76.6851 21.004 76.7813 21.1491 76.8895 21.2912C76.9978 21.4484 77.094 21.6026 77.2022 21.7598C77.3105 21.926 77.4067 22.0923 77.515 22.2616C77.6232 22.4399 77.7194 22.6274 77.8277 22.8178C77.9359 23.0173 78.0321 23.2169 78.1404 23.4285C78.2486 23.6522 78.3449 23.885 78.4531 24.1177C78.5614 24.3747 78.6666 24.6407 78.7658 24.9188C78.8621 25.1969 78.9583 25.4751 79.0334 25.7743C79.0455 25.8197 79.0545 25.8529 79.0665 25.8953C79.1838 26.2943 79.28 26.6843 79.3792 27.0622C79.4965 27.573 79.6048 28.0628 79.692 28.5193C80.155 31.0979 80.0468 33.0689 79.692 34.526C79.6048 34.8918 79.4995 35.2364 79.3792 35.5387C79.283 35.7957 79.1748 36.0375 79.0665 36.2612C78.9703 36.4608 78.8621 36.6512 78.7538 36.8175C78.6456 36.9837 78.5493 37.1409 78.4411 37.2739C78.3328 37.4191 78.2366 37.54 78.1284 37.6518C78.0201 37.7727 77.9149 37.8846 77.8156 37.9753C77.6984 38.0871 77.5901 38.1748 77.5029 38.2413C77.3646 38.3532 77.2654 38.4076 77.2654 38.4076C77.3406 38.1839 77.4157 37.9299 77.5029 37.6186C77.6202 37.1863 77.7284 36.6633 77.8156 36.0496C77.987 34.8253 78.0532 33.2805 77.8156 31.4576C77.7405 30.8893 77.6443 30.2998 77.5029 29.6892C77.4157 29.2901 77.3105 28.876 77.1902 28.4558C77.094 28.1232 76.9978 27.7877 76.8775 27.4552C76.7813 27.1649 76.6851 26.8778 76.5648 26.5875C76.4686 26.3306 76.3723 26.0646 76.2521 25.8076C76.1649 25.6081 76.0807 25.3965 75.9935 25.1969C75.9814 25.1637 75.9604 25.1304 75.9514 25.0972C75.8551 24.8856 75.7589 24.674 75.6386 24.4744C75.5424 24.284 75.4342 24.1087 75.3259 23.9303C75.2297 23.764 75.1215 23.6068 75.0132 23.4406C74.917 23.2955 74.8087 23.1504 74.7005 23.0083C74.6043 22.8753 74.496 22.7422 74.3878 22.6092C74.2916 22.4883 74.1833 22.3644 74.0751 22.2435C73.9788 22.1225 73.8706 22.0107 73.7623 21.8988C73.6661 21.787 73.5579 21.6751 73.4496 21.5754C73.3534 21.4756 73.2452 21.3637 73.1369 21.264C73.0407 21.1642 72.9324 21.0645 72.8242 20.9738C72.728 20.8861 72.6197 20.7833 72.5115 20.6957C72.4153 20.608 72.307 20.5173 72.1988 20.4296C72.1025 20.342 71.9943 20.2634 71.886 20.1727C71.7898 20.0941 71.6816 20.0064 71.5733 19.9278C71.4771 19.8492 71.3688 19.7736 71.2606 19.695C71.1644 19.6164 71.0561 19.5378 70.9479 19.4713C70.8396 19.3927 70.7434 19.3262 70.6352 19.2597C70.5269 19.1932 70.4307 19.1146 70.3224 19.0481C70.2142 18.9816 70.118 18.9151 70.0097 18.8486C69.9015 18.7821 69.8053 18.7156 69.697 18.6581C69.5888 18.5916 69.4925 18.5372 69.3843 18.4677C69.276 18.4012 69.1798 18.3468 69.0716 18.2893C68.9633 18.2349 68.8671 18.1684 68.7589 18.111C68.6506 18.0566 68.5544 17.9991 68.4461 17.9447C68.3379 17.8903 68.2417 17.8328 68.1334 17.7784C68.0252 17.724 67.929 17.6666 67.8207 17.6243C67.7125 17.5698 67.6162 17.5245 67.508 17.4671C67.3997 17.4126 67.3035 17.3673 67.1953 17.322C67.087 17.2766 66.9908 17.2222 66.8826 17.1769C66.7743 17.1315 66.6781 17.0892 66.5698 17.0438C66.4616 16.9985 66.3654 16.9562 66.2571 16.9108C66.1489 16.8655 66.0527 16.8232 65.9444 16.7778C65.8362 16.7325 65.7399 16.6901 65.6317 16.6569C65.5234 16.6115 65.4272 16.5783 65.319 16.536C65.2107 16.4906 65.1145 16.4574 65.0062 16.4241C64.898 16.3788 64.7928 16.3455 64.6935 16.3123C64.5853 16.2669 64.48 16.2337 64.3808 16.2004C64.2635 16.1551 64.1553 16.1218 64.0681 16.1007C63.9057 16.0553 63.8305 16.0221 63.8305 16.0221C63.8095 15.9767 63.7884 15.9344 63.7674 15.889C63.6712 15.6774 63.5629 15.4779 63.4547 15.2784C63.3585 15.0789 63.2502 14.8884 63.142 14.701C63.0457 14.5226 62.9375 14.3352 62.8292 14.1659C62.733 13.9996 62.6248 13.8334 62.5165 13.6641C62.4203 13.5069 62.3121 13.3527 62.2038 13.1955C62.1076 13.0504 61.9993 12.9053 61.8911 12.7632C61.7949 12.6181 61.6866 12.4851 61.5784 12.3521C61.4822 12.2191 61.3739 12.0951 61.2657 11.9742C61.1694 11.8533 61.0612 11.7294 60.9529 11.6175C60.8567 11.5056 60.7485 11.3938 60.6402 11.285C60.544 11.1731 60.4357 11.0734 60.3275 10.9736C60.2313 10.8738 60.123 10.7741 60.0148 10.6834C59.9186 10.5957 59.8103 10.4929 59.7021 10.4053C59.6058 10.3176 59.4976 10.239 59.3893 10.1483C59.2811 10.0697 59.1849 9.99413 59.0766 9.91554C58.9684 9.83694 58.8722 9.77043 58.7639 9.69183C58.6557 9.62533 58.5594 9.55882 58.4512 9.49231C58.3429 9.42581 58.2467 9.3593 58.1385 9.30186C58.0302 9.24745 57.934 9.18094 57.8258 9.1235C57.7175 9.06909 57.6213 9.01165 57.513 8.9663C57.4048 8.91189 57.3086 8.86654 57.2003 8.8212C57.0921 8.77585 56.9959 8.73353 56.8876 8.68819C56.7794 8.64284 56.6831 8.60959 56.5749 8.56726C56.4666 8.53401 56.3704 8.48867 56.2622 8.4675C56.1539 8.43425 56.0577 8.401 55.9494 8.37984C55.8412 8.34658 55.745 8.32542 55.6367 8.30124C55.5285 8.28008 55.4323 8.25589 55.324 8.23473C55.2158 8.21357 55.1195 8.18939 55.0113 8.18032C54.903 8.15916 54.8068 8.14706 54.6986 8.13497C54.5903 8.12288 54.4941 8.11381 54.3859 8.10172C54.2776 8.08963 54.1814 8.08056 54.0731 8.08056C53.9649 8.06846 53.8687 8.06846 53.7604 8.06846C53.6522 8.06846 53.556 8.06846 53.4477 8.05637C53.3395 8.05637 53.2432 8.05637 53.135 8.05637C53.0267 8.05637 52.9305 8.06846 52.8223 8.06846C52.714 8.08056 52.6178 8.08056 52.5096 8.08963C52.4013 8.10172 52.3051 8.11079 52.1968 8.12288C52.0886 8.13497 51.9924 8.14404 51.8841 8.16822C51.7759 8.18032 51.6796 8.20148 51.5714 8.21357C51.4632 8.23473 51.3669 8.24682 51.2587 8.26798C51.1504 8.28915 51.0542 8.31333 50.946 8.33449C50.8377 8.35565 50.7415 8.37984 50.6332 8.41309C50.525 8.43425 50.4288 8.4675 50.3205 8.49169C50.2123 8.52494 50.1161 8.5461 50.0078 8.57936C49.8996 8.61261 49.8033 8.64586 49.6951 8.67912C49.5868 8.71237 49.4906 8.74562 49.3824 8.79097C49.2741 8.82422 49.1779 8.86957 49.0697 8.90282C48.9614 8.94817 48.8652 8.98142 48.7569 9.02374C48.6487 9.06909 48.5525 9.11141 48.4442 9.15676C48.336 9.2021 48.2397 9.24442 48.1315 9.28977C48.0233 9.33511 47.927 9.38953 47.8188 9.43487C47.7105 9.48929 47.6143 9.53463 47.5061 9.59207C47.3978 9.64649 47.3016 9.70392 47.1933 9.75834C47.0851 9.81275 46.9799 9.87926 46.8806 9.9367C46.7724 10.0032 46.6641 10.0576 46.5679 10.1151C46.4506 10.1816 46.3514 10.2481 46.2552 10.3146C46.1139 10.4022 46.0176 10.4687 45.9425 10.5262C45.8793 10.5715 45.8463 10.5927 45.8463 10.5927C45.7801 10.505 45.7049 10.4143 45.6298 10.3146C45.5335 10.1937 45.4373 10.0697 45.317 9.9367C45.2208 9.82484 45.1246 9.70392 45.0043 9.57998C44.9081 9.46813 44.7999 9.35628 44.6916 9.23535C44.5954 9.1235 44.4871 9.02374 44.3789 8.91189C44.2827 8.81213 44.1744 8.71237 44.0662 8.60052C43.9699 8.50076 43.8617 8.401 43.7534 8.30124C43.6572 8.21357 43.549 8.11079 43.4407 8.01103C43.3445 7.92336 43.2363 7.83267 43.128 7.73291C43.0318 7.64524 42.9235 7.55455 42.8153 7.46688C42.7191 7.37921 42.6108 7.30062 42.5026 7.20992C42.4064 7.13133 42.2981 7.04366 42.1899 6.96506C42.0936 6.88646 41.9854 6.81088 41.8771 6.73229C41.7809 6.65369 41.6727 6.57509 41.5644 6.50858C41.4682 6.42998 41.36 6.36348 41.2517 6.28488C41.1555 6.21837 41.0472 6.13977 40.939 6.07327C40.8428 6.00676 40.7345 5.94025 40.6263 5.87375C40.53 5.80724 40.4218 5.74073 40.3135 5.68329C40.2173 5.61679 40.1091 5.56237 40.0008 5.49284C39.9046 5.43843 39.7964 5.37192 39.6881 5.31448C39.5919 5.26007 39.4836 5.20263 39.3754 5.14822C39.2792 5.0938 39.1709 5.03637 39.0627 4.98195C38.9665 4.92754 38.8582 4.88219 38.75 4.82475C38.6537 4.77034 38.5455 4.72499 38.4372 4.67965C38.341 4.6343 38.2328 4.57989 38.1245 4.53454C38.0283 4.4892 37.9201 4.44688 37.8118 4.40153C37.7156 4.35618 37.6073 4.31386 37.4991 4.26852C37.4029 4.22317 37.2946 4.18992 37.1864 4.1476C37.0901 4.11434 36.9819 4.069 36.8737 4.03574C36.7774 4.00249 36.6692 3.96924 36.5609 3.92389C36.4647 3.89064 36.3565 3.85739 36.2482 3.82413C36.152 3.79088 36.0437 3.75763 35.9355 3.72437C35.8393 3.69112 35.731 3.66996 35.6228 3.6367C35.5266 3.60345 35.4183 3.58229 35.3101 3.55811C35.2138 3.53694 35.1056 3.50369 34.9973 3.47951C34.9011 3.45835 34.7929 3.43416 34.6846 3.413C34.5884 3.39184 34.4802 3.36765 34.3719 3.34649C34.2757 3.32533 34.1674 3.31324 34.0592 3.29208C33.963 3.27092 33.8547 3.25883 33.7465 3.23766C33.6503 3.22557 33.542 3.20441 33.4338 3.19232C33.3375 3.18023 33.2293 3.17116 33.121 3.14697C33.0248 3.13488 32.9166 3.12581 32.8083 3.11372C32.7121 3.10163 32.6039 3.09256 32.4956 3.09256C32.3994 3.08047 32.2911 3.08047 32.1829 3.0714C32.0867 3.05931 31.9784 3.05931 31.8702 3.05931C31.7739 3.05931 31.6657 3.04721 31.5574 3.04721C31.4612 3.04721 31.353 3.04721 31.2447 3.04721C31.1485 3.04721 31.0403 3.04721 30.932 3.04721C30.8358 3.04721 30.7275 3.05931 30.6193 3.05931C30.5231 3.05931 30.4148 3.0714 30.3066 3.0714C30.2104 3.08349 30.1021 3.08349 29.9939 3.09256C29.8976 3.10465 29.7894 3.11372 29.6811 3.11372C29.5729 3.12581 29.4767 3.13488 29.3684 3.14697C29.2722 3.15907 29.164 3.16813 29.0557 3.19232C28.9595 3.20441 28.8512 3.22557 28.743 3.23766C28.6347 3.24976 28.5385 3.27092 28.4303 3.28301C28.334 3.30417 28.2258 3.31626 28.1176 3.33742C28.0213 3.35859 27.9131 3.38277 27.8048 3.39184C27.7086 3.413 27.6004 3.43718 27.4921 3.45835C27.3959 3.47951 27.2876 3.50369 27.1794 3.53694C27.0712 3.55811 26.9749 3.59136 26.8667 3.61554C26.7705 3.6367 26.6622 3.66996 26.554 3.70321C26.4577 3.73646 26.3495 3.75763 26.2412 3.79088C26.133 3.82413 26.0368 3.85739 25.9285 3.89064C25.8323 3.92389 25.7241 3.95715 25.6158 3.9904C25.5076 4.02365 25.4113 4.0569 25.3031 4.10225C25.2069 4.1355 25.0986 4.18085 24.9904 4.2141C24.8942 4.24736 24.7859 4.2927 24.6777 4.33502C24.5694 4.38037 24.4732 4.41362 24.3649 4.45594C24.2687 4.50129 24.1605 4.54361 24.0522 4.58896C23.956 4.6343 23.8688 4.66756 23.7726 4.70988C23.7605 4.70988 23.7515 4.72197 23.7395 4.72197C23.6313 4.76732 23.535 4.82173 23.4268 4.86708C23.3185 4.91242 23.2223 4.96684 23.1141 5.01218C23.0058 5.0666 22.9096 5.11194 22.8013 5.16938C22.6931 5.22379 22.5969 5.28123 22.4886 5.33565C22.3804 5.39006 22.2842 5.4475 22.1759 5.50191C22.0677 5.55633 21.9714 5.61376 21.8632 5.68027C21.7549 5.73469 21.6587 5.80119 21.5505 5.85863C21.4422 5.92514 21.346 5.97955 21.2378 6.04908C21.1295 6.11559 21.0333 6.18209 20.925 6.2486C20.8168 6.31511 20.7206 6.38161 20.6123 6.46021C20.5041 6.52672 20.4079 6.60532 20.2996 6.67183C20.1914 6.75042 20.0951 6.81693 19.9869 6.89553C19.8786 6.97413 19.7824 7.05273 19.6742 7.1283C19.5659 7.2069 19.4697 7.2855 19.3615 7.37317C19.2532 7.46084 19.157 7.53943 19.0487 7.63013C18.9405 7.71779 18.8443 7.80848 18.736 7.89615C18.6278 7.98382 18.5315 8.0866 18.4233 8.17427C18.315 8.27403 18.2188 8.36472 18.1106 8.46448C18.0023 8.56424 17.9061 8.664 17.7979 8.76376C17.6896 8.86352 17.5934 8.97537 17.4851 9.07513C17.3769 9.18699 17.2807 9.29884 17.1724 9.3986C17.0642 9.51045 16.968 9.63137 16.8597 9.74322C16.7515 9.86414 16.6552 9.98809 16.547 10.0999C16.4387 10.2209 16.3425 10.3569 16.2343 10.4778C16.126 10.6108 16.0298 10.7438 15.9216 10.8769C15.8133 11.0099 15.7171 11.155 15.6088 11.288C15.5006 11.4331 15.4044 11.5782 15.2961 11.7203C15.1879 11.8775 15.0916 12.0317 14.9834 12.1889C14.8751 12.3551 14.7789 12.5214 14.6707 12.6786C14.5624 12.8569 14.4662 13.0232 14.358 13.2016C14.2497 13.392 14.1535 13.5794 14.0452 13.7578C13.937 13.9573 13.8408 14.1568 13.7325 14.3594C13.6243 14.571 13.5281 14.7917 13.4198 15.0033C13.3116 15.2361 13.2063 15.4719 13.1071 15.7046C12.9988 15.9616 12.8936 16.2155 12.7944 16.4725C12.6861 16.7627 12.5809 17.0499 12.4817 17.3189C12.3644 17.6515 12.2682 17.9749 12.1689 18.2863C12.0517 18.6853 11.9554 19.0662 11.8562 19.4199C11.7269 19.9641 11.6187 20.4417 11.5435 20.8559C11.3811 21.7356 11.3511 22.2586 11.3511 22.2586C11.318 22.2707 11.2759 22.2797 11.2428 22.2797C11.1346 22.3009 11.0383 22.3251 10.9301 22.3462C10.8218 22.3674 10.7256 22.3916 10.6174 22.4248C10.5091 22.446 10.4129 22.4792 10.3047 22.5034C10.1964 22.5367 10.1002 22.5578 9.99194 22.5911C9.88369 22.6244 9.78747 22.6455 9.67922 22.6788C9.57097 22.712 9.47475 22.7453 9.3665 22.7785C9.25826 22.8118 9.16203 22.845 9.05379 22.8783C8.94554 22.9115 8.84932 22.9569 8.74107 22.9901C8.63282 23.0355 8.5366 23.0687 8.42835 23.1111C8.3201 23.1564 8.22388 23.1897 8.11563 23.232C8.00738 23.2773 7.91116 23.3196 7.80291 23.365C7.69467 23.4103 7.59844 23.4648 7.4902 23.5101C7.38195 23.5645 7.28573 23.6099 7.17748 23.6673C7.06923 23.7217 6.97301 23.7791 6.86476 23.8336C6.75651 23.888 6.66029 23.9545 6.55204 24.0119C6.44379 24.0784 6.34757 24.1328 6.23932 24.2024C6.13108 24.2689 6.03485 24.3354 5.92661 24.4019C5.81836 24.4684 5.72214 24.547 5.61389 24.6256C5.50564 24.7042 5.40942 24.7828 5.30117 24.8584C5.19292 24.937 5.0967 25.0246 4.98845 25.1153C4.8802 25.203 4.78398 25.2937 4.67573 25.3934C4.56749 25.4932 4.47127 25.593 4.36302 25.6927C4.25477 25.8046 4.15855 25.9043 4.0503 26.0162C3.94205 26.128 3.84583 26.249 3.73758 26.3729C3.62933 26.4938 3.53311 26.6299 3.42486 26.7629C3.31661 26.908 3.22039 27.041 3.11214 27.1861C3.0039 27.3433 2.89865 27.5096 2.79943 27.6637C2.69118 27.8421 2.58594 28.0295 2.48671 28.2079C2.37846 28.4195 2.27322 28.6311 2.17399 28.8427C2.06574 29.0997 1.9605 29.3536 1.86127 29.6106C1.744 29.9431 1.63576 30.2666 1.54856 30.5991C1.41024 31.11 1.31101 31.6209 1.23584 32.1106C0.968223 33.9577 1.11857 35.5478 1.23584 36.3701C1.28996 36.7479 1.33206 36.9596 1.33206 36.9596C1.29898 36.9051 1.26891 36.8477 1.23584 36.7933C1.12759 36.6059 1.02235 36.4033 0.923119 36.2159C0.80585 35.971 0.709629 35.7262 0.610401 35.4813C0.493132 35.1185 0.387891 34.786 0.312718 34.4384Z" fill="url(#paint0_linear)"/>
<defs>
<linearGradient id="paint0_linear" x1="0" y1="19.1979" x2="79.743" y2="19.1979" gradientUnits="userSpaceOnUse">
<stop stop-color="#4DB849"/>
<stop offset="0.5312" stop-color="#FFE500"/>
<stop offset="1" stop-color="#F6841F"/>
</linearGradient>
</defs>
</svg>
