<svg width="53" height="52" viewBox="0 0 53 52" fill="none" xmlns="http://www.w3.org/2000/svg">
<rect x="0.517456" width="52" height="52" rx="10" fill="#FF6600"/>
<path d="M38.459 19.8009C38.6249 19.2405 38.459 18.8281 37.6611 18.8281H35.0208C34.3483 18.8281 34.039 19.1823 33.8732 19.5768C33.8732 19.5768 32.5284 22.8536 30.6277 24.9784C30.0136 25.5925 29.7312 25.7898 29.395 25.7898C29.2292 25.7898 28.9736 25.5925 28.9736 25.0322V19.8009C28.9736 19.1284 28.7853 18.8281 28.2295 18.8281H24.0784C23.6571 18.8281 23.406 19.1419 23.406 19.4333C23.406 20.0698 24.3564 20.2177 24.455 22.0108V25.9019C24.455 26.7536 24.3026 26.9104 23.9664 26.9104C23.0698 26.9104 20.8912 23.6202 19.6002 19.8547C19.3403 19.124 19.0847 18.8281 18.4078 18.8281H15.7674C15.0143 18.8281 14.8618 19.1823 14.8618 19.5768C14.8618 20.276 15.7584 23.7502 19.0353 28.3405C21.2184 31.4739 24.2935 33.173 27.0907 33.173C28.7717 33.173 28.978 32.7964 28.978 32.1464C28.978 29.1519 28.8256 28.8694 29.6684 28.8694C30.0583 28.8694 30.7307 29.0667 32.2998 30.5773C34.0927 32.3704 34.3887 33.1729 35.3928 33.1729H38.0331C38.7863 33.1729 39.1673 32.7964 38.9476 32.0521C38.4456 30.4877 35.0521 27.2691 34.8997 27.0539C34.5097 26.5518 34.6217 26.3276 34.8997 25.8793C34.9043 25.875 38.1272 21.3384 38.459 19.8009Z" fill="white"/>
</svg>
