<svg width="53" height="52" viewBox="0 0 53 52" fill="none" xmlns="http://www.w3.org/2000/svg">
<rect x="0.275635" width="52" height="52" rx="10" fill="#FF6600"/>
<path d="M39.1559 21.5268C39.1559 21.5268 38.9095 19.7891 38.1546 19.0224C37.1954 18.0187 36.1202 18.0136 35.6276 17.9539C32.0976 17.6992 26.7989 17.6992 26.7989 17.6992C26.7989 17.6992 21.4993 17.6992 17.9702 17.9548C17.4775 18.0136 16.4023 18.0187 15.4431 19.0233C14.6865 19.7891 14.441 21.5268 14.441 21.5268C14.441 21.5268 14.1888 23.2249 14.1888 25.2652V27.7881C14.1888 29.8284 14.441 31.6039 14.441 31.6039C14.441 31.6039 14.6865 33.3407 15.4431 34.1065C16.4023 35.1111 17.6625 35.08 18.2241 35.1851C20.2417 35.3785 26.7989 35.3541 26.7989 35.3541C26.7989 35.3541 32.0976 35.4298 35.6276 35.175C36.1202 35.1162 37.1954 35.1111 38.1546 34.1065C38.9095 33.3415 39.1559 31.6039 39.1559 31.6039C39.1559 31.6039 39.4089 29.8292 39.4089 27.7889V25.2661C39.4089 23.2249 39.1559 21.5268 39.1559 21.5268ZM24.1124 29.8948V23.1694L30.8377 26.5321L24.1124 29.8948Z" fill="white"/>
</svg>
