<svg width="52" height="52" viewBox="0 0 52 52" fill="none" xmlns="http://www.w3.org/2000/svg">
<rect width="52" height="52" rx="10" fill="#FF6600"/>
<path d="M31.3801 15.2412H20.6215C17.6506 15.2412 15.2422 17.6496 15.2422 20.6205V31.3791C15.2422 34.3501 17.6506 36.7585 20.6215 36.7585H31.3801C34.351 36.7585 36.7594 34.3501 36.7594 31.3791V20.6205C36.7594 17.6496 34.351 15.2412 31.3801 15.2412Z" fill="#FF6600" stroke="white" stroke-width="3" stroke-linecap="round" stroke-linejoin="round"/>
<path d="M30.3025 25.3226C30.4353 26.218 30.2824 27.1324 29.8655 27.9359C29.4486 28.7393 28.789 29.3909 27.9804 29.7978C27.1719 30.2048 26.2556 30.3464 25.362 30.2026C24.4683 30.0588 23.6427 29.6369 23.0026 28.9968C22.3626 28.3568 21.9407 27.5312 21.7968 26.6375C21.653 25.7439 21.7947 24.8276 22.2017 24.0191C22.6086 23.2105 23.2601 22.5509 24.0636 22.134C24.8671 21.7171 25.7815 21.5642 26.6769 21.6969C27.5902 21.8324 28.4358 22.258 29.0886 22.9108C29.7415 23.5637 30.1671 24.4093 30.3025 25.3226Z" fill="#FF6600" stroke="white" stroke-width="3" stroke-linecap="round" stroke-linejoin="round"/>
<path d="M31.916 20.083H31.9264" stroke="white" stroke-width="3" stroke-linecap="round" stroke-linejoin="round"/>
</svg>
