<svg width="52" height="52" viewBox="0 0 52 52" fill="none" xmlns="http://www.w3.org/2000/svg">
<rect width="52" height="52" rx="10" fill="#FF6600"/>
<path d="M26.3941 14C23.0852 14 20.3943 16.6909 20.3943 19.9998C20.3943 23.3088 23.0852 25.9997 26.3941 25.9997C29.7031 25.9997 32.394 23.3088 32.394 19.9998C32.394 16.6909 29.7031 14 26.3941 14ZM26.3941 22.9998C24.7397 22.9998 23.3942 21.6543 23.3942 19.9998C23.3942 18.3454 24.7397 16.9999 26.3941 16.9999C28.0486 16.9999 29.3941 18.3454 29.3941 19.9998C29.3941 21.6543 28.0486 22.9998 26.3941 22.9998Z" fill="white"/>
<path d="M34.35 25.8334C33.7635 25.2469 32.8155 25.2469 32.229 25.8334C29.0131 29.0493 23.7782 29.0493 20.5608 25.8334C19.9743 25.2469 19.0263 25.2469 18.4399 25.8334C17.8534 26.4199 17.8534 27.3679 18.4399 27.9559C20.3058 29.8218 22.6713 30.8853 25.1102 31.1628L20.8338 35.4392C20.2473 36.0257 20.2473 36.9736 20.8338 37.5601C21.4203 38.1466 22.3683 38.1466 22.9548 37.5601L26.3942 34.1207L29.8336 37.5601C30.1261 37.8526 30.5101 37.9996 30.8941 37.9996C31.278 37.9996 31.662 37.8526 31.9545 37.5601C32.541 36.9736 32.541 36.0257 31.9545 35.4392L27.6781 31.1628C30.1171 30.8853 32.4825 29.8218 34.3485 27.9559C34.9349 27.3694 34.9349 26.4199 34.35 25.8334Z" fill="white"/>
</svg>
